<svg width="258" height="275" viewBox="0 0 258 275" fill="none" xmlns="http://www.w3.org/2000/svg">
<path d="M34.358 76.422H31.376V79.446H30.186V76.422H27.218V75.344H30.186V72.306H31.376V75.344H34.358V76.422ZM38.2726 75.736C37.75 75.5307 37.3486 75.232 37.0686 74.84C36.7886 74.448 36.6486 73.972 36.6486 73.412C36.6486 72.908 36.7746 72.4553 37.0266 72.054C37.2786 71.6433 37.652 71.3213 38.1466 71.088C38.6506 70.8453 39.2573 70.724 39.9666 70.724C40.676 70.724 41.278 70.8453 41.7726 71.088C42.2766 71.3213 42.6546 71.6433 42.9066 72.054C43.168 72.4553 43.2986 72.908 43.2986 73.412C43.2986 73.9533 43.154 74.4293 42.8646 74.84C42.5753 75.2413 42.1786 75.54 41.6746 75.736C42.2533 75.9133 42.7106 76.226 43.0466 76.674C43.392 77.1127 43.5646 77.6447 43.5646 78.27C43.5646 78.8767 43.4153 79.4087 43.1166 79.866C42.818 80.314 42.3933 80.664 41.8426 80.916C41.3013 81.1587 40.676 81.28 39.9666 81.28C39.2573 81.28 38.632 81.1587 38.0906 80.916C37.5586 80.664 37.1433 80.314 36.8446 79.866C36.546 79.4087 36.3966 78.8767 36.3966 78.27C36.3966 77.6447 36.5646 77.108 36.9006 76.66C37.2366 76.212 37.694 75.904 38.2726 75.736ZM42.0666 73.566C42.0666 72.9967 41.88 72.558 41.5066 72.25C41.1333 71.942 40.62 71.788 39.9666 71.788C39.3226 71.788 38.814 71.942 38.4406 72.25C38.0673 72.558 37.8806 73.0013 37.8806 73.58C37.8806 74.1027 38.072 74.5227 38.4546 74.84C38.8466 75.1573 39.3506 75.316 39.9666 75.316C40.592 75.316 41.096 75.1573 41.4786 74.84C41.8706 74.5133 42.0666 74.0887 42.0666 73.566ZM39.9666 76.296C39.276 76.296 38.7113 76.4593 38.2726 76.786C37.834 77.1033 37.6146 77.584 37.6146 78.228C37.6146 78.8253 37.8246 79.306 38.2446 79.67C38.674 80.034 39.248 80.216 39.9666 80.216C40.6853 80.216 41.2546 80.034 41.6746 79.67C42.0946 79.306 42.3046 78.8253 42.3046 78.228C42.3046 77.6027 42.09 77.1267 41.6606 76.8C41.2313 76.464 40.6666 76.296 39.9666 76.296ZM47.1047 75.736C46.582 75.5307 46.1807 75.232 45.9007 74.84C45.6207 74.448 45.4807 73.972 45.4807 73.412C45.4807 72.908 45.6067 72.4553 45.8587 72.054C46.1107 71.6433 46.484 71.3213 46.9787 71.088C47.4827 70.8453 48.0893 70.724 48.7987 70.724C49.508 70.724 50.11 70.8453 50.6047 71.088C51.1087 71.3213 51.4867 71.6433 51.7387 72.054C52 72.4553 52.1307 72.908 52.1307 73.412C52.1307 73.9533 51.986 74.4293 51.6967 74.84C51.4073 75.2413 51.0107 75.54 50.5067 75.736C51.0853 75.9133 51.5427 76.226 51.8787 76.674C52.224 77.1127 52.3967 77.6447 52.3967 78.27C52.3967 78.8767 52.2473 79.4087 51.9487 79.866C51.65 80.314 51.2253 80.664 50.6747 80.916C50.1333 81.1587 49.508 81.28 48.7987 81.28C48.0893 81.28 47.464 81.1587 46.9227 80.916C46.3907 80.664 45.9753 80.314 45.6767 79.866C45.378 79.4087 45.2287 78.8767 45.2287 78.27C45.2287 77.6447 45.3967 77.108 45.7327 76.66C46.0687 76.212 46.526 75.904 47.1047 75.736ZM50.8987 73.566C50.8987 72.9967 50.712 72.558 50.3387 72.25C49.9653 71.942 49.452 71.788 48.7987 71.788C48.1547 71.788 47.646 71.942 47.2727 72.25C46.8993 72.558 46.7127 73.0013 46.7127 73.58C46.7127 74.1027 46.904 74.5227 47.2867 74.84C47.6787 75.1573 48.1827 75.316 48.7987 75.316C49.424 75.316 49.928 75.1573 50.3107 74.84C50.7027 74.5133 50.8987 74.0887 50.8987 73.566ZM48.7987 76.296C48.108 76.296 47.5433 76.4593 47.1047 76.786C46.666 77.1033 46.4467 77.584 46.4467 78.228C46.4467 78.8253 46.6567 79.306 47.0767 79.67C47.506 80.034 48.08 80.216 48.7987 80.216C49.5173 80.216 50.0867 80.034 50.5067 79.67C50.9267 79.306 51.1367 78.8253 51.1367 78.228C51.1367 77.6027 50.922 77.1267 50.4927 76.8C50.0633 76.464 49.4987 76.296 48.7987 76.296ZM54.0887 75.834C54.0887 74.2287 54.35 72.978 54.8727 72.082C55.3954 71.1767 56.31 70.724 57.6167 70.724C58.914 70.724 59.824 71.1767 60.3467 72.082C60.8694 72.978 61.1307 74.2287 61.1307 75.834C61.1307 77.4673 60.8694 78.7367 60.3467 79.642C59.824 80.5473 58.914 81 57.6167 81C56.31 81 55.3954 80.5473 54.8727 79.642C54.35 78.7367 54.0887 77.4673 54.0887 75.834ZM59.8707 75.834C59.8707 75.022 59.8147 74.336 59.7027 73.776C59.6 73.2067 59.3807 72.7493 59.0447 72.404C58.718 72.0587 58.242 71.886 57.6167 71.886C56.982 71.886 56.4967 72.0587 56.1607 72.404C55.834 72.7493 55.6147 73.2067 55.5027 73.776C55.4 74.336 55.3487 75.022 55.3487 75.834C55.3487 76.674 55.4 77.3787 55.5027 77.948C55.6147 78.5173 55.834 78.9747 56.1607 79.32C56.4967 79.6653 56.982 79.838 57.6167 79.838C58.242 79.838 58.718 79.6653 59.0447 79.32C59.3807 78.9747 59.6 78.5173 59.7027 77.948C59.8147 77.3787 59.8707 76.674 59.8707 75.834ZM68.4097 75.33V76.408H62.8237V75.33H68.4097ZM70.4367 79.978C71.622 79.026 72.5507 78.2467 73.2227 77.64C73.8947 77.024 74.4593 76.3847 74.9167 75.722C75.3833 75.05 75.6167 74.392 75.6167 73.748C75.6167 73.1413 75.4673 72.6653 75.1687 72.32C74.8793 71.9653 74.408 71.788 73.7547 71.788C73.12 71.788 72.6253 71.9887 72.2707 72.39C71.9253 72.782 71.7387 73.3093 71.7107 73.972H70.4787C70.516 72.9267 70.8333 72.1193 71.4307 71.55C72.028 70.9807 72.798 70.696 73.7407 70.696C74.702 70.696 75.4627 70.962 76.0227 71.494C76.592 72.026 76.8767 72.7587 76.8767 73.692C76.8767 74.4667 76.6433 75.2227 76.1767 75.96C75.7193 76.688 75.1967 77.332 74.6087 77.892C74.0207 78.4427 73.2693 79.0867 72.3547 79.824H77.1707V80.888H70.4367V79.978ZM84.1734 75.33V76.408H78.5874V75.33H84.1734ZM87.9923 78.284C88.0857 78.816 88.3003 79.2267 88.6363 79.516C88.9817 79.8053 89.4437 79.95 90.0223 79.95C90.797 79.95 91.3663 79.6467 91.7303 79.04C92.1037 78.4333 92.281 77.4113 92.2623 75.974C92.0663 76.394 91.7397 76.7253 91.2823 76.968C90.825 77.2013 90.3163 77.318 89.7563 77.318C89.131 77.318 88.571 77.192 88.0763 76.94C87.591 76.6787 87.2083 76.3007 86.9283 75.806C86.6483 75.3113 86.5083 74.714 86.5083 74.014C86.5083 73.0153 86.7977 72.2127 87.3763 71.606C87.955 70.99 88.7763 70.682 89.8403 70.682C91.147 70.682 92.0617 71.1067 92.5843 71.956C93.1163 72.8053 93.3823 74.07 93.3823 75.75C93.3823 76.926 93.275 77.8967 93.0603 78.662C92.855 79.4273 92.5003 80.0107 91.9963 80.412C91.5017 80.8133 90.8203 81.014 89.9523 81.014C89.0003 81.014 88.2583 80.7573 87.7263 80.244C87.1943 79.7307 86.891 79.0773 86.8163 78.284H87.9923ZM89.9663 76.24C90.5917 76.24 91.105 76.0487 91.5063 75.666C91.9077 75.274 92.1083 74.7467 92.1083 74.084C92.1083 73.384 91.9123 72.8193 91.5203 72.39C91.1283 71.9607 90.5777 71.746 89.8683 71.746C89.215 71.746 88.6923 71.9513 88.3003 72.362C87.9177 72.7727 87.7263 73.314 87.7263 73.986C87.7263 74.6673 87.9177 75.2133 88.3003 75.624C88.683 76.0347 89.2383 76.24 89.9663 76.24ZM97.0207 75.736C96.498 75.5307 96.0967 75.232 95.8167 74.84C95.5367 74.448 95.3967 73.972 95.3967 73.412C95.3967 72.908 95.5227 72.4553 95.7747 72.054C96.0267 71.6433 96.4 71.3213 96.8947 71.088C97.3987 70.8453 98.0054 70.724 98.7147 70.724C99.424 70.724 100.026 70.8453 100.521 71.088C101.025 71.3213 101.403 71.6433 101.655 72.054C101.916 72.4553 102.047 72.908 102.047 73.412C102.047 73.9533 101.902 74.4293 101.613 74.84C101.323 75.2413 100.927 75.54 100.423 75.736C101.001 75.9133 101.459 76.226 101.795 76.674C102.14 77.1127 102.313 77.6447 102.313 78.27C102.313 78.8767 102.163 79.4087 101.865 79.866C101.566 80.314 101.141 80.664 100.591 80.916C100.049 81.1587 99.424 81.28 98.7147 81.28C98.0054 81.28 97.38 81.1587 96.8387 80.916C96.3067 80.664 95.8914 80.314 95.5927 79.866C95.294 79.4087 95.1447 78.8767 95.1447 78.27C95.1447 77.6447 95.3127 77.108 95.6487 76.66C95.9847 76.212 96.442 75.904 97.0207 75.736ZM100.815 73.566C100.815 72.9967 100.628 72.558 100.255 72.25C99.8814 71.942 99.368 71.788 98.7147 71.788C98.0707 71.788 97.562 71.942 97.1887 72.25C96.8154 72.558 96.6287 73.0013 96.6287 73.58C96.6287 74.1027 96.82 74.5227 97.2027 74.84C97.5947 75.1573 98.0987 75.316 98.7147 75.316C99.34 75.316 99.844 75.1573 100.227 74.84C100.619 74.5133 100.815 74.0887 100.815 73.566ZM98.7147 76.296C98.024 76.296 97.4594 76.4593 97.0207 76.786C96.582 77.1033 96.3627 77.584 96.3627 78.228C96.3627 78.8253 96.5727 79.306 96.9927 79.67C97.422 80.034 97.996 80.216 98.7147 80.216C99.4334 80.216 100.003 80.034 100.423 79.67C100.843 79.306 101.053 78.8253 101.053 78.228C101.053 77.6027 100.838 77.1267 100.409 76.8C99.9794 76.464 99.4147 76.296 98.7147 76.296ZM105.643 78.284C105.736 78.816 105.951 79.2267 106.287 79.516C106.632 79.8053 107.094 79.95 107.673 79.95C108.447 79.95 109.017 79.6467 109.381 79.04C109.754 78.4333 109.931 77.4113 109.913 75.974C109.717 76.394 109.39 76.7253 108.933 76.968C108.475 77.2013 107.967 77.318 107.407 77.318C106.781 77.318 106.221 77.192 105.727 76.94C105.241 76.6787 104.859 76.3007 104.579 75.806C104.299 75.3113 104.159 74.714 104.159 74.014C104.159 73.0153 104.448 72.2127 105.027 71.606C105.605 70.99 106.427 70.682 107.491 70.682C108.797 70.682 109.712 71.1067 110.235 71.956C110.767 72.8053 111.033 74.07 111.033 75.75C111.033 76.926 110.925 77.8967 110.711 78.662C110.505 79.4273 110.151 80.0107 109.647 80.412C109.152 80.8133 108.471 81.014 107.603 81.014C106.651 81.014 105.909 80.7573 105.377 80.244C104.845 79.7307 104.541 79.0773 104.467 78.284H105.643ZM107.617 76.24C108.242 76.24 108.755 76.0487 109.157 75.666C109.558 75.274 109.759 74.7467 109.759 74.084C109.759 73.384 109.563 72.8193 109.171 72.39C108.779 71.9607 108.228 71.746 107.519 71.746C106.865 71.746 106.343 71.9513 105.951 72.362C105.568 72.7727 105.377 73.314 105.377 73.986C105.377 74.6673 105.568 75.2133 105.951 75.624C106.333 76.0347 106.889 76.24 107.617 76.24ZM114.671 75.736C114.148 75.5307 113.747 75.232 113.467 74.84C113.187 74.448 113.047 73.972 113.047 73.412C113.047 72.908 113.173 72.4553 113.425 72.054C113.677 71.6433 114.05 71.3213 114.545 71.088C115.049 70.8453 115.656 70.724 116.365 70.724C117.074 70.724 117.676 70.8453 118.171 71.088C118.675 71.3213 119.053 71.6433 119.305 72.054C119.566 72.4553 119.697 72.908 119.697 73.412C119.697 73.9533 119.552 74.4293 119.263 74.84C118.974 75.2413 118.577 75.54 118.073 75.736C118.652 75.9133 119.109 76.226 119.445 76.674C119.79 77.1127 119.963 77.6447 119.963 78.27C119.963 78.8767 119.814 79.4087 119.515 79.866C119.216 80.314 118.792 80.664 118.241 80.916C117.7 81.1587 117.074 81.28 116.365 81.28C115.656 81.28 115.03 81.1587 114.489 80.916C113.957 80.664 113.542 80.314 113.243 79.866C112.944 79.4087 112.795 78.8767 112.795 78.27C112.795 77.6447 112.963 77.108 113.299 76.66C113.635 76.212 114.092 75.904 114.671 75.736ZM118.465 73.566C118.465 72.9967 118.278 72.558 117.905 72.25C117.532 71.942 117.018 71.788 116.365 71.788C115.721 71.788 115.212 71.942 114.839 72.25C114.466 72.558 114.279 73.0013 114.279 73.58C114.279 74.1027 114.47 74.5227 114.853 74.84C115.245 75.1573 115.749 75.316 116.365 75.316C116.99 75.316 117.494 75.1573 117.877 74.84C118.269 74.5133 118.465 74.0887 118.465 73.566ZM116.365 76.296C115.674 76.296 115.11 76.4593 114.671 76.786C114.232 77.1033 114.013 77.584 114.013 78.228C114.013 78.8253 114.223 79.306 114.643 79.67C115.072 80.034 115.646 80.216 116.365 80.216C117.084 80.216 117.653 80.034 118.073 79.67C118.493 79.306 118.703 78.8253 118.703 78.228C118.703 77.6027 118.488 77.1267 118.059 76.8C117.63 76.464 117.065 76.296 116.365 76.296ZM127.885 71.872L123.993 81H122.705L126.653 71.998H121.249V70.906H127.885V71.872ZM130.936 78.284C131.029 78.816 131.244 79.2267 131.58 79.516C131.925 79.8053 132.387 79.95 132.966 79.95C133.74 79.95 134.31 79.6467 134.674 79.04C135.047 78.4333 135.224 77.4113 135.206 75.974C135.01 76.394 134.683 76.7253 134.226 76.968C133.768 77.2013 133.26 77.318 132.7 77.318C132.074 77.318 131.514 77.192 131.02 76.94C130.534 76.6787 130.152 76.3007 129.872 75.806C129.592 75.3113 129.452 74.714 129.452 74.014C129.452 73.0153 129.741 72.2127 130.32 71.606C130.898 70.99 131.72 70.682 132.784 70.682C134.09 70.682 135.005 71.1067 135.528 71.956C136.06 72.8053 136.326 74.07 136.326 75.75C136.326 76.926 136.218 77.8967 136.004 78.662C135.798 79.4273 135.444 80.0107 134.94 80.412C134.445 80.8133 133.764 81.014 132.896 81.014C131.944 81.014 131.202 80.7573 130.67 80.244C130.138 79.7307 129.834 79.0773 129.76 78.284H130.936ZM132.91 76.24C133.535 76.24 134.048 76.0487 134.45 75.666C134.851 75.274 135.052 74.7467 135.052 74.084C135.052 73.384 134.856 72.8193 134.464 72.39C134.072 71.9607 133.521 71.746 132.812 71.746C132.158 71.746 131.636 71.9513 131.244 72.362C130.861 72.7727 130.67 73.314 130.67 73.986C130.67 74.6673 130.861 75.2133 131.244 75.624C131.626 76.0347 132.182 76.24 132.91 76.24ZM143.758 73.286C143.553 72.25 142.913 71.732 141.84 71.732C141.009 71.732 140.389 72.054 139.978 72.698C139.567 73.3327 139.367 74.3827 139.376 75.848C139.591 75.3627 139.945 74.9847 140.44 74.714C140.944 74.434 141.504 74.294 142.12 74.294C143.081 74.294 143.847 74.5927 144.416 75.19C144.995 75.7873 145.284 76.6133 145.284 77.668C145.284 78.3027 145.158 78.872 144.906 79.376C144.663 79.88 144.29 80.2813 143.786 80.58C143.291 80.8787 142.689 81.028 141.98 81.028C141.019 81.028 140.267 80.8133 139.726 80.384C139.185 79.9547 138.807 79.362 138.592 78.606C138.377 77.85 138.27 76.9167 138.27 75.806C138.27 72.3807 139.465 70.668 141.854 70.668C142.769 70.668 143.487 70.9153 144.01 71.41C144.533 71.9047 144.841 72.53 144.934 73.286H143.758ZM141.854 75.372C141.453 75.372 141.075 75.456 140.72 75.624C140.365 75.7827 140.076 76.03 139.852 76.366C139.637 76.6927 139.53 77.094 139.53 77.57C139.53 78.2793 139.735 78.858 140.146 79.306C140.557 79.7447 141.145 79.964 141.91 79.964C142.563 79.964 143.081 79.7633 143.464 79.362C143.856 78.9513 144.052 78.4007 144.052 77.71C144.052 76.982 143.865 76.4127 143.492 76.002C143.119 75.582 142.573 75.372 141.854 75.372Z" fill="white"/>
<path d="M0.63 20.7C0.63 19.464 0.906 18.36 1.458 17.388C2.022 16.404 2.784 15.642 3.744 15.102C4.716 14.55 5.802 14.274 7.002 14.274C8.406 14.274 9.636 14.634 10.692 15.354C11.748 16.074 12.486 17.07 12.906 18.342H10.008C9.72 17.742 9.312 17.292 8.784 16.992C8.268 16.692 7.668 16.542 6.984 16.542C6.252 16.542 5.598 16.716 5.022 17.064C4.458 17.4 4.014 17.88 3.69 18.504C3.378 19.128 3.222 19.86 3.222 20.7C3.222 21.528 3.378 22.26 3.69 22.896C4.014 23.52 4.458 24.006 5.022 24.354C5.598 24.69 6.252 24.858 6.984 24.858C7.668 24.858 8.268 24.708 8.784 24.408C9.312 24.096 9.72 23.64 10.008 23.04H12.906C12.486 24.324 11.748 25.326 10.692 26.046C9.648 26.754 8.418 27.108 7.002 27.108C5.802 27.108 4.716 26.838 3.744 26.298C2.784 25.746 2.022 24.984 1.458 24.012C0.906 23.04 0.63 21.936 0.63 20.7ZM19.4864 27.162C18.5264 27.162 17.6624 26.952 16.8944 26.532C16.1264 26.1 15.5204 25.494 15.0764 24.714C14.6444 23.934 14.4284 23.034 14.4284 22.014C14.4284 20.994 14.6504 20.094 15.0944 19.314C15.5504 18.534 16.1684 17.934 16.9484 17.514C17.7284 17.082 18.5984 16.866 19.5584 16.866C20.5184 16.866 21.3884 17.082 22.1684 17.514C22.9484 17.934 23.5604 18.534 24.0044 19.314C24.4604 20.094 24.6884 20.994 24.6884 22.014C24.6884 23.034 24.4544 23.934 23.9864 24.714C23.5304 25.494 22.9064 26.1 22.1144 26.532C21.3344 26.952 20.4584 27.162 19.4864 27.162ZM19.4864 24.966C19.9424 24.966 20.3684 24.858 20.7644 24.642C21.1724 24.414 21.4964 24.078 21.7364 23.634C21.9764 23.19 22.0964 22.65 22.0964 22.014C22.0964 21.066 21.8444 20.34 21.3404 19.836C20.8484 19.32 20.2424 19.062 19.5224 19.062C18.8024 19.062 18.1964 19.32 17.7044 19.836C17.2244 20.34 16.9844 21.066 16.9844 22.014C16.9844 22.962 17.2184 23.694 17.6864 24.21C18.1664 24.714 18.7664 24.966 19.4864 24.966ZM32.0629 16.884C33.2509 16.884 34.2109 17.262 34.9429 18.018C35.6749 18.762 36.0409 19.806 36.0409 21.15V27H33.5209V21.492C33.5209 20.7 33.3229 20.094 32.9269 19.674C32.5309 19.242 31.9909 19.026 31.3069 19.026C30.6109 19.026 30.0589 19.242 29.6509 19.674C29.2549 20.094 29.0569 20.7 29.0569 21.492V27H26.5369V17.028H29.0569V18.27C29.3929 17.838 29.8189 17.502 30.3349 17.262C30.8629 17.01 31.4389 16.884 32.0629 16.884ZM41.3713 19.098V23.922C41.3713 24.258 41.4493 24.504 41.6053 24.66C41.7733 24.804 42.0493 24.876 42.4333 24.876H43.6033V27H42.0193C39.8953 27 38.8333 25.968 38.8333 23.904V19.098H37.6453V17.028H38.8333V14.562H41.3713V17.028H43.6033V19.098H41.3713ZM44.7678 21.978C44.7678 20.97 44.9658 20.076 45.3618 19.296C45.7698 18.516 46.3158 17.916 46.9998 17.496C47.6958 17.076 48.4698 16.866 49.3218 16.866C50.0658 16.866 50.7138 17.016 51.2658 17.316C51.8298 17.616 52.2798 17.994 52.6158 18.45V17.028H55.1538V27H52.6158V25.542C52.2918 26.01 51.8418 26.4 51.2658 26.712C50.7018 27.012 50.0478 27.162 49.3038 27.162C48.4638 27.162 47.6958 26.946 46.9998 26.514C46.3158 26.082 45.7698 25.476 45.3618 24.696C44.9658 23.904 44.7678 22.998 44.7678 21.978ZM52.6158 22.014C52.6158 21.402 52.4958 20.88 52.2558 20.448C52.0158 20.004 51.6918 19.668 51.2838 19.44C50.8758 19.2 50.4378 19.08 49.9698 19.08C49.5018 19.08 49.0698 19.194 48.6738 19.422C48.2778 19.65 47.9538 19.986 47.7018 20.43C47.4618 20.862 47.3418 21.378 47.3418 21.978C47.3418 22.578 47.4618 23.106 47.7018 23.562C47.9538 24.006 48.2778 24.348 48.6738 24.588C49.0818 24.828 49.5138 24.948 49.9698 24.948C50.4378 24.948 50.8758 24.834 51.2838 24.606C51.6918 24.366 52.0158 24.03 52.2558 23.598C52.4958 23.154 52.6158 22.626 52.6158 22.014ZM56.967 22.014C56.967 20.982 57.177 20.082 57.597 19.314C58.017 18.534 58.599 17.934 59.343 17.514C60.087 17.082 60.939 16.866 61.899 16.866C63.135 16.866 64.155 17.178 64.959 17.802C65.775 18.414 66.321 19.278 66.597 20.394H63.879C63.735 19.962 63.489 19.626 63.141 19.386C62.805 19.134 62.385 19.008 61.881 19.008C61.161 19.008 60.591 19.272 60.171 19.8C59.751 20.316 59.541 21.054 59.541 22.014C59.541 22.962 59.751 23.7 60.171 24.228C60.591 24.744 61.161 25.002 61.881 25.002C62.901 25.002 63.567 24.546 63.879 23.634H66.597C66.321 24.714 65.775 25.572 64.959 26.208C64.143 26.844 63.123 27.162 61.899 27.162C60.939 27.162 60.087 26.952 59.343 26.532C58.599 26.1 58.017 25.5 57.597 24.732C57.177 23.952 56.967 23.046 56.967 22.014ZM71.3772 19.098V23.922C71.3772 24.258 71.4552 24.504 71.6112 24.66C71.7792 24.804 72.0552 24.876 72.4392 24.876H73.6092V27H72.0252C69.9012 27 68.8392 25.968 68.8392 23.904V19.098H67.6512V17.028H68.8392V14.562H71.3772V17.028H73.6092V19.098H71.3772ZM82.1948 14.436V22.212C82.1948 23.064 82.4168 23.718 82.8608 24.174C83.3048 24.618 83.9288 24.84 84.7328 24.84C85.5488 24.84 86.1788 24.618 86.6228 24.174C87.0668 23.718 87.2888 23.064 87.2888 22.212V14.436H89.8268V22.194C89.8268 23.262 89.5928 24.168 89.1248 24.912C88.6688 25.644 88.0508 26.196 87.2708 26.568C86.5028 26.94 85.6448 27.126 84.6968 27.126C83.7608 27.126 82.9088 26.94 82.1408 26.568C81.3848 26.196 80.7848 25.644 80.3408 24.912C79.8968 24.168 79.6748 23.262 79.6748 22.194V14.436H82.1948ZM96.0775 27.162C95.2615 27.162 94.5295 27.018 93.8815 26.73C93.2335 26.43 92.7175 26.028 92.3335 25.524C91.9615 25.02 91.7575 24.462 91.7215 23.85H94.2595C94.3075 24.234 94.4935 24.552 94.8175 24.804C95.1535 25.056 95.5675 25.182 96.0595 25.182C96.5395 25.182 96.9115 25.086 97.1755 24.894C97.4515 24.702 97.5895 24.456 97.5895 24.156C97.5895 23.832 97.4215 23.592 97.0855 23.436C96.7615 23.268 96.2395 23.088 95.5195 22.896C94.7755 22.716 94.1635 22.53 93.6835 22.338C93.2155 22.146 92.8075 21.852 92.4595 21.456C92.1235 21.06 91.9555 20.526 91.9555 19.854C91.9555 19.302 92.1115 18.798 92.4235 18.342C92.7475 17.886 93.2035 17.526 93.7915 17.262C94.3915 16.998 95.0935 16.866 95.8975 16.866C97.0855 16.866 98.0335 17.166 98.7415 17.766C99.4495 18.354 99.8395 19.152 99.9115 20.16H97.4995C97.4635 19.764 97.2955 19.452 96.9955 19.224C96.7075 18.984 96.3175 18.864 95.8255 18.864C95.3695 18.864 95.0155 18.948 94.7635 19.116C94.5235 19.284 94.4035 19.518 94.4035 19.818C94.4035 20.154 94.5715 20.412 94.9075 20.592C95.2435 20.76 95.7655 20.934 96.4735 21.114C97.1935 21.294 97.7875 21.48 98.2555 21.672C98.7235 21.864 99.1255 22.164 99.4615 22.572C99.8095 22.968 99.9895 23.496 100.002 24.156C100.002 24.732 99.8395 25.248 99.5155 25.704C99.2035 26.16 98.7475 26.52 98.1475 26.784C97.5595 27.036 96.8695 27.162 96.0775 27.162Z" fill="#F9B233"/>
<path d="M28.52 135.89H32.18V137H27.155V126.545H28.52V135.89ZM37.2146 137.135C36.4446 137.135 35.7446 136.96 35.1146 136.61C34.4946 136.26 34.0046 135.765 33.6446 135.125C33.2946 134.475 33.1196 133.725 33.1196 132.875C33.1196 132.035 33.2996 131.295 33.6596 130.655C34.0296 130.005 34.5296 129.51 35.1596 129.17C35.7896 128.82 36.4946 128.645 37.2746 128.645C38.0546 128.645 38.7596 128.82 39.3896 129.17C40.0196 129.51 40.5146 130 40.8746 130.64C41.2446 131.28 41.4296 132.025 41.4296 132.875C41.4296 133.725 41.2396 134.475 40.8596 135.125C40.4896 135.765 39.9846 136.26 39.3446 136.61C38.7046 136.96 37.9946 137.135 37.2146 137.135ZM37.2146 135.935C37.7046 135.935 38.1646 135.82 38.5946 135.59C39.0246 135.36 39.3696 135.015 39.6296 134.555C39.8996 134.095 40.0346 133.535 40.0346 132.875C40.0346 132.215 39.9046 131.655 39.6446 131.195C39.3846 130.735 39.0446 130.395 38.6246 130.175C38.2046 129.945 37.7496 129.83 37.2596 129.83C36.7596 129.83 36.2996 129.945 35.8796 130.175C35.4696 130.395 35.1396 130.735 34.8896 131.195C34.6396 131.655 34.5146 132.215 34.5146 132.875C34.5146 133.545 34.6346 134.11 34.8746 134.57C35.1246 135.03 35.4546 135.375 35.8646 135.605C36.2746 135.825 36.7246 135.935 37.2146 135.935ZM44.5893 130.115C44.8293 129.645 45.1693 129.28 45.6093 129.02C46.0593 128.76 46.6043 128.63 47.2443 128.63V130.04H46.8843C45.3543 130.04 44.5893 130.87 44.5893 132.53V137H43.2243V128.78H44.5893V130.115ZM56.32 132.575C56.32 132.835 56.305 133.11 56.275 133.4H49.705C49.755 134.21 50.03 134.845 50.53 135.305C51.04 135.755 51.655 135.98 52.375 135.98C52.965 135.98 53.455 135.845 53.845 135.575C54.245 135.295 54.525 134.925 54.685 134.465H56.155C55.935 135.255 55.495 135.9 54.835 136.4C54.175 136.89 53.355 137.135 52.375 137.135C51.595 137.135 50.895 136.96 50.275 136.61C49.665 136.26 49.185 135.765 48.835 135.125C48.485 134.475 48.31 133.725 48.31 132.875C48.31 132.025 48.48 131.28 48.82 130.64C49.16 130 49.635 129.51 50.245 129.17C50.865 128.82 51.575 128.645 52.375 128.645C53.155 128.645 53.845 128.815 54.445 129.155C55.045 129.495 55.505 129.965 55.825 130.565C56.155 131.155 56.32 131.825 56.32 132.575ZM54.91 132.29C54.91 131.77 54.795 131.325 54.565 130.955C54.335 130.575 54.02 130.29 53.62 130.1C53.23 129.9 52.795 129.8 52.315 129.8C51.625 129.8 51.035 130.02 50.545 130.46C50.065 130.9 49.79 131.51 49.72 132.29H54.91ZM68.0068 128.63C68.6468 128.63 69.2168 128.765 69.7168 129.035C70.2168 129.295 70.6118 129.69 70.9018 130.22C71.1918 130.75 71.3368 131.395 71.3368 132.155V137H69.9868V132.35C69.9868 131.53 69.7818 130.905 69.3718 130.475C68.9718 130.035 68.4268 129.815 67.7368 129.815C67.0268 129.815 66.4618 130.045 66.0418 130.505C65.6218 130.955 65.4118 131.61 65.4118 132.47V137H64.0618V132.35C64.0618 131.53 63.8568 130.905 63.4468 130.475C63.0468 130.035 62.5018 129.815 61.8118 129.815C61.1018 129.815 60.5368 130.045 60.1168 130.505C59.6968 130.955 59.4868 131.61 59.4868 132.47V137H58.1218V128.78H59.4868V129.965C59.7568 129.535 60.1168 129.205 60.5668 128.975C61.0268 128.745 61.5318 128.63 62.0818 128.63C62.7718 128.63 63.3818 128.785 63.9118 129.095C64.4418 129.405 64.8368 129.86 65.0968 130.46C65.3268 129.88 65.7068 129.43 66.2368 129.11C66.7668 128.79 67.3568 128.63 68.0068 128.63ZM78.9399 126.545V137H77.5749V126.545H78.9399ZM82.6313 130.295C82.9013 129.825 83.3013 129.435 83.8313 129.125C84.3713 128.805 84.9963 128.645 85.7063 128.645C86.4363 128.645 87.0963 128.82 87.6863 129.17C88.2863 129.52 88.7563 130.015 89.0963 130.655C89.4363 131.285 89.6063 132.02 89.6063 132.86C89.6063 133.69 89.4363 134.43 89.0963 135.08C88.7563 135.73 88.2863 136.235 87.6863 136.595C87.0963 136.955 86.4363 137.135 85.7063 137.135C85.0063 137.135 84.3863 136.98 83.8463 136.67C83.3163 136.35 82.9113 135.955 82.6313 135.485V140.9H81.2663V128.78H82.6313V130.295ZM88.2113 132.86C88.2113 132.24 88.0863 131.7 87.8363 131.24C87.5863 130.78 87.2463 130.43 86.8163 130.19C86.3963 129.95 85.9313 129.83 85.4213 129.83C84.9213 129.83 84.4563 129.955 84.0263 130.205C83.6063 130.445 83.2663 130.8 83.0063 131.27C82.7563 131.73 82.6313 132.265 82.6313 132.875C82.6313 133.495 82.7563 134.04 83.0063 134.51C83.2663 134.97 83.6063 135.325 84.0263 135.575C84.4563 135.815 84.9213 135.935 85.4213 135.935C85.9313 135.935 86.3963 135.815 86.8163 135.575C87.2463 135.325 87.5863 134.97 87.8363 134.51C88.0863 134.04 88.2113 133.49 88.2113 132.86ZM94.313 137.135C93.683 137.135 93.118 137.03 92.618 136.82C92.118 136.6 91.723 136.3 91.433 135.92C91.143 135.53 90.983 135.085 90.953 134.585H92.363C92.403 134.995 92.593 135.33 92.933 135.59C93.283 135.85 93.738 135.98 94.298 135.98C94.818 135.98 95.228 135.865 95.528 135.635C95.828 135.405 95.978 135.115 95.978 134.765C95.978 134.405 95.818 134.14 95.498 133.97C95.178 133.79 94.683 133.615 94.013 133.445C93.403 133.285 92.903 133.125 92.513 132.965C92.133 132.795 91.803 132.55 91.523 132.23C91.253 131.9 91.118 131.47 91.118 130.94C91.118 130.52 91.243 130.135 91.493 129.785C91.743 129.435 92.098 129.16 92.558 128.96C93.018 128.75 93.543 128.645 94.133 128.645C95.043 128.645 95.778 128.875 96.338 129.335C96.898 129.795 97.198 130.425 97.238 131.225H95.873C95.843 130.795 95.668 130.45 95.348 130.19C95.038 129.93 94.618 129.8 94.088 129.8C93.598 129.8 93.208 129.905 92.918 130.115C92.628 130.325 92.483 130.6 92.483 130.94C92.483 131.21 92.568 131.435 92.738 131.615C92.918 131.785 93.138 131.925 93.398 132.035C93.668 132.135 94.038 132.25 94.508 132.38C95.098 132.54 95.578 132.7 95.948 132.86C96.318 133.01 96.633 133.24 96.893 133.55C97.163 133.86 97.303 134.265 97.313 134.765C97.313 135.215 97.188 135.62 96.938 135.98C96.688 136.34 96.333 136.625 95.873 136.835C95.423 137.035 94.903 137.135 94.313 137.135ZM106.53 128.78V137H105.165V135.785C104.905 136.205 104.54 136.535 104.07 136.775C103.61 137.005 103.1 137.12 102.54 137.12C101.9 137.12 101.325 136.99 100.815 136.73C100.305 136.46 99.9 136.06 99.6 135.53C99.31 135 99.165 134.355 99.165 133.595V128.78H100.515V133.415C100.515 134.225 100.72 134.85 101.13 135.29C101.54 135.72 102.1 135.935 102.81 135.935C103.54 135.935 104.115 135.71 104.535 135.26C104.955 134.81 105.165 134.155 105.165 133.295V128.78H106.53ZM118.72 128.63C119.36 128.63 119.93 128.765 120.43 129.035C120.93 129.295 121.325 129.69 121.615 130.22C121.905 130.75 122.05 131.395 122.05 132.155V137H120.7V132.35C120.7 131.53 120.495 130.905 120.085 130.475C119.685 130.035 119.14 129.815 118.45 129.815C117.74 129.815 117.175 130.045 116.755 130.505C116.335 130.955 116.125 131.61 116.125 132.47V137H114.775V132.35C114.775 131.53 114.57 130.905 114.16 130.475C113.76 130.035 113.215 129.815 112.525 129.815C111.815 129.815 111.25 130.045 110.83 130.505C110.41 130.955 110.2 131.61 110.2 132.47V137H108.835V128.78H110.2V129.965C110.47 129.535 110.83 129.205 111.28 128.975C111.74 128.745 112.245 128.63 112.795 128.63C113.485 128.63 114.095 128.785 114.625 129.095C115.155 129.405 115.55 129.86 115.81 130.46C116.04 129.88 116.42 129.43 116.95 129.11C117.48 128.79 118.07 128.63 118.72 128.63ZM128.993 127.445C128.733 127.445 128.513 127.355 128.333 127.175C128.153 126.995 128.063 126.775 128.063 126.515C128.063 126.255 128.153 126.035 128.333 125.855C128.513 125.675 128.733 125.585 128.993 125.585C129.243 125.585 129.453 125.675 129.623 125.855C129.803 126.035 129.893 126.255 129.893 126.515C129.893 126.775 129.803 126.995 129.623 127.175C129.453 127.355 129.243 127.445 128.993 127.445ZM129.653 128.78V137H128.288V128.78H129.653ZM134.889 137.135C134.259 137.135 133.694 137.03 133.194 136.82C132.694 136.6 132.299 136.3 132.009 135.92C131.719 135.53 131.559 135.085 131.529 134.585H132.939C132.979 134.995 133.169 135.33 133.509 135.59C133.859 135.85 134.314 135.98 134.874 135.98C135.394 135.98 135.804 135.865 136.104 135.635C136.404 135.405 136.554 135.115 136.554 134.765C136.554 134.405 136.394 134.14 136.074 133.97C135.754 133.79 135.259 133.615 134.589 133.445C133.979 133.285 133.479 133.125 133.089 132.965C132.709 132.795 132.379 132.55 132.099 132.23C131.829 131.9 131.694 131.47 131.694 130.94C131.694 130.52 131.819 130.135 132.069 129.785C132.319 129.435 132.674 129.16 133.134 128.96C133.594 128.75 134.119 128.645 134.709 128.645C135.619 128.645 136.354 128.875 136.914 129.335C137.474 129.795 137.774 130.425 137.814 131.225H136.449C136.419 130.795 136.244 130.45 135.924 130.19C135.614 129.93 135.194 129.8 134.664 129.8C134.174 129.8 133.784 129.905 133.494 130.115C133.204 130.325 133.059 130.6 133.059 130.94C133.059 131.21 133.144 131.435 133.314 131.615C133.494 131.785 133.714 131.925 133.974 132.035C134.244 132.135 134.614 132.25 135.084 132.38C135.674 132.54 136.154 132.7 136.524 132.86C136.894 133.01 137.209 133.24 137.469 133.55C137.739 133.86 137.879 134.265 137.889 134.765C137.889 135.215 137.764 135.62 137.514 135.98C137.264 136.34 136.909 136.625 136.449 136.835C135.999 137.035 135.479 137.135 134.889 137.135ZM146.725 137.135C146.095 137.135 145.53 137.03 145.03 136.82C144.53 136.6 144.135 136.3 143.845 135.92C143.555 135.53 143.395 135.085 143.365 134.585H144.775C144.815 134.995 145.005 135.33 145.345 135.59C145.695 135.85 146.15 135.98 146.71 135.98C147.23 135.98 147.64 135.865 147.94 135.635C148.24 135.405 148.39 135.115 148.39 134.765C148.39 134.405 148.23 134.14 147.91 133.97C147.59 133.79 147.095 133.615 146.425 133.445C145.815 133.285 145.315 133.125 144.925 132.965C144.545 132.795 144.215 132.55 143.935 132.23C143.665 131.9 143.53 131.47 143.53 130.94C143.53 130.52 143.655 130.135 143.905 129.785C144.155 129.435 144.51 129.16 144.97 128.96C145.43 128.75 145.955 128.645 146.545 128.645C147.455 128.645 148.19 128.875 148.75 129.335C149.31 129.795 149.61 130.425 149.65 131.225H148.285C148.255 130.795 148.08 130.45 147.76 130.19C147.45 129.93 147.03 129.8 146.5 129.8C146.01 129.8 145.62 129.905 145.33 130.115C145.04 130.325 144.895 130.6 144.895 130.94C144.895 131.21 144.98 131.435 145.15 131.615C145.33 131.785 145.55 131.925 145.81 132.035C146.08 132.135 146.45 132.25 146.92 132.38C147.51 132.54 147.99 132.7 148.36 132.86C148.73 133.01 149.045 133.24 149.305 133.55C149.575 133.86 149.715 134.265 149.725 134.765C149.725 135.215 149.6 135.62 149.35 135.98C149.1 136.34 148.745 136.625 148.285 136.835C147.835 137.035 147.315 137.135 146.725 137.135ZM152.357 127.445C152.097 127.445 151.877 127.355 151.697 127.175C151.517 126.995 151.427 126.775 151.427 126.515C151.427 126.255 151.517 126.035 151.697 125.855C151.877 125.675 152.097 125.585 152.357 125.585C152.607 125.585 152.817 125.675 152.987 125.855C153.167 126.035 153.257 126.255 153.257 126.515C153.257 126.775 153.167 126.995 152.987 127.175C152.817 127.355 152.607 127.445 152.357 127.445ZM153.017 128.78V137H151.652V128.78H153.017ZM165.228 128.63C165.868 128.63 166.438 128.765 166.938 129.035C167.438 129.295 167.833 129.69 168.123 130.22C168.413 130.75 168.558 131.395 168.558 132.155V137H167.208V132.35C167.208 131.53 167.003 130.905 166.593 130.475C166.193 130.035 165.648 129.815 164.958 129.815C164.248 129.815 163.683 130.045 163.263 130.505C162.843 130.955 162.633 131.61 162.633 132.47V137H161.283V132.35C161.283 131.53 161.078 130.905 160.668 130.475C160.268 130.035 159.723 129.815 159.033 129.815C158.323 129.815 157.758 130.045 157.338 130.505C156.918 130.955 156.708 131.61 156.708 132.47V137H155.343V128.78H156.708V129.965C156.978 129.535 157.338 129.205 157.788 128.975C158.248 128.745 158.753 128.63 159.303 128.63C159.993 128.63 160.603 128.785 161.133 129.095C161.663 129.405 162.058 129.86 162.318 130.46C162.548 129.88 162.928 129.43 163.458 129.11C163.988 128.79 164.578 128.63 165.228 128.63ZM172.163 130.295C172.433 129.825 172.833 129.435 173.363 129.125C173.903 128.805 174.528 128.645 175.238 128.645C175.968 128.645 176.628 128.82 177.218 129.17C177.818 129.52 178.288 130.015 178.628 130.655C178.968 131.285 179.138 132.02 179.138 132.86C179.138 133.69 178.968 134.43 178.628 135.08C178.288 135.73 177.818 136.235 177.218 136.595C176.628 136.955 175.968 137.135 175.238 137.135C174.538 137.135 173.918 136.98 173.378 136.67C172.848 136.35 172.443 135.955 172.163 135.485V140.9H170.798V128.78H172.163V130.295ZM177.743 132.86C177.743 132.24 177.618 131.7 177.368 131.24C177.118 130.78 176.778 130.43 176.348 130.19C175.928 129.95 175.463 129.83 174.953 129.83C174.453 129.83 173.988 129.955 173.558 130.205C173.138 130.445 172.798 130.8 172.538 131.27C172.288 131.73 172.163 132.265 172.163 132.875C172.163 133.495 172.288 134.04 172.538 134.51C172.798 134.97 173.138 135.325 173.558 135.575C173.988 135.815 174.453 135.935 174.953 135.935C175.463 135.935 175.928 135.815 176.348 135.575C176.778 135.325 177.118 134.97 177.368 134.51C177.618 134.04 177.743 133.49 177.743 132.86ZM182.299 125.9V137H180.934V125.9H182.299ZM191.706 128.78L186.756 140.87H185.346L186.966 136.91L183.651 128.78H185.166L187.746 135.44L190.296 128.78H191.706ZM196.567 132.86C196.567 132.02 196.737 131.285 197.077 130.655C197.417 130.015 197.882 129.52 198.472 129.17C199.072 128.82 199.742 128.645 200.482 128.645C201.122 128.645 201.717 128.795 202.267 129.095C202.817 129.385 203.237 129.77 203.527 130.25V125.9H204.907V137H203.527V135.455C203.257 135.945 202.857 136.35 202.327 136.67C201.797 136.98 201.177 137.135 200.467 137.135C199.737 137.135 199.072 136.955 198.472 136.595C197.882 136.235 197.417 135.73 197.077 135.08C196.737 134.43 196.567 133.69 196.567 132.86ZM203.527 132.875C203.527 132.255 203.402 131.715 203.152 131.255C202.902 130.795 202.562 130.445 202.132 130.205C201.712 129.955 201.247 129.83 200.737 129.83C200.227 129.83 199.762 129.95 199.342 130.19C198.922 130.43 198.587 130.78 198.337 131.24C198.087 131.7 197.962 132.24 197.962 132.86C197.962 133.49 198.087 134.04 198.337 134.51C198.587 134.97 198.922 135.325 199.342 135.575C199.762 135.815 200.227 135.935 200.737 135.935C201.247 135.935 201.712 135.815 202.132 135.575C202.562 135.325 202.902 134.97 203.152 134.51C203.402 134.04 203.527 133.495 203.527 132.875ZM214.504 128.78V137H213.139V135.785C212.879 136.205 212.514 136.535 212.044 136.775C211.584 137.005 211.074 137.12 210.514 137.12C209.874 137.12 209.299 136.99 208.789 136.73C208.279 136.46 207.874 136.06 207.574 135.53C207.284 135 207.139 134.355 207.139 133.595V128.78H208.489V133.415C208.489 134.225 208.694 134.85 209.104 135.29C209.514 135.72 210.074 135.935 210.784 135.935C211.514 135.935 212.089 135.71 212.509 135.26C212.929 134.81 213.139 134.155 213.139 133.295V128.78H214.504ZM226.693 128.63C227.333 128.63 227.903 128.765 228.403 129.035C228.903 129.295 229.298 129.69 229.588 130.22C229.878 130.75 230.023 131.395 230.023 132.155V137H228.673V132.35C228.673 131.53 228.468 130.905 228.058 130.475C227.658 130.035 227.113 129.815 226.423 129.815C225.713 129.815 225.148 130.045 224.728 130.505C224.308 130.955 224.098 131.61 224.098 132.47V137H222.748V132.35C222.748 131.53 222.543 130.905 222.133 130.475C221.733 130.035 221.188 129.815 220.498 129.815C219.788 129.815 219.223 130.045 218.803 130.505C218.383 130.955 218.173 131.61 218.173 132.47V137H216.808V128.78H218.173V129.965C218.443 129.535 218.803 129.205 219.253 128.975C219.713 128.745 220.218 128.63 220.768 128.63C221.458 128.63 222.068 128.785 222.598 129.095C223.128 129.405 223.523 129.86 223.783 130.46C224.013 129.88 224.393 129.43 224.923 129.11C225.453 128.79 226.043 128.63 226.693 128.63ZM242.147 128.63C242.787 128.63 243.357 128.765 243.857 129.035C244.357 129.295 244.752 129.69 245.042 130.22C245.332 130.75 245.477 131.395 245.477 132.155V137H244.127V132.35C244.127 131.53 243.922 130.905 243.512 130.475C243.112 130.035 242.567 129.815 241.877 129.815C241.167 129.815 240.602 130.045 240.182 130.505C239.762 130.955 239.552 131.61 239.552 132.47V137H238.202V132.35C238.202 131.53 237.997 130.905 237.587 130.475C237.187 130.035 236.642 129.815 235.952 129.815C235.242 129.815 234.677 130.045 234.257 130.505C233.837 130.955 233.627 131.61 233.627 132.47V137H232.262V128.78H233.627V129.965C233.897 129.535 234.257 129.205 234.707 128.975C235.167 128.745 235.672 128.63 236.222 128.63C236.912 128.63 237.522 128.785 238.052 129.095C238.582 129.405 238.977 129.86 239.237 130.46C239.467 129.88 239.847 129.43 240.377 129.11C240.907 128.79 241.497 128.63 242.147 128.63ZM254.797 128.78L249.847 140.87H248.437L250.057 136.91L246.742 128.78H248.257L250.837 135.44L253.387 128.78H254.797ZM28.82 154.905V159.75C28.82 160.15 28.905 160.435 29.075 160.605C29.245 160.765 29.54 160.845 29.96 160.845H30.965V162H29.735C28.975 162 28.405 161.825 28.025 161.475C27.645 161.125 27.455 160.55 27.455 159.75V154.905H26.39V153.78H27.455V151.71H28.82V153.78H30.965V154.905H28.82ZM40.1189 157.575C40.1189 157.835 40.1039 158.11 40.0739 158.4H33.5039C33.5539 159.21 33.8289 159.845 34.3289 160.305C34.8389 160.755 35.4539 160.98 36.1739 160.98C36.7639 160.98 37.2539 160.845 37.6439 160.575C38.0439 160.295 38.3239 159.925 38.4839 159.465H39.9539C39.7339 160.255 39.2939 160.9 38.6339 161.4C37.9739 161.89 37.1539 162.135 36.1739 162.135C35.3939 162.135 34.6939 161.96 34.0739 161.61C33.4639 161.26 32.9839 160.765 32.6339 160.125C32.2839 159.475 32.1089 158.725 32.1089 157.875C32.1089 157.025 32.2789 156.28 32.6189 155.64C32.9589 155 33.4339 154.51 34.0439 154.17C34.6639 153.82 35.3739 153.645 36.1739 153.645C36.9539 153.645 37.6439 153.815 38.2439 154.155C38.8439 154.495 39.3039 154.965 39.6239 155.565C39.9539 156.155 40.1189 156.825 40.1189 157.575ZM38.7089 157.29C38.7089 156.77 38.5939 156.325 38.3639 155.955C38.1339 155.575 37.8189 155.29 37.4189 155.1C37.0289 154.9 36.5939 154.8 36.1139 154.8C35.4239 154.8 34.8339 155.02 34.3439 155.46C33.8639 155.9 33.5889 156.51 33.5189 157.29H38.7089ZM46.2106 162L44.2606 158.94L42.3856 162H40.9606L43.6156 157.92L40.9606 153.78H42.5056L44.4556 156.825L46.3156 153.78H47.7406L45.1006 157.845L47.7556 162H46.2106ZM50.7634 154.905V159.75C50.7634 160.15 50.8484 160.435 51.0184 160.605C51.1884 160.765 51.4834 160.845 51.9034 160.845H52.9084V162H51.6784C50.9184 162 50.3484 161.825 49.9684 161.475C49.5884 161.125 49.3984 160.55 49.3984 159.75V154.905H48.3334V153.78H49.3984V151.71H50.7634V153.78H52.9084V154.905H50.7634ZM62.1463 162.135C61.3763 162.135 60.6763 161.96 60.0463 161.61C59.4263 161.26 58.9363 160.765 58.5763 160.125C58.2263 159.475 58.0513 158.725 58.0513 157.875C58.0513 157.035 58.2313 156.295 58.5913 155.655C58.9613 155.005 59.4613 154.51 60.0913 154.17C60.7213 153.82 61.4263 153.645 62.2063 153.645C62.9863 153.645 63.6913 153.82 64.3213 154.17C64.9513 154.51 65.4463 155 65.8063 155.64C66.1763 156.28 66.3613 157.025 66.3613 157.875C66.3613 158.725 66.1713 159.475 65.7913 160.125C65.4213 160.765 64.9163 161.26 64.2763 161.61C63.6363 161.96 62.9263 162.135 62.1463 162.135ZM62.1463 160.935C62.6363 160.935 63.0963 160.82 63.5263 160.59C63.9563 160.36 64.3013 160.015 64.5613 159.555C64.8313 159.095 64.9663 158.535 64.9663 157.875C64.9663 157.215 64.8363 156.655 64.5763 156.195C64.3163 155.735 63.9763 155.395 63.5563 155.175C63.1363 154.945 62.6813 154.83 62.1913 154.83C61.6913 154.83 61.2313 154.945 60.8113 155.175C60.4013 155.395 60.0713 155.735 59.8213 156.195C59.5713 156.655 59.4463 157.215 59.4463 157.875C59.4463 158.545 59.5663 159.11 59.8063 159.57C60.0563 160.03 60.3863 160.375 60.7963 160.605C61.2063 160.825 61.6563 160.935 62.1463 160.935ZM71.501 154.905H69.776V162H68.411V154.905H67.346V153.78H68.411V153.195C68.411 152.275 68.646 151.605 69.116 151.185C69.596 150.755 70.361 150.54 71.411 150.54V151.68C70.811 151.68 70.386 151.8 70.136 152.04C69.896 152.27 69.776 152.655 69.776 153.195V153.78H71.501V154.905ZM78.7565 154.905V159.75C78.7565 160.15 78.8415 160.435 79.0115 160.605C79.1815 160.765 79.4765 160.845 79.8965 160.845H80.9015V162H79.6715C78.9115 162 78.3415 161.825 77.9615 161.475C77.5815 161.125 77.3915 160.55 77.3915 159.75V154.905H76.3265V153.78H77.3915V151.71H78.7565V153.78H80.9015V154.905H78.7565ZM86.6354 153.63C87.2554 153.63 87.8154 153.765 88.3154 154.035C88.8154 154.295 89.2054 154.69 89.4854 155.22C89.7754 155.75 89.9204 156.395 89.9204 157.155V162H88.5704V157.35C88.5704 156.53 88.3654 155.905 87.9554 155.475C87.5454 155.035 86.9854 154.815 86.2754 154.815C85.5554 154.815 84.9804 155.04 84.5504 155.49C84.1304 155.94 83.9204 156.595 83.9204 157.455V162H82.5554V150.9H83.9204V154.95C84.1904 154.53 84.5604 154.205 85.0304 153.975C85.5104 153.745 86.0454 153.63 86.6354 153.63ZM99.6501 157.575C99.6501 157.835 99.6351 158.11 99.6051 158.4H93.0351C93.0851 159.21 93.3601 159.845 93.8601 160.305C94.3701 160.755 94.9851 160.98 95.7051 160.98C96.2951 160.98 96.7851 160.845 97.1751 160.575C97.5751 160.295 97.8551 159.925 98.0151 159.465H99.4851C99.2651 160.255 98.8251 160.9 98.1651 161.4C97.5051 161.89 96.6851 162.135 95.7051 162.135C94.9251 162.135 94.2251 161.96 93.6051 161.61C92.9951 161.26 92.5151 160.765 92.1651 160.125C91.8151 159.475 91.6401 158.725 91.6401 157.875C91.6401 157.025 91.8101 156.28 92.1501 155.64C92.4901 155 92.9651 154.51 93.5751 154.17C94.1951 153.82 94.9051 153.645 95.7051 153.645C96.4851 153.645 97.1751 153.815 97.7751 154.155C98.3751 154.495 98.8351 154.965 99.1551 155.565C99.4851 156.155 99.6501 156.825 99.6501 157.575ZM98.2401 157.29C98.2401 156.77 98.1251 156.325 97.8951 155.955C97.6651 155.575 97.3501 155.29 96.9501 155.1C96.5601 154.9 96.1251 154.8 95.6451 154.8C94.9551 154.8 94.3651 155.02 93.8751 155.46C93.3951 155.9 93.1201 156.51 93.0501 157.29H98.2401ZM106.816 155.295C107.086 154.825 107.486 154.435 108.016 154.125C108.556 153.805 109.181 153.645 109.891 153.645C110.621 153.645 111.281 153.82 111.871 154.17C112.471 154.52 112.941 155.015 113.281 155.655C113.621 156.285 113.791 157.02 113.791 157.86C113.791 158.69 113.621 159.43 113.281 160.08C112.941 160.73 112.471 161.235 111.871 161.595C111.281 161.955 110.621 162.135 109.891 162.135C109.191 162.135 108.571 161.98 108.031 161.67C107.501 161.35 107.096 160.955 106.816 160.485V165.9H105.451V153.78H106.816V155.295ZM112.396 157.86C112.396 157.24 112.271 156.7 112.021 156.24C111.771 155.78 111.431 155.43 111.001 155.19C110.581 154.95 110.116 154.83 109.606 154.83C109.106 154.83 108.641 154.955 108.211 155.205C107.791 155.445 107.451 155.8 107.191 156.27C106.941 156.73 106.816 157.265 106.816 157.875C106.816 158.495 106.941 159.04 107.191 159.51C107.451 159.97 107.791 160.325 108.211 160.575C108.641 160.815 109.106 160.935 109.606 160.935C110.116 160.935 110.581 160.815 111.001 160.575C111.431 160.325 111.771 159.97 112.021 159.51C112.271 159.04 112.396 158.49 112.396 157.86ZM116.953 155.115C117.193 154.645 117.533 154.28 117.973 154.02C118.423 153.76 118.968 153.63 119.608 153.63V155.04H119.248C117.718 155.04 116.953 155.87 116.953 157.53V162H115.588V153.78H116.953V155.115ZM121.888 152.445C121.628 152.445 121.408 152.355 121.228 152.175C121.048 151.995 120.958 151.775 120.958 151.515C120.958 151.255 121.048 151.035 121.228 150.855C121.408 150.675 121.628 150.585 121.888 150.585C122.138 150.585 122.348 150.675 122.518 150.855C122.698 151.035 122.788 151.255 122.788 151.515C122.788 151.775 122.698 151.995 122.518 152.175C122.348 152.355 122.138 152.445 121.888 152.445ZM122.548 153.78V162H121.183V153.78H122.548ZM128.88 153.63C129.88 153.63 130.69 153.935 131.31 154.545C131.93 155.145 132.24 156.015 132.24 157.155V162H130.89V157.35C130.89 156.53 130.685 155.905 130.275 155.475C129.865 155.035 129.305 154.815 128.595 154.815C127.875 154.815 127.3 155.04 126.87 155.49C126.45 155.94 126.24 156.595 126.24 157.455V162H124.875V153.78H126.24V154.95C126.51 154.53 126.875 154.205 127.335 153.975C127.805 153.745 128.32 153.63 128.88 153.63ZM136.134 154.905V159.75C136.134 160.15 136.219 160.435 136.389 160.605C136.559 160.765 136.854 160.845 137.274 160.845H138.279V162H137.049C136.289 162 135.719 161.825 135.339 161.475C134.959 161.125 134.769 160.55 134.769 159.75V154.905H133.704V153.78H134.769V151.71H136.134V153.78H138.279V154.905H136.134ZM140.638 152.445C140.378 152.445 140.158 152.355 139.978 152.175C139.798 151.995 139.708 151.775 139.708 151.515C139.708 151.255 139.798 151.035 139.978 150.855C140.158 150.675 140.378 150.585 140.638 150.585C140.888 150.585 141.098 150.675 141.268 150.855C141.448 151.035 141.538 151.255 141.538 151.515C141.538 151.775 141.448 151.995 141.268 152.175C141.098 152.355 140.888 152.445 140.638 152.445ZM141.298 153.78V162H139.933V153.78H141.298ZM147.63 153.63C148.63 153.63 149.44 153.935 150.06 154.545C150.68 155.145 150.99 156.015 150.99 157.155V162H149.64V157.35C149.64 156.53 149.435 155.905 149.025 155.475C148.615 155.035 148.055 154.815 147.345 154.815C146.625 154.815 146.05 155.04 145.62 155.49C145.2 155.94 144.99 156.595 144.99 157.455V162H143.625V153.78H144.99V154.95C145.26 154.53 145.625 154.205 146.085 153.975C146.555 153.745 147.07 153.63 147.63 153.63ZM156.609 153.645C157.319 153.645 157.939 153.8 158.469 154.11C159.009 154.42 159.409 154.81 159.669 155.28V153.78H161.049V162.18C161.049 162.93 160.889 163.595 160.569 164.175C160.249 164.765 159.789 165.225 159.189 165.555C158.599 165.885 157.909 166.05 157.119 166.05C156.039 166.05 155.139 165.795 154.419 165.285C153.699 164.775 153.274 164.08 153.144 163.2H154.494C154.644 163.7 154.954 164.1 155.424 164.4C155.894 164.71 156.459 164.865 157.119 164.865C157.869 164.865 158.479 164.63 158.949 164.16C159.429 163.69 159.669 163.03 159.669 162.18V160.455C159.399 160.935 158.999 161.335 158.469 161.655C157.939 161.975 157.319 162.135 156.609 162.135C155.879 162.135 155.214 161.955 154.614 161.595C154.024 161.235 153.559 160.73 153.219 160.08C152.879 159.43 152.709 158.69 152.709 157.86C152.709 157.02 152.879 156.285 153.219 155.655C153.559 155.015 154.024 154.52 154.614 154.17C155.214 153.82 155.879 153.645 156.609 153.645ZM159.669 157.875C159.669 157.255 159.544 156.715 159.294 156.255C159.044 155.795 158.704 155.445 158.274 155.205C157.854 154.955 157.389 154.83 156.879 154.83C156.369 154.83 155.904 154.95 155.484 155.19C155.064 155.43 154.729 155.78 154.479 156.24C154.229 156.7 154.104 157.24 154.104 157.86C154.104 158.49 154.229 159.04 154.479 159.51C154.729 159.97 155.064 160.325 155.484 160.575C155.904 160.815 156.369 160.935 156.879 160.935C157.389 160.935 157.854 160.815 158.274 160.575C158.704 160.325 159.044 159.97 159.294 159.51C159.544 159.04 159.669 158.495 159.669 157.875ZM166.845 157.86C166.845 157.02 167.015 156.285 167.355 155.655C167.695 155.015 168.16 154.52 168.75 154.17C169.35 153.82 170.015 153.645 170.745 153.645C171.465 153.645 172.09 153.8 172.62 154.11C173.15 154.42 173.545 154.81 173.805 155.28V153.78H175.185V162H173.805V160.47C173.535 160.95 173.13 161.35 172.59 161.67C172.06 161.98 171.44 162.135 170.73 162.135C170 162.135 169.34 161.955 168.75 161.595C168.16 161.235 167.695 160.73 167.355 160.08C167.015 159.43 166.845 158.69 166.845 157.86ZM173.805 157.875C173.805 157.255 173.68 156.715 173.43 156.255C173.18 155.795 172.84 155.445 172.41 155.205C171.99 154.955 171.525 154.83 171.015 154.83C170.505 154.83 170.04 154.95 169.62 155.19C169.2 155.43 168.865 155.78 168.615 156.24C168.365 156.7 168.24 157.24 168.24 157.86C168.24 158.49 168.365 159.04 168.615 159.51C168.865 159.97 169.2 160.325 169.62 160.575C170.04 160.815 170.505 160.935 171.015 160.935C171.525 160.935 171.99 160.815 172.41 160.575C172.84 160.325 173.18 159.97 173.43 159.51C173.68 159.04 173.805 158.495 173.805 157.875ZM181.497 153.63C182.497 153.63 183.307 153.935 183.927 154.545C184.547 155.145 184.857 156.015 184.857 157.155V162H183.507V157.35C183.507 156.53 183.302 155.905 182.892 155.475C182.482 155.035 181.922 154.815 181.212 154.815C180.492 154.815 179.917 155.04 179.487 155.49C179.067 155.94 178.857 156.595 178.857 157.455V162H177.492V153.78H178.857V154.95C179.127 154.53 179.492 154.205 179.952 153.975C180.422 153.745 180.937 153.63 181.497 153.63ZM186.577 157.86C186.577 157.02 186.747 156.285 187.087 155.655C187.427 155.015 187.892 154.52 188.482 154.17C189.082 153.82 189.752 153.645 190.492 153.645C191.132 153.645 191.727 153.795 192.277 154.095C192.827 154.385 193.247 154.77 193.537 155.25V150.9H194.917V162H193.537V160.455C193.267 160.945 192.867 161.35 192.337 161.67C191.807 161.98 191.187 162.135 190.477 162.135C189.747 162.135 189.082 161.955 188.482 161.595C187.892 161.235 187.427 160.73 187.087 160.08C186.747 159.43 186.577 158.69 186.577 157.86ZM193.537 157.875C193.537 157.255 193.412 156.715 193.162 156.255C192.912 155.795 192.572 155.445 192.142 155.205C191.722 154.955 191.257 154.83 190.747 154.83C190.237 154.83 189.772 154.95 189.352 155.19C188.932 155.43 188.597 155.78 188.347 156.24C188.097 156.7 187.972 157.24 187.972 157.86C187.972 158.49 188.097 159.04 188.347 159.51C188.597 159.97 188.932 160.325 189.352 160.575C189.772 160.815 190.237 160.935 190.747 160.935C191.257 160.935 191.722 160.815 192.142 160.575C192.572 160.325 192.912 159.97 193.162 159.51C193.412 159.04 193.537 158.495 193.537 157.875ZM28.82 179.905V184.75C28.82 185.15 28.905 185.435 29.075 185.605C29.245 185.765 29.54 185.845 29.96 185.845H30.965V187H29.735C28.975 187 28.405 186.825 28.025 186.475C27.645 186.125 27.455 185.55 27.455 184.75V179.905H26.39V178.78H27.455V176.71H28.82V178.78H30.965V179.905H28.82ZM39.6989 178.78L34.7489 190.87H33.3389L34.9589 186.91L31.6439 178.78H33.1589L35.7389 185.44L38.2889 178.78H39.6989ZM42.436 180.295C42.706 179.825 43.106 179.435 43.636 179.125C44.176 178.805 44.801 178.645 45.511 178.645C46.241 178.645 46.901 178.82 47.491 179.17C48.091 179.52 48.561 180.015 48.901 180.655C49.241 181.285 49.411 182.02 49.411 182.86C49.411 183.69 49.241 184.43 48.901 185.08C48.561 185.73 48.091 186.235 47.491 186.595C46.901 186.955 46.241 187.135 45.511 187.135C44.811 187.135 44.191 186.98 43.651 186.67C43.121 186.35 42.716 185.955 42.436 185.485V190.9H41.071V178.78H42.436V180.295ZM48.016 182.86C48.016 182.24 47.891 181.7 47.641 181.24C47.391 180.78 47.051 180.43 46.621 180.19C46.201 179.95 45.736 179.83 45.226 179.83C44.726 179.83 44.261 179.955 43.831 180.205C43.411 180.445 43.071 180.8 42.811 181.27C42.561 181.73 42.436 182.265 42.436 182.875C42.436 183.495 42.561 184.04 42.811 184.51C43.071 184.97 43.411 185.325 43.831 185.575C44.261 185.815 44.726 185.935 45.226 185.935C45.736 185.935 46.201 185.815 46.621 185.575C47.051 185.325 47.391 184.97 47.641 184.51C47.891 184.04 48.016 183.49 48.016 182.86ZM58.7077 182.575C58.7077 182.835 58.6927 183.11 58.6627 183.4H52.0927C52.1427 184.21 52.4177 184.845 52.9177 185.305C53.4277 185.755 54.0427 185.98 54.7627 185.98C55.3527 185.98 55.8427 185.845 56.2327 185.575C56.6327 185.295 56.9127 184.925 57.0727 184.465H58.5427C58.3227 185.255 57.8827 185.9 57.2227 186.4C56.5627 186.89 55.7427 187.135 54.7627 187.135C53.9827 187.135 53.2827 186.96 52.6627 186.61C52.0527 186.26 51.5727 185.765 51.2227 185.125C50.8727 184.475 50.6977 183.725 50.6977 182.875C50.6977 182.025 50.8677 181.28 51.2077 180.64C51.5477 180 52.0227 179.51 52.6327 179.17C53.2527 178.82 53.9627 178.645 54.7627 178.645C55.5427 178.645 56.2327 178.815 56.8327 179.155C57.4327 179.495 57.8927 179.965 58.2127 180.565C58.5427 181.155 58.7077 181.825 58.7077 182.575ZM57.2977 182.29C57.2977 181.77 57.1827 181.325 56.9527 180.955C56.7227 180.575 56.4077 180.29 56.0077 180.1C55.6177 179.9 55.1827 179.8 54.7027 179.8C54.0127 179.8 53.4227 180.02 52.9327 180.46C52.4527 180.9 52.1777 181.51 52.1077 182.29H57.2977ZM63.4195 187.135C62.7895 187.135 62.2245 187.03 61.7245 186.82C61.2245 186.6 60.8295 186.3 60.5395 185.92C60.2495 185.53 60.0895 185.085 60.0595 184.585H61.4695C61.5095 184.995 61.6995 185.33 62.0395 185.59C62.3895 185.85 62.8445 185.98 63.4045 185.98C63.9245 185.98 64.3345 185.865 64.6345 185.635C64.9345 185.405 65.0845 185.115 65.0845 184.765C65.0845 184.405 64.9245 184.14 64.6045 183.97C64.2845 183.79 63.7895 183.615 63.1195 183.445C62.5095 183.285 62.0095 183.125 61.6195 182.965C61.2395 182.795 60.9095 182.55 60.6295 182.23C60.3595 181.9 60.2245 181.47 60.2245 180.94C60.2245 180.52 60.3495 180.135 60.5995 179.785C60.8495 179.435 61.2045 179.16 61.6645 178.96C62.1245 178.75 62.6495 178.645 63.2395 178.645C64.1495 178.645 64.8845 178.875 65.4445 179.335C66.0045 179.795 66.3045 180.425 66.3445 181.225H64.9795C64.9495 180.795 64.7745 180.45 64.4545 180.19C64.1445 179.93 63.7245 179.8 63.1945 179.8C62.7045 179.8 62.3145 179.905 62.0245 180.115C61.7345 180.325 61.5895 180.6 61.5895 180.94C61.5895 181.21 61.6745 181.435 61.8445 181.615C62.0245 181.785 62.2445 181.925 62.5045 182.035C62.7745 182.135 63.1445 182.25 63.6145 182.38C64.2045 182.54 64.6845 182.7 65.0545 182.86C65.4245 183.01 65.7395 183.24 65.9995 183.55C66.2695 183.86 66.4095 184.265 66.4195 184.765C66.4195 185.215 66.2945 185.62 66.0445 185.98C65.7945 186.34 65.4395 186.625 64.9795 186.835C64.5295 187.035 64.0095 187.135 63.4195 187.135ZM75.8464 182.575C75.8464 182.835 75.8314 183.11 75.8014 183.4H69.2314C69.2814 184.21 69.5564 184.845 70.0564 185.305C70.5664 185.755 71.1814 185.98 71.9014 185.98C72.4914 185.98 72.9814 185.845 73.3714 185.575C73.7714 185.295 74.0514 184.925 74.2114 184.465H75.6814C75.4614 185.255 75.0214 185.9 74.3614 186.4C73.7014 186.89 72.8814 187.135 71.9014 187.135C71.1214 187.135 70.4214 186.96 69.8014 186.61C69.1914 186.26 68.7114 185.765 68.3614 185.125C68.0114 184.475 67.8364 183.725 67.8364 182.875C67.8364 182.025 68.0064 181.28 68.3464 180.64C68.6864 180 69.1614 179.51 69.7714 179.17C70.3914 178.82 71.1014 178.645 71.9014 178.645C72.6814 178.645 73.3714 178.815 73.9714 179.155C74.5714 179.495 75.0314 179.965 75.3514 180.565C75.6814 181.155 75.8464 181.825 75.8464 182.575ZM74.4364 182.29C74.4364 181.77 74.3214 181.325 74.0914 180.955C73.8614 180.575 73.5464 180.29 73.1464 180.1C72.7564 179.9 72.3214 179.8 71.8414 179.8C71.1514 179.8 70.5614 180.02 70.0714 180.46C69.5914 180.9 69.3164 181.51 69.2464 182.29H74.4364ZM79.3132 179.905V184.75C79.3132 185.15 79.3982 185.435 79.5682 185.605C79.7382 185.765 80.0332 185.845 80.4532 185.845H81.4582V187H80.2282C79.4682 187 78.8982 186.825 78.5182 186.475C78.1382 186.125 77.9482 185.55 77.9482 184.75V179.905H76.8832V178.78H77.9482V176.71H79.3132V178.78H81.4582V179.905H79.3132ZM84.777 179.905V184.75C84.777 185.15 84.862 185.435 85.032 185.605C85.202 185.765 85.497 185.845 85.917 185.845H86.922V187H85.692C84.932 187 84.362 186.825 83.982 186.475C83.602 186.125 83.412 185.55 83.412 184.75V179.905H82.347V178.78H83.412V176.71H84.777V178.78H86.922V179.905H84.777ZM89.2809 177.445C89.0209 177.445 88.8009 177.355 88.6209 177.175C88.4409 176.995 88.3509 176.775 88.3509 176.515C88.3509 176.255 88.4409 176.035 88.6209 175.855C88.8009 175.675 89.0209 175.585 89.2809 175.585C89.5309 175.585 89.7409 175.675 89.9109 175.855C90.0909 176.035 90.1809 176.255 90.1809 176.515C90.1809 176.775 90.0909 176.995 89.9109 177.175C89.7409 177.355 89.5309 177.445 89.2809 177.445ZM89.9409 178.78V187H88.5759V178.78H89.9409ZM96.2723 178.63C97.2723 178.63 98.0823 178.935 98.7023 179.545C99.3223 180.145 99.6323 181.015 99.6323 182.155V187H98.2823V182.35C98.2823 181.53 98.0773 180.905 97.6673 180.475C97.2573 180.035 96.6973 179.815 95.9873 179.815C95.2673 179.815 94.6923 180.04 94.2623 180.49C93.8423 180.94 93.6323 181.595 93.6323 182.455V187H92.2673V178.78H93.6323V179.95C93.9023 179.53 94.2673 179.205 94.7273 178.975C95.1973 178.745 95.7123 178.63 96.2723 178.63ZM105.252 178.645C105.962 178.645 106.582 178.8 107.112 179.11C107.652 179.42 108.052 179.81 108.312 180.28V178.78H109.692V187.18C109.692 187.93 109.532 188.595 109.212 189.175C108.892 189.765 108.432 190.225 107.832 190.555C107.242 190.885 106.552 191.05 105.762 191.05C104.682 191.05 103.782 190.795 103.062 190.285C102.342 189.775 101.917 189.08 101.787 188.2H103.137C103.287 188.7 103.597 189.1 104.067 189.4C104.537 189.71 105.102 189.865 105.762 189.865C106.512 189.865 107.122 189.63 107.592 189.16C108.072 188.69 108.312 188.03 108.312 187.18V185.455C108.042 185.935 107.642 186.335 107.112 186.655C106.582 186.975 105.962 187.135 105.252 187.135C104.522 187.135 103.857 186.955 103.257 186.595C102.667 186.235 102.202 185.73 101.862 185.08C101.522 184.43 101.352 183.69 101.352 182.86C101.352 182.02 101.522 181.285 101.862 180.655C102.202 180.015 102.667 179.52 103.257 179.17C103.857 178.82 104.522 178.645 105.252 178.645ZM108.312 182.875C108.312 182.255 108.187 181.715 107.937 181.255C107.687 180.795 107.347 180.445 106.917 180.205C106.497 179.955 106.032 179.83 105.522 179.83C105.012 179.83 104.547 179.95 104.127 180.19C103.707 180.43 103.372 180.78 103.122 181.24C102.872 181.7 102.747 182.24 102.747 182.86C102.747 183.49 102.872 184.04 103.122 184.51C103.372 184.97 103.707 185.325 104.127 185.575C104.547 185.815 105.012 185.935 105.522 185.935C106.032 185.935 106.497 185.815 106.917 185.575C107.347 185.325 107.687 184.97 107.937 184.51C108.187 184.04 108.312 183.495 108.312 182.875ZM116.703 177.445C116.443 177.445 116.223 177.355 116.043 177.175C115.863 176.995 115.773 176.775 115.773 176.515C115.773 176.255 115.863 176.035 116.043 175.855C116.223 175.675 116.443 175.585 116.703 175.585C116.953 175.585 117.163 175.675 117.333 175.855C117.513 176.035 117.603 176.255 117.603 176.515C117.603 176.775 117.513 176.995 117.333 177.175C117.163 177.355 116.953 177.445 116.703 177.445ZM117.363 178.78V187H115.998V178.78H117.363ZM123.694 178.63C124.694 178.63 125.504 178.935 126.124 179.545C126.744 180.145 127.054 181.015 127.054 182.155V187H125.704V182.35C125.704 181.53 125.499 180.905 125.089 180.475C124.679 180.035 124.119 179.815 123.409 179.815C122.689 179.815 122.114 180.04 121.684 180.49C121.264 180.94 121.054 181.595 121.054 182.455V187H119.689V178.78H121.054V179.95C121.324 179.53 121.689 179.205 122.149 178.975C122.619 178.745 123.134 178.63 123.694 178.63ZM128.774 182.86C128.774 182.02 128.944 181.285 129.284 180.655C129.624 180.015 130.089 179.52 130.679 179.17C131.279 178.82 131.949 178.645 132.689 178.645C133.329 178.645 133.924 178.795 134.474 179.095C135.024 179.385 135.444 179.77 135.734 180.25V175.9H137.114V187H135.734V185.455C135.464 185.945 135.064 186.35 134.534 186.67C134.004 186.98 133.384 187.135 132.674 187.135C131.944 187.135 131.279 186.955 130.679 186.595C130.089 186.235 129.624 185.73 129.284 185.08C128.944 184.43 128.774 183.69 128.774 182.86ZM135.734 182.875C135.734 182.255 135.609 181.715 135.359 181.255C135.109 180.795 134.769 180.445 134.339 180.205C133.919 179.955 133.454 179.83 132.944 179.83C132.434 179.83 131.969 179.95 131.549 180.19C131.129 180.43 130.794 180.78 130.544 181.24C130.294 181.7 130.169 182.24 130.169 182.86C130.169 183.49 130.294 184.04 130.544 184.51C130.794 184.97 131.129 185.325 131.549 185.575C131.969 185.815 132.434 185.935 132.944 185.935C133.454 185.935 133.919 185.815 134.339 185.575C134.769 185.325 135.109 184.97 135.359 184.51C135.609 184.04 135.734 183.495 135.734 182.875ZM146.711 178.78V187H145.346V185.785C145.086 186.205 144.721 186.535 144.251 186.775C143.791 187.005 143.281 187.12 142.721 187.12C142.081 187.12 141.506 186.99 140.996 186.73C140.486 186.46 140.081 186.06 139.781 185.53C139.491 185 139.346 184.355 139.346 183.595V178.78H140.696V183.415C140.696 184.225 140.901 184.85 141.311 185.29C141.721 185.72 142.281 185.935 142.991 185.935C143.721 185.935 144.296 185.71 144.716 185.26C145.136 184.81 145.346 184.155 145.346 183.295V178.78H146.711ZM151.925 187.135C151.295 187.135 150.73 187.03 150.23 186.82C149.73 186.6 149.335 186.3 149.045 185.92C148.755 185.53 148.595 185.085 148.565 184.585H149.975C150.015 184.995 150.205 185.33 150.545 185.59C150.895 185.85 151.35 185.98 151.91 185.98C152.43 185.98 152.84 185.865 153.14 185.635C153.44 185.405 153.59 185.115 153.59 184.765C153.59 184.405 153.43 184.14 153.11 183.97C152.79 183.79 152.295 183.615 151.625 183.445C151.015 183.285 150.515 183.125 150.125 182.965C149.745 182.795 149.415 182.55 149.135 182.23C148.865 181.9 148.73 181.47 148.73 180.94C148.73 180.52 148.855 180.135 149.105 179.785C149.355 179.435 149.71 179.16 150.17 178.96C150.63 178.75 151.155 178.645 151.745 178.645C152.655 178.645 153.39 178.875 153.95 179.335C154.51 179.795 154.81 180.425 154.85 181.225H153.485C153.455 180.795 153.28 180.45 152.96 180.19C152.65 179.93 152.23 179.8 151.7 179.8C151.21 179.8 150.82 179.905 150.53 180.115C150.24 180.325 150.095 180.6 150.095 180.94C150.095 181.21 150.18 181.435 150.35 181.615C150.53 181.785 150.75 181.925 151.01 182.035C151.28 182.135 151.65 182.25 152.12 182.38C152.71 182.54 153.19 182.7 153.56 182.86C153.93 183.01 154.245 183.24 154.505 183.55C154.775 183.86 154.915 184.265 154.925 184.765C154.925 185.215 154.8 185.62 154.55 185.98C154.3 186.34 153.945 186.625 153.485 186.835C153.035 187.035 152.515 187.135 151.925 187.135ZM158.517 179.905V184.75C158.517 185.15 158.602 185.435 158.772 185.605C158.942 185.765 159.237 185.845 159.657 185.845H160.662V187H159.432C158.672 187 158.102 186.825 157.722 186.475C157.342 186.125 157.152 185.55 157.152 184.75V179.905H156.087V178.78H157.152V176.71H158.517V178.78H160.662V179.905H158.517ZM163.681 180.115C163.921 179.645 164.261 179.28 164.701 179.02C165.151 178.76 165.696 178.63 166.336 178.63V180.04H165.976C164.446 180.04 163.681 180.87 163.681 182.53V187H162.316V178.78H163.681V180.115ZM174.992 178.78L170.042 190.87H168.632L170.252 186.91L166.937 178.78H168.452L171.032 185.44L173.582 178.78H174.992ZM176.799 187.09C176.539 187.09 176.319 187 176.139 186.82C175.959 186.64 175.869 186.42 175.869 186.16C175.869 185.9 175.959 185.68 176.139 185.5C176.319 185.32 176.539 185.23 176.799 185.23C177.049 185.23 177.259 185.32 177.429 185.5C177.609 185.68 177.699 185.9 177.699 186.16C177.699 186.42 177.609 186.64 177.429 186.82C177.259 187 177.049 187.09 176.799 187.09Z" fill="white"/>
<path d="M25.602 227.136C25.602 226.352 25.7607 225.666 26.078 225.078C26.3953 224.481 26.8293 224.019 27.38 223.692C27.94 223.365 28.5653 223.202 29.256 223.202C29.8533 223.202 30.4087 223.342 30.922 223.622C31.4353 223.893 31.8273 224.252 32.098 224.7V220.64H33.386V231H32.098V229.558C31.846 230.015 31.4727 230.393 30.978 230.692C30.4833 230.981 29.9047 231.126 29.242 231.126C28.5607 231.126 27.94 230.958 27.38 230.622C26.8293 230.286 26.3953 229.815 26.078 229.208C25.7607 228.601 25.602 227.911 25.602 227.136ZM32.098 227.15C32.098 226.571 31.9813 226.067 31.748 225.638C31.5147 225.209 31.1973 224.882 30.796 224.658C30.404 224.425 29.97 224.308 29.494 224.308C29.018 224.308 28.584 224.42 28.192 224.644C27.8 224.868 27.4873 225.195 27.254 225.624C27.0207 226.053 26.904 226.557 26.904 227.136C26.904 227.724 27.0207 228.237 27.254 228.676C27.4873 229.105 27.8 229.437 28.192 229.67C28.584 229.894 29.018 230.006 29.494 230.006C29.97 230.006 30.404 229.894 30.796 229.67C31.1973 229.437 31.5147 229.105 31.748 228.676C31.9813 228.237 32.098 227.729 32.098 227.15ZM36.1969 222.082C35.9543 222.082 35.7489 221.998 35.5809 221.83C35.4129 221.662 35.3289 221.457 35.3289 221.214C35.3289 220.971 35.4129 220.766 35.5809 220.598C35.7489 220.43 35.9543 220.346 36.1969 220.346C36.4303 220.346 36.6263 220.43 36.7849 220.598C36.9529 220.766 37.0369 220.971 37.0369 221.214C37.0369 221.457 36.9529 221.662 36.7849 221.83C36.6263 221.998 36.4303 222.082 36.1969 222.082ZM36.8129 223.328V231H35.5389V223.328H36.8129ZM40.2583 224.574C40.4823 224.135 40.7996 223.795 41.2103 223.552C41.6303 223.309 42.1389 223.188 42.7363 223.188V224.504H42.4003C40.9723 224.504 40.2583 225.279 40.2583 226.828V231H38.9843V223.328H40.2583V224.574ZM51.2069 226.87C51.2069 227.113 51.1929 227.369 51.1649 227.64H45.0329C45.0796 228.396 45.3362 228.989 45.8029 229.418C46.2789 229.838 46.8529 230.048 47.5249 230.048C48.0756 230.048 48.5329 229.922 48.8969 229.67C49.2702 229.409 49.5316 229.063 49.6809 228.634H51.0529C50.8476 229.371 50.4369 229.973 49.8209 230.44C49.2049 230.897 48.4396 231.126 47.5249 231.126C46.7969 231.126 46.1436 230.963 45.5649 230.636C44.9956 230.309 44.5476 229.847 44.2209 229.25C43.8942 228.643 43.7309 227.943 43.7309 227.15C43.7309 226.357 43.8896 225.661 44.2069 225.064C44.5242 224.467 44.9676 224.009 45.5369 223.692C46.1156 223.365 46.7782 223.202 47.5249 223.202C48.2529 223.202 48.8969 223.361 49.4569 223.678C50.0169 223.995 50.4462 224.434 50.7449 224.994C51.0529 225.545 51.2069 226.17 51.2069 226.87ZM49.8909 226.604C49.8909 226.119 49.7836 225.703 49.5689 225.358C49.3542 225.003 49.0602 224.737 48.6869 224.56C48.3229 224.373 47.9169 224.28 47.4689 224.28C46.8249 224.28 46.2742 224.485 45.8169 224.896C45.3689 225.307 45.1122 225.876 45.0469 226.604H49.8909ZM52.4125 227.15C52.4125 226.357 52.5712 225.666 52.8885 225.078C53.2059 224.481 53.6445 224.019 54.2045 223.692C54.7739 223.365 55.4225 223.202 56.1505 223.202C57.0932 223.202 57.8679 223.431 58.4745 223.888C59.0905 224.345 59.4965 224.98 59.6925 225.792H58.3205C58.1899 225.325 57.9332 224.957 57.5505 224.686C57.1772 224.415 56.7105 224.28 56.1505 224.28C55.4225 224.28 54.8345 224.532 54.3865 225.036C53.9385 225.531 53.7145 226.235 53.7145 227.15C53.7145 228.074 53.9385 228.788 54.3865 229.292C54.8345 229.796 55.4225 230.048 56.1505 230.048C56.7105 230.048 57.1772 229.917 57.5505 229.656C57.9239 229.395 58.1805 229.021 58.3205 228.536H59.6925C59.4872 229.32 59.0765 229.95 58.4605 230.426C57.8445 230.893 57.0745 231.126 56.1505 231.126C55.4225 231.126 54.7739 230.963 54.2045 230.636C53.6445 230.309 53.2059 229.847 52.8885 229.25C52.5712 228.653 52.4125 227.953 52.4125 227.15ZM62.9465 224.378V228.9C62.9465 229.273 63.0258 229.539 63.1845 229.698C63.3431 229.847 63.6185 229.922 64.0105 229.922H64.9485V231H63.8005C63.0911 231 62.5591 230.837 62.2045 230.51C61.8498 230.183 61.6725 229.647 61.6725 228.9V224.378H60.6785V223.328H61.6725V221.396H62.9465V223.328H64.9485V224.378H62.9465ZM69.8381 231.126C69.1194 231.126 68.4661 230.963 67.8781 230.636C67.2994 230.309 66.8421 229.847 66.5061 229.25C66.1794 228.643 66.0161 227.943 66.0161 227.15C66.0161 226.366 66.1841 225.675 66.5201 225.078C66.8654 224.471 67.3321 224.009 67.9201 223.692C68.5081 223.365 69.1661 223.202 69.8941 223.202C70.6221 223.202 71.2801 223.365 71.8681 223.692C72.4561 224.009 72.9181 224.467 73.2541 225.064C73.5994 225.661 73.7721 226.357 73.7721 227.15C73.7721 227.943 73.5947 228.643 73.2401 229.25C72.8947 229.847 72.4234 230.309 71.8261 230.636C71.2287 230.963 70.5661 231.126 69.8381 231.126ZM69.8381 230.006C70.2954 230.006 70.7247 229.899 71.1261 229.684C71.5274 229.469 71.8494 229.147 72.0921 228.718C72.3441 228.289 72.4701 227.766 72.4701 227.15C72.4701 226.534 72.3487 226.011 72.1061 225.582C71.8634 225.153 71.5461 224.835 71.1541 224.63C70.7621 224.415 70.3374 224.308 69.8801 224.308C69.4134 224.308 68.9841 224.415 68.5921 224.63C68.2094 224.835 67.9014 225.153 67.6681 225.582C67.4347 226.011 67.3181 226.534 67.3181 227.15C67.3181 227.775 67.4301 228.303 67.6541 228.732C67.8874 229.161 68.1954 229.483 68.5781 229.698C68.9607 229.903 69.3807 230.006 69.8381 230.006ZM76.7211 224.574C76.9451 224.135 77.2625 223.795 77.6731 223.552C78.0931 223.309 78.6018 223.188 79.1991 223.188V224.504H78.8631C77.4351 224.504 76.7211 225.279 76.7211 226.828V231H75.4471V223.328H76.7211V224.574ZM87.6698 222.026C88.7058 222.026 89.6065 222.222 90.3718 222.614C91.1371 223.006 91.7251 223.557 92.1358 224.266C92.5465 224.966 92.7518 225.778 92.7518 226.702C92.7518 227.439 92.6305 228.149 92.3878 228.83C92.1451 229.502 91.7905 230.048 91.3238 230.468C90.8665 230.888 90.3298 231.098 89.7138 231.098C89.2471 231.098 88.8878 230.981 88.6358 230.748C88.3838 230.515 88.2391 230.197 88.2018 229.796C87.9125 230.197 87.5438 230.515 87.0958 230.748C86.6571 230.981 86.1905 231.098 85.6958 231.098C84.9865 231.098 84.4265 230.883 84.0158 230.454C83.6145 230.015 83.4138 229.427 83.4138 228.69C83.4138 227.99 83.5585 227.337 83.8478 226.73C84.1465 226.123 84.5571 225.638 85.0798 225.274C85.6025 224.901 86.1951 224.714 86.8578 224.714C87.7445 224.714 88.3418 225.05 88.6498 225.722L88.8038 224.854H89.9098L89.2098 228.9C89.1818 229.077 89.1678 229.241 89.1678 229.39C89.1678 229.95 89.4151 230.23 89.9098 230.23C90.2831 230.23 90.6051 230.053 90.8758 229.698C91.1558 229.343 91.3658 228.9 91.5058 228.368C91.6458 227.827 91.7158 227.295 91.7158 226.772C91.7158 225.549 91.3471 224.602 90.6098 223.93C89.8818 223.258 88.8505 222.922 87.5158 222.922C86.4051 222.922 85.4018 223.193 84.5058 223.734C83.6191 224.266 82.9238 224.999 82.4198 225.932C81.9158 226.865 81.6638 227.897 81.6638 229.026C81.6545 230.258 82.0231 231.205 82.7698 231.868C83.5165 232.54 84.5525 232.876 85.8778 232.876C86.7551 232.876 87.5298 232.717 88.2018 232.4L88.3698 233.268C87.5391 233.613 86.6245 233.786 85.6258 233.786C84.6271 233.786 83.7451 233.595 82.9798 233.212C82.2238 232.839 81.6358 232.297 81.2158 231.588C80.8051 230.888 80.5998 230.071 80.5998 229.138C80.5998 227.822 80.9031 226.623 81.5098 225.54C82.1165 224.448 82.9565 223.589 84.0298 222.964C85.1125 222.339 86.3258 222.026 87.6698 222.026ZM86.0738 230.104C86.4938 230.104 86.8811 229.983 87.2358 229.74C87.5905 229.488 87.8705 229.152 88.0758 228.732C88.2811 228.303 88.3838 227.836 88.3838 227.332C88.3838 226.847 88.2485 226.455 87.9778 226.156C87.7165 225.848 87.3431 225.694 86.8578 225.694C86.4098 225.694 86.0131 225.829 85.6678 226.1C85.3318 226.361 85.0705 226.711 84.8838 227.15C84.6971 227.579 84.6038 228.027 84.6038 228.494C84.6038 228.989 84.7298 229.381 84.9818 229.67C85.2338 229.959 85.5978 230.104 86.0738 230.104ZM94.3715 227.15C94.3715 226.357 94.5302 225.666 94.8475 225.078C95.1649 224.481 95.6035 224.019 96.1635 223.692C96.7329 223.365 97.3815 223.202 98.1095 223.202C99.0522 223.202 99.8269 223.431 100.434 223.888C101.05 224.345 101.456 224.98 101.652 225.792H100.28C100.149 225.325 99.8922 224.957 99.5095 224.686C99.1362 224.415 98.6695 224.28 98.1095 224.28C97.3815 224.28 96.7935 224.532 96.3455 225.036C95.8975 225.531 95.6735 226.235 95.6735 227.15C95.6735 228.074 95.8975 228.788 96.3455 229.292C96.7935 229.796 97.3815 230.048 98.1095 230.048C98.6695 230.048 99.1362 229.917 99.5095 229.656C99.8829 229.395 100.14 229.021 100.28 228.536H101.652C101.446 229.32 101.036 229.95 100.42 230.426C99.8035 230.893 99.0335 231.126 98.1095 231.126C97.3815 231.126 96.7329 230.963 96.1635 230.636C95.6035 230.309 95.1649 229.847 94.8475 229.25C94.5302 228.653 94.3715 227.953 94.3715 227.15ZM107.159 223.188C107.738 223.188 108.261 223.314 108.727 223.566C109.194 223.809 109.558 224.177 109.819 224.672C110.09 225.167 110.225 225.769 110.225 226.478V231H108.965V226.66C108.965 225.895 108.774 225.311 108.391 224.91C108.009 224.499 107.486 224.294 106.823 224.294C106.151 224.294 105.615 224.504 105.213 224.924C104.821 225.344 104.625 225.955 104.625 226.758V231H103.351V220.64H104.625V224.42C104.877 224.028 105.223 223.725 105.661 223.51C106.109 223.295 106.609 223.188 107.159 223.188ZM115.653 231.126C114.934 231.126 114.281 230.963 113.693 230.636C113.114 230.309 112.657 229.847 112.321 229.25C111.994 228.643 111.831 227.943 111.831 227.15C111.831 226.366 111.999 225.675 112.335 225.078C112.68 224.471 113.147 224.009 113.735 223.692C114.323 223.365 114.981 223.202 115.709 223.202C116.437 223.202 117.095 223.365 117.683 223.692C118.271 224.009 118.733 224.467 119.069 225.064C119.414 225.661 119.587 226.357 119.587 227.15C119.587 227.943 119.409 228.643 119.055 229.25C118.709 229.847 118.238 230.309 117.641 230.636C117.043 230.963 116.381 231.126 115.653 231.126ZM115.653 230.006C116.11 230.006 116.539 229.899 116.941 229.684C117.342 229.469 117.664 229.147 117.907 228.718C118.159 228.289 118.285 227.766 118.285 227.15C118.285 226.534 118.163 226.011 117.921 225.582C117.678 225.153 117.361 224.835 116.969 224.63C116.577 224.415 116.152 224.308 115.695 224.308C115.228 224.308 114.799 224.415 114.407 224.63C114.024 224.835 113.716 225.153 113.483 225.582C113.249 226.011 113.133 226.534 113.133 227.15C113.133 227.775 113.245 228.303 113.469 228.732C113.702 229.161 114.01 229.483 114.393 229.698C114.775 229.903 115.195 230.006 115.653 230.006ZM122.536 220.64V231H121.262V220.64H122.536ZM131.707 226.87C131.707 227.113 131.693 227.369 131.665 227.64H125.533C125.58 228.396 125.836 228.989 126.303 229.418C126.779 229.838 127.353 230.048 128.025 230.048C128.576 230.048 129.033 229.922 129.397 229.67C129.77 229.409 130.032 229.063 130.181 228.634H131.553C131.348 229.371 130.937 229.973 130.321 230.44C129.705 230.897 128.94 231.126 128.025 231.126C127.297 231.126 126.644 230.963 126.065 230.636C125.496 230.309 125.048 229.847 124.721 229.25C124.394 228.643 124.231 227.943 124.231 227.15C124.231 226.357 124.39 225.661 124.707 225.064C125.024 224.467 125.468 224.009 126.037 223.692C126.616 223.365 127.278 223.202 128.025 223.202C128.753 223.202 129.397 223.361 129.957 223.678C130.517 223.995 130.946 224.434 131.245 224.994C131.553 225.545 131.707 226.17 131.707 226.87ZM130.391 226.604C130.391 226.119 130.284 225.703 130.069 225.358C129.854 225.003 129.56 224.737 129.187 224.56C128.823 224.373 128.417 224.28 127.969 224.28C127.325 224.28 126.774 224.485 126.317 224.896C125.869 225.307 125.612 225.876 125.547 226.604H130.391ZM137.127 223.188C138.06 223.188 138.816 223.473 139.395 224.042C139.973 224.602 140.263 225.414 140.263 226.478V231H139.003V226.66C139.003 225.895 138.811 225.311 138.429 224.91C138.046 224.499 137.523 224.294 136.861 224.294C136.189 224.294 135.652 224.504 135.251 224.924C134.859 225.344 134.663 225.955 134.663 226.758V231H133.389V223.328H134.663V224.42C134.915 224.028 135.255 223.725 135.685 223.51C136.123 223.295 136.604 223.188 137.127 223.188ZM143.03 222.082C142.787 222.082 142.582 221.998 142.414 221.83C142.255 221.662 142.176 221.457 142.176 221.214C142.176 220.971 142.255 220.766 142.414 220.598C142.582 220.43 142.787 220.346 143.03 220.346C143.272 220.346 143.473 220.43 143.632 220.598C143.8 220.766 143.884 220.971 143.884 221.214C143.884 221.457 143.8 221.662 143.632 221.83C143.473 221.998 143.272 222.082 143.03 222.082ZM143.66 232.666C143.66 233.347 143.487 233.847 143.142 234.164C142.796 234.481 142.292 234.64 141.63 234.64H140.888V233.562H141.42C141.774 233.562 142.022 233.492 142.162 233.352C142.311 233.212 142.386 232.974 142.386 232.638V223.328H143.66V232.666ZM145.34 227.136C145.34 226.352 145.499 225.666 145.816 225.078C146.134 224.481 146.568 224.019 147.118 223.692C147.678 223.365 148.299 223.202 148.98 223.202C149.652 223.202 150.236 223.347 150.73 223.636C151.225 223.925 151.594 224.289 151.836 224.728V223.328H153.124V231H151.836V229.572C151.584 230.02 151.206 230.393 150.702 230.692C150.208 230.981 149.629 231.126 148.966 231.126C148.285 231.126 147.669 230.958 147.118 230.622C146.568 230.286 146.134 229.815 145.816 229.208C145.499 228.601 145.34 227.911 145.34 227.136ZM151.836 227.15C151.836 226.571 151.72 226.067 151.486 225.638C151.253 225.209 150.936 224.882 150.534 224.658C150.142 224.425 149.708 224.308 149.232 224.308C148.756 224.308 148.322 224.42 147.93 224.644C147.538 224.868 147.226 225.195 146.992 225.624C146.759 226.053 146.642 226.557 146.642 227.136C146.642 227.724 146.759 228.237 146.992 228.676C147.226 229.105 147.538 229.437 147.93 229.67C148.322 229.894 148.756 230.006 149.232 230.006C149.708 230.006 150.142 229.894 150.534 229.67C150.936 229.437 151.253 229.105 151.486 228.676C151.72 228.237 151.836 227.729 151.836 227.15ZM155.935 222.082C155.693 222.082 155.487 221.998 155.319 221.83C155.151 221.662 155.067 221.457 155.067 221.214C155.067 220.971 155.151 220.766 155.319 220.598C155.487 220.43 155.693 220.346 155.935 220.346C156.169 220.346 156.365 220.43 156.523 220.598C156.691 220.766 156.775 220.971 156.775 221.214C156.775 221.457 156.691 221.662 156.523 221.83C156.365 221.998 156.169 222.082 155.935 222.082ZM156.551 223.328V231H155.277V223.328H156.551ZM159.129 231.084C158.886 231.084 158.681 231 158.513 230.832C158.345 230.664 158.261 230.459 158.261 230.216C158.261 229.973 158.345 229.768 158.513 229.6C158.681 229.432 158.886 229.348 159.129 229.348C159.362 229.348 159.558 229.432 159.717 229.6C159.885 229.768 159.969 229.973 159.969 230.216C159.969 230.459 159.885 230.664 159.717 230.832C159.558 231 159.362 231.084 159.129 231.084ZM164.826 223.202C165.489 223.202 166.067 223.347 166.562 223.636C167.066 223.925 167.439 224.289 167.682 224.728V223.328H168.97V231.168C168.97 231.868 168.821 232.489 168.522 233.03C168.223 233.581 167.794 234.01 167.234 234.318C166.683 234.626 166.039 234.78 165.302 234.78C164.294 234.78 163.454 234.542 162.782 234.066C162.11 233.59 161.713 232.941 161.592 232.12H162.852C162.992 232.587 163.281 232.96 163.72 233.24C164.159 233.529 164.686 233.674 165.302 233.674C166.002 233.674 166.571 233.455 167.01 233.016C167.458 232.577 167.682 231.961 167.682 231.168V229.558C167.43 230.006 167.057 230.379 166.562 230.678C166.067 230.977 165.489 231.126 164.826 231.126C164.145 231.126 163.524 230.958 162.964 230.622C162.413 230.286 161.979 229.815 161.662 229.208C161.345 228.601 161.186 227.911 161.186 227.136C161.186 226.352 161.345 225.666 161.662 225.078C161.979 224.481 162.413 224.019 162.964 223.692C163.524 223.365 164.145 223.202 164.826 223.202ZM167.682 227.15C167.682 226.571 167.565 226.067 167.332 225.638C167.099 225.209 166.781 224.882 166.38 224.658C165.988 224.425 165.554 224.308 165.078 224.308C164.602 224.308 164.168 224.42 163.776 224.644C163.384 224.868 163.071 225.195 162.838 225.624C162.605 226.053 162.488 226.557 162.488 227.136C162.488 227.724 162.605 228.237 162.838 228.676C163.071 229.105 163.384 229.437 163.776 229.67C164.168 229.894 164.602 230.006 165.078 230.006C165.554 230.006 165.988 229.894 166.38 229.67C166.781 229.437 167.099 229.105 167.332 228.676C167.565 228.237 167.682 227.729 167.682 227.15ZM174.469 231.126C173.75 231.126 173.097 230.963 172.509 230.636C171.93 230.309 171.473 229.847 171.137 229.25C170.81 228.643 170.647 227.943 170.647 227.15C170.647 226.366 170.815 225.675 171.151 225.078C171.496 224.471 171.963 224.009 172.551 223.692C173.139 223.365 173.797 223.202 174.525 223.202C175.253 223.202 175.911 223.365 176.499 223.692C177.087 224.009 177.549 224.467 177.885 225.064C178.23 225.661 178.403 226.357 178.403 227.15C178.403 227.943 178.226 228.643 177.871 229.25C177.526 229.847 177.054 230.309 176.457 230.636C175.86 230.963 175.197 231.126 174.469 231.126ZM174.469 230.006C174.926 230.006 175.356 229.899 175.757 229.684C176.158 229.469 176.48 229.147 176.723 228.718C176.975 228.289 177.101 227.766 177.101 227.15C177.101 226.534 176.98 226.011 176.737 225.582C176.494 225.153 176.177 224.835 175.785 224.63C175.393 224.415 174.968 224.308 174.511 224.308C174.044 224.308 173.615 224.415 173.223 224.63C172.84 224.835 172.532 225.153 172.299 225.582C172.066 226.011 171.949 226.534 171.949 227.15C171.949 227.775 172.061 228.303 172.285 228.732C172.518 229.161 172.826 229.483 173.209 229.698C173.592 229.903 174.012 230.006 174.469 230.006ZM182.934 229.824L185.314 223.328H186.672L183.662 231H182.178L179.168 223.328H180.54L182.934 229.824ZM188.332 231.084C188.089 231.084 187.884 231 187.716 230.832C187.548 230.664 187.464 230.459 187.464 230.216C187.464 229.973 187.548 229.768 187.716 229.6C187.884 229.432 188.089 229.348 188.332 229.348C188.565 229.348 188.761 229.432 188.92 229.6C189.088 229.768 189.172 229.973 189.172 230.216C189.172 230.459 189.088 230.664 188.92 230.832C188.761 231 188.565 231.084 188.332 231.084ZM192.139 224.756C192.4 224.299 192.783 223.925 193.287 223.636C193.791 223.347 194.365 223.202 195.009 223.202C195.7 223.202 196.32 223.365 196.871 223.692C197.422 224.019 197.856 224.481 198.173 225.078C198.49 225.666 198.649 226.352 198.649 227.136C198.649 227.911 198.49 228.601 198.173 229.208C197.856 229.815 197.417 230.286 196.857 230.622C196.306 230.958 195.69 231.126 195.009 231.126C194.346 231.126 193.763 230.981 193.259 230.692C192.764 230.403 192.391 230.034 192.139 229.586V231H190.865V220.64H192.139V224.756ZM197.347 227.136C197.347 226.557 197.23 226.053 196.997 225.624C196.764 225.195 196.446 224.868 196.045 224.644C195.653 224.42 195.219 224.308 194.743 224.308C194.276 224.308 193.842 224.425 193.441 224.658C193.049 224.882 192.732 225.213 192.489 225.652C192.256 226.081 192.139 226.581 192.139 227.15C192.139 227.729 192.256 228.237 192.489 228.676C192.732 229.105 193.049 229.437 193.441 229.67C193.842 229.894 194.276 230.006 194.743 230.006C195.219 230.006 195.653 229.894 196.045 229.67C196.446 229.437 196.764 229.105 196.997 228.676C197.23 228.237 197.347 227.724 197.347 227.136ZM199.85 227.136C199.85 226.352 200.009 225.666 200.326 225.078C200.643 224.481 201.077 224.019 201.628 223.692C202.188 223.365 202.813 223.202 203.504 223.202C204.101 223.202 204.657 223.342 205.17 223.622C205.683 223.893 206.075 224.252 206.346 224.7V220.64H207.634V231H206.346V229.558C206.094 230.015 205.721 230.393 205.226 230.692C204.731 230.981 204.153 231.126 203.49 231.126C202.809 231.126 202.188 230.958 201.628 230.622C201.077 230.286 200.643 229.815 200.326 229.208C200.009 228.601 199.85 227.911 199.85 227.136ZM206.346 227.15C206.346 226.571 206.229 226.067 205.996 225.638C205.763 225.209 205.445 224.882 205.044 224.658C204.652 224.425 204.218 224.308 203.742 224.308C203.266 224.308 202.832 224.42 202.44 224.644C202.048 224.868 201.735 225.195 201.502 225.624C201.269 226.053 201.152 226.557 201.152 227.136C201.152 227.724 201.269 228.237 201.502 228.676C201.735 229.105 202.048 229.437 202.44 229.67C202.832 229.894 203.266 230.006 203.742 230.006C204.218 230.006 204.652 229.894 205.044 229.67C205.445 229.437 205.763 229.105 205.996 228.676C206.229 228.237 206.346 227.729 206.346 227.15Z" fill="white"/>
<path d="M25.602 248.15C25.602 247.357 25.7607 246.666 26.078 246.078C26.3953 245.481 26.834 245.019 27.394 244.692C27.9633 244.365 28.612 244.202 29.34 244.202C30.2827 244.202 31.0573 244.431 31.664 244.888C32.28 245.345 32.686 245.98 32.882 246.792H31.51C31.3793 246.325 31.1227 245.957 30.74 245.686C30.3667 245.415 29.9 245.28 29.34 245.28C28.612 245.28 28.024 245.532 27.576 246.036C27.128 246.531 26.904 247.235 26.904 248.15C26.904 249.074 27.128 249.788 27.576 250.292C28.024 250.796 28.612 251.048 29.34 251.048C29.9 251.048 30.3667 250.917 30.74 250.656C31.1133 250.395 31.37 250.021 31.51 249.536H32.882C32.6767 250.32 32.266 250.95 31.65 251.426C31.034 251.893 30.264 252.126 29.34 252.126C28.612 252.126 27.9633 251.963 27.394 251.636C26.834 251.309 26.3953 250.847 26.078 250.25C25.7607 249.653 25.602 248.953 25.602 248.15ZM38.3899 244.188C38.9686 244.188 39.4912 244.314 39.9579 244.566C40.4246 244.809 40.7886 245.177 41.0499 245.672C41.3206 246.167 41.4559 246.769 41.4559 247.478V252H40.1959V247.66C40.1959 246.895 40.0046 246.311 39.6219 245.91C39.2392 245.499 38.7166 245.294 38.0539 245.294C37.3819 245.294 36.8452 245.504 36.4439 245.924C36.0519 246.344 35.8559 246.955 35.8559 247.758V252H34.5819V241.64H35.8559V245.42C36.1079 245.028 36.4532 244.725 36.8919 244.51C37.3399 244.295 37.8392 244.188 38.3899 244.188ZM46.883 252.126C46.1643 252.126 45.511 251.963 44.923 251.636C44.3443 251.309 43.887 250.847 43.551 250.25C43.2243 249.643 43.061 248.943 43.061 248.15C43.061 247.366 43.229 246.675 43.565 246.078C43.9103 245.471 44.377 245.009 44.965 244.692C45.553 244.365 46.211 244.202 46.939 244.202C47.667 244.202 48.325 244.365 48.913 244.692C49.501 245.009 49.963 245.467 50.299 246.064C50.6443 246.661 50.817 247.357 50.817 248.15C50.817 248.943 50.6397 249.643 50.285 250.25C49.9397 250.847 49.4683 251.309 48.871 251.636C48.2737 251.963 47.611 252.126 46.883 252.126ZM46.883 251.006C47.3403 251.006 47.7697 250.899 48.171 250.684C48.5723 250.469 48.8943 250.147 49.137 249.718C49.389 249.289 49.515 248.766 49.515 248.15C49.515 247.534 49.3937 247.011 49.151 246.582C48.9083 246.153 48.591 245.835 48.199 245.63C47.807 245.415 47.3823 245.308 46.925 245.308C46.4583 245.308 46.029 245.415 45.637 245.63C45.2543 245.835 44.9463 246.153 44.713 246.582C44.4797 247.011 44.363 247.534 44.363 248.15C44.363 248.775 44.475 249.303 44.699 249.732C44.9323 250.161 45.2403 250.483 45.623 250.698C46.0057 250.903 46.4257 251.006 46.883 251.006ZM53.7661 241.64V252H52.4921V241.64H53.7661ZM62.9374 247.87C62.9374 248.113 62.9234 248.369 62.8954 248.64H56.7634C56.81 249.396 57.0667 249.989 57.5334 250.418C58.0094 250.838 58.5834 251.048 59.2554 251.048C59.806 251.048 60.2634 250.922 60.6274 250.67C61.0007 250.409 61.262 250.063 61.4114 249.634H62.7834C62.578 250.371 62.1674 250.973 61.5514 251.44C60.9354 251.897 60.17 252.126 59.2554 252.126C58.5274 252.126 57.874 251.963 57.2954 251.636C56.726 251.309 56.278 250.847 55.9514 250.25C55.6247 249.643 55.4614 248.943 55.4614 248.15C55.4614 247.357 55.62 246.661 55.9374 246.064C56.2547 245.467 56.698 245.009 57.2674 244.692C57.846 244.365 58.5087 244.202 59.2554 244.202C59.9834 244.202 60.6274 244.361 61.1874 244.678C61.7474 244.995 62.1767 245.434 62.4754 245.994C62.7834 246.545 62.9374 247.17 62.9374 247.87ZM61.6214 247.604C61.6214 247.119 61.514 246.703 61.2994 246.358C61.0847 246.003 60.7907 245.737 60.4174 245.56C60.0534 245.373 59.6474 245.28 59.1994 245.28C58.5554 245.28 58.0047 245.485 57.5474 245.896C57.0994 246.307 56.8427 246.876 56.7774 247.604H61.6214ZM68.357 244.188C69.2903 244.188 70.0463 244.473 70.625 245.042C71.2037 245.602 71.493 246.414 71.493 247.478V252H70.233V247.66C70.233 246.895 70.0417 246.311 69.659 245.91C69.2763 245.499 68.7537 245.294 68.091 245.294C67.419 245.294 66.8823 245.504 66.481 245.924C66.089 246.344 65.893 246.955 65.893 247.758V252H64.619V244.328H65.893V245.42C66.145 245.028 66.4857 244.725 66.915 244.51C67.3537 244.295 67.8343 244.188 68.357 244.188ZM73.9801 252.084C73.7374 252.084 73.5321 252 73.3641 251.832C73.1961 251.664 73.1121 251.459 73.1121 251.216C73.1121 250.973 73.1961 250.768 73.3641 250.6C73.5321 250.432 73.7374 250.348 73.9801 250.348C74.2134 250.348 74.4094 250.432 74.5681 250.6C74.7361 250.768 74.8201 250.973 74.8201 251.216C74.8201 251.459 74.7361 251.664 74.5681 251.832C74.4094 252 74.2134 252.084 73.9801 252.084ZM77.1995 243.082C76.9569 243.082 76.7515 242.998 76.5835 242.83C76.4249 242.662 76.3455 242.457 76.3455 242.214C76.3455 241.971 76.4249 241.766 76.5835 241.598C76.7515 241.43 76.9569 241.346 77.1995 241.346C77.4422 241.346 77.6429 241.43 77.8015 241.598C77.9695 241.766 78.0535 241.971 78.0535 242.214C78.0535 242.457 77.9695 242.662 77.8015 242.83C77.6429 242.998 77.4422 243.082 77.1995 243.082ZM77.8295 253.666C77.8295 254.347 77.6569 254.847 77.3115 255.164C76.9662 255.481 76.4622 255.64 75.7995 255.64H75.0575V254.562H75.5895C75.9442 254.562 76.1915 254.492 76.3315 254.352C76.4809 254.212 76.5555 253.974 76.5555 253.638V244.328H77.8295V253.666ZM79.5102 248.136C79.5102 247.352 79.6689 246.666 79.9862 246.078C80.3035 245.481 80.7375 245.019 81.2882 244.692C81.8482 244.365 82.4689 244.202 83.1502 244.202C83.8222 244.202 84.4055 244.347 84.9002 244.636C85.3949 244.925 85.7635 245.289 86.0062 245.728V244.328H87.2942V252H86.0062V250.572C85.7542 251.02 85.3762 251.393 84.8722 251.692C84.3775 251.981 83.7989 252.126 83.1362 252.126C82.4549 252.126 81.8389 251.958 81.2882 251.622C80.7375 251.286 80.3035 250.815 79.9862 250.208C79.6689 249.601 79.5102 248.911 79.5102 248.136ZM86.0062 248.15C86.0062 247.571 85.8895 247.067 85.6562 246.638C85.4229 246.209 85.1055 245.882 84.7042 245.658C84.3122 245.425 83.8782 245.308 83.4022 245.308C82.9262 245.308 82.4922 245.42 82.1002 245.644C81.7082 245.868 81.3955 246.195 81.1622 246.624C80.9289 247.053 80.8122 247.557 80.8122 248.136C80.8122 248.724 80.9289 249.237 81.1622 249.676C81.3955 250.105 81.7082 250.437 82.1002 250.67C82.4922 250.894 82.9262 251.006 83.4022 251.006C83.8782 251.006 84.3122 250.894 84.7042 250.67C85.1055 250.437 85.4229 250.105 85.6562 249.676C85.8895 249.237 86.0062 248.729 86.0062 248.15ZM90.1051 243.082C89.8625 243.082 89.6571 242.998 89.4891 242.83C89.3211 242.662 89.2371 242.457 89.2371 242.214C89.2371 241.971 89.3211 241.766 89.4891 241.598C89.6571 241.43 89.8625 241.346 90.1051 241.346C90.3385 241.346 90.5345 241.43 90.6931 241.598C90.8611 241.766 90.9451 241.971 90.9451 242.214C90.9451 242.457 90.8611 242.662 90.6931 242.83C90.5345 242.998 90.3385 243.082 90.1051 243.082ZM90.7211 244.328V252H89.4471V244.328H90.7211ZM99.8925 243.026C100.928 243.026 101.829 243.222 102.594 243.614C103.36 244.006 103.948 244.557 104.358 245.266C104.769 245.966 104.974 246.778 104.974 247.702C104.974 248.439 104.853 249.149 104.61 249.83C104.368 250.502 104.013 251.048 103.546 251.468C103.089 251.888 102.552 252.098 101.936 252.098C101.47 252.098 101.11 251.981 100.858 251.748C100.606 251.515 100.462 251.197 100.424 250.796C100.135 251.197 99.7665 251.515 99.3185 251.748C98.8798 251.981 98.4131 252.098 97.9185 252.098C97.2091 252.098 96.6491 251.883 96.2385 251.454C95.8371 251.015 95.6365 250.427 95.6365 249.69C95.6365 248.99 95.7811 248.337 96.0705 247.73C96.3691 247.123 96.7798 246.638 97.3025 246.274C97.8251 245.901 98.4178 245.714 99.0805 245.714C99.9671 245.714 100.564 246.05 100.872 246.722L101.026 245.854H102.132L101.432 249.9C101.404 250.077 101.39 250.241 101.39 250.39C101.39 250.95 101.638 251.23 102.132 251.23C102.506 251.23 102.828 251.053 103.098 250.698C103.378 250.343 103.588 249.9 103.728 249.368C103.868 248.827 103.938 248.295 103.938 247.772C103.938 246.549 103.57 245.602 102.832 244.93C102.104 244.258 101.073 243.922 99.7385 243.922C98.6278 243.922 97.6245 244.193 96.7285 244.734C95.8418 245.266 95.1465 245.999 94.6425 246.932C94.1385 247.865 93.8865 248.897 93.8865 250.026C93.8771 251.258 94.2458 252.205 94.9925 252.868C95.7391 253.54 96.7751 253.876 98.1005 253.876C98.9778 253.876 99.7525 253.717 100.424 253.4L100.592 254.268C99.7618 254.613 98.8471 254.786 97.8485 254.786C96.8498 254.786 95.9678 254.595 95.2025 254.212C94.4465 253.839 93.8585 253.297 93.4385 252.588C93.0278 251.888 92.8225 251.071 92.8225 250.138C92.8225 248.822 93.1258 247.623 93.7325 246.54C94.3391 245.448 95.1791 244.589 96.2525 243.964C97.3351 243.339 98.5485 243.026 99.8925 243.026ZM98.2965 251.104C98.7165 251.104 99.1038 250.983 99.4585 250.74C99.8131 250.488 100.093 250.152 100.298 249.732C100.504 249.303 100.606 248.836 100.606 248.332C100.606 247.847 100.471 247.455 100.2 247.156C99.9391 246.848 99.5658 246.694 99.0805 246.694C98.6325 246.694 98.2358 246.829 97.8905 247.1C97.5545 247.361 97.2931 247.711 97.1065 248.15C96.9198 248.579 96.8265 249.027 96.8265 249.494C96.8265 249.989 96.9525 250.381 97.2045 250.67C97.4565 250.959 97.8205 251.104 98.2965 251.104ZM110.234 244.202C110.897 244.202 111.476 244.347 111.97 244.636C112.474 244.925 112.848 245.289 113.09 245.728V244.328H114.378V252.168C114.378 252.868 114.229 253.489 113.93 254.03C113.632 254.581 113.202 255.01 112.642 255.318C112.092 255.626 111.448 255.78 110.71 255.78C109.702 255.78 108.862 255.542 108.19 255.066C107.518 254.59 107.122 253.941 107 253.12H108.26C108.4 253.587 108.69 253.96 109.128 254.24C109.567 254.529 110.094 254.674 110.71 254.674C111.41 254.674 111.98 254.455 112.418 254.016C112.866 253.577 113.09 252.961 113.09 252.168V250.558C112.838 251.006 112.465 251.379 111.97 251.678C111.476 251.977 110.897 252.126 110.234 252.126C109.553 252.126 108.932 251.958 108.372 251.622C107.822 251.286 107.388 250.815 107.07 250.208C106.753 249.601 106.594 248.911 106.594 248.136C106.594 247.352 106.753 246.666 107.07 246.078C107.388 245.481 107.822 245.019 108.372 244.692C108.932 244.365 109.553 244.202 110.234 244.202ZM113.09 248.15C113.09 247.571 112.974 247.067 112.74 246.638C112.507 246.209 112.19 245.882 111.788 245.658C111.396 245.425 110.962 245.308 110.486 245.308C110.01 245.308 109.576 245.42 109.184 245.644C108.792 245.868 108.48 246.195 108.246 246.624C108.013 247.053 107.896 247.557 107.896 248.136C107.896 248.724 108.013 249.237 108.246 249.676C108.48 250.105 108.792 250.437 109.184 250.67C109.576 250.894 110.01 251.006 110.486 251.006C110.962 251.006 111.396 250.894 111.788 250.67C112.19 250.437 112.507 250.105 112.74 249.676C112.974 249.237 113.09 248.729 113.09 248.15ZM125.757 244.188C126.354 244.188 126.886 244.314 127.353 244.566C127.82 244.809 128.188 245.177 128.459 245.672C128.73 246.167 128.865 246.769 128.865 247.478V252H127.605V247.66C127.605 246.895 127.414 246.311 127.031 245.91C126.658 245.499 126.149 245.294 125.505 245.294C124.842 245.294 124.315 245.509 123.923 245.938C123.531 246.358 123.335 246.969 123.335 247.772V252H122.075V247.66C122.075 246.895 121.884 246.311 121.501 245.91C121.128 245.499 120.619 245.294 119.975 245.294C119.312 245.294 118.785 245.509 118.393 245.938C118.001 246.358 117.805 246.969 117.805 247.772V252H116.531V244.328H117.805V245.434C118.057 245.033 118.393 244.725 118.813 244.51C119.242 244.295 119.714 244.188 120.227 244.188C120.871 244.188 121.44 244.333 121.935 244.622C122.43 244.911 122.798 245.336 123.041 245.896C123.256 245.355 123.61 244.935 124.105 244.636C124.6 244.337 125.15 244.188 125.757 244.188ZM130.479 248.136C130.479 247.352 130.638 246.666 130.955 246.078C131.272 245.481 131.706 245.019 132.257 244.692C132.817 244.365 133.438 244.202 134.119 244.202C134.791 244.202 135.374 244.347 135.869 244.636C136.364 244.925 136.732 245.289 136.975 245.728V244.328H138.263V252H136.975V250.572C136.723 251.02 136.345 251.393 135.841 251.692C135.346 251.981 134.768 252.126 134.105 252.126C133.424 252.126 132.808 251.958 132.257 251.622C131.706 251.286 131.272 250.815 130.955 250.208C130.638 249.601 130.479 248.911 130.479 248.136ZM136.975 248.15C136.975 247.571 136.858 247.067 136.625 246.638C136.392 246.209 136.074 245.882 135.673 245.658C135.281 245.425 134.847 245.308 134.371 245.308C133.895 245.308 133.461 245.42 133.069 245.644C132.677 245.868 132.364 246.195 132.131 246.624C131.898 247.053 131.781 247.557 131.781 248.136C131.781 248.724 131.898 249.237 132.131 249.676C132.364 250.105 132.677 250.437 133.069 250.67C133.461 250.894 133.895 251.006 134.371 251.006C134.847 251.006 135.281 250.894 135.673 250.67C136.074 250.437 136.392 250.105 136.625 249.676C136.858 249.237 136.975 248.729 136.975 248.15ZM141.074 243.082C140.831 243.082 140.626 242.998 140.458 242.83C140.29 242.662 140.206 242.457 140.206 242.214C140.206 241.971 140.29 241.766 140.458 241.598C140.626 241.43 140.831 241.346 141.074 241.346C141.307 241.346 141.503 241.43 141.662 241.598C141.83 241.766 141.914 241.971 141.914 242.214C141.914 242.457 141.83 242.662 141.662 242.83C141.503 242.998 141.307 243.082 141.074 243.082ZM141.69 244.328V252H140.416V244.328H141.69ZM145.135 241.64V252H143.861V241.64H145.135ZM147.713 252.084C147.47 252.084 147.265 252 147.097 251.832C146.929 251.664 146.845 251.459 146.845 251.216C146.845 250.973 146.929 250.768 147.097 250.6C147.265 250.432 147.47 250.348 147.713 250.348C147.946 250.348 148.142 250.432 148.301 250.6C148.469 250.768 148.553 250.973 148.553 251.216C148.553 251.459 148.469 251.664 148.301 251.832C148.142 252 147.946 252.084 147.713 252.084ZM149.77 248.15C149.77 247.357 149.929 246.666 150.246 246.078C150.563 245.481 151.002 245.019 151.562 244.692C152.131 244.365 152.78 244.202 153.508 244.202C154.451 244.202 155.225 244.431 155.832 244.888C156.448 245.345 156.854 245.98 157.05 246.792H155.678C155.547 246.325 155.291 245.957 154.908 245.686C154.535 245.415 154.068 245.28 153.508 245.28C152.78 245.28 152.192 245.532 151.744 246.036C151.296 246.531 151.072 247.235 151.072 248.15C151.072 249.074 151.296 249.788 151.744 250.292C152.192 250.796 152.78 251.048 153.508 251.048C154.068 251.048 154.535 250.917 154.908 250.656C155.281 250.395 155.538 250.021 155.678 249.536H157.05C156.845 250.32 156.434 250.95 155.818 251.426C155.202 251.893 154.432 252.126 153.508 252.126C152.78 252.126 152.131 251.963 151.562 251.636C151.002 251.309 150.563 250.847 150.246 250.25C149.929 249.653 149.77 248.953 149.77 248.15ZM162.096 252.126C161.377 252.126 160.724 251.963 160.136 251.636C159.557 251.309 159.1 250.847 158.764 250.25C158.437 249.643 158.274 248.943 158.274 248.15C158.274 247.366 158.442 246.675 158.778 246.078C159.123 245.471 159.59 245.009 160.178 244.692C160.766 244.365 161.424 244.202 162.152 244.202C162.88 244.202 163.538 244.365 164.126 244.692C164.714 245.009 165.176 245.467 165.512 246.064C165.857 246.661 166.03 247.357 166.03 248.15C166.03 248.943 165.853 249.643 165.498 250.25C165.153 250.847 164.681 251.309 164.084 251.636C163.487 251.963 162.824 252.126 162.096 252.126ZM162.096 251.006C162.553 251.006 162.983 250.899 163.384 250.684C163.785 250.469 164.107 250.147 164.35 249.718C164.602 249.289 164.728 248.766 164.728 248.15C164.728 247.534 164.607 247.011 164.364 246.582C164.121 246.153 163.804 245.835 163.412 245.63C163.02 245.415 162.595 245.308 162.138 245.308C161.671 245.308 161.242 245.415 160.85 245.63C160.467 245.835 160.159 246.153 159.926 246.582C159.693 247.011 159.576 247.534 159.576 248.15C159.576 248.775 159.688 249.303 159.912 249.732C160.145 250.161 160.453 250.483 160.836 250.698C161.219 250.903 161.639 251.006 162.096 251.006ZM176.931 244.188C177.528 244.188 178.06 244.314 178.527 244.566C178.994 244.809 179.362 245.177 179.633 245.672C179.904 246.167 180.039 246.769 180.039 247.478V252H178.779V247.66C178.779 246.895 178.588 246.311 178.205 245.91C177.832 245.499 177.323 245.294 176.679 245.294C176.016 245.294 175.489 245.509 175.097 245.938C174.705 246.358 174.509 246.969 174.509 247.772V252H173.249V247.66C173.249 246.895 173.058 246.311 172.675 245.91C172.302 245.499 171.793 245.294 171.149 245.294C170.486 245.294 169.959 245.509 169.567 245.938C169.175 246.358 168.979 246.969 168.979 247.772V252H167.705V244.328H168.979V245.434C169.231 245.033 169.567 244.725 169.987 244.51C170.416 244.295 170.888 244.188 171.401 244.188C172.045 244.188 172.614 244.333 173.109 244.622C173.604 244.911 173.972 245.336 174.215 245.896C174.43 245.355 174.784 244.935 175.279 244.636C175.774 244.337 176.324 244.188 176.931 244.188Z" fill="white"/>
<g clip-path="url(#clip0)">
<path d="M13.282 222.333H0.717965C0.323066 222.333 0 222.656 0 223.051V230.949C0 231.344 0.323066 231.667 0.717965 231.667H13.2821C13.6769 231.667 14 231.344 14 230.949V223.051C14 222.656 13.6769 222.333 13.282 222.333ZM13.0126 222.872L7.413 227.072C7.31232 227.148 7.15777 227.196 6.99997 227.196C6.8422 227.196 6.68768 227.148 6.58697 227.072L0.987355 222.872H13.0126ZM10.0215 227.349L13.0728 231.118C13.0758 231.122 13.0796 231.125 13.0828 231.128H0.917164C0.920391 231.125 0.924164 231.122 0.927227 231.118L3.97852 227.349C4.072 227.233 4.05429 227.064 3.93848 226.97C3.8229 226.877 3.65345 226.894 3.55994 227.01L0.538453 230.743V223.208L6.26407 227.503C6.47929 227.663 6.74114 227.733 6.99995 227.734C7.2584 227.734 7.52046 227.663 7.73582 227.503L13.4614 223.208V230.742L10.44 227.01C10.3465 226.895 10.1769 226.877 10.0615 226.97C9.94571 227.064 9.92794 227.233 10.0215 227.349Z" fill="#F9B233"/>
</g>
<path d="M11.6435 78.1228L11.6152 78.0946L11.5869 78.1228L9.61152 80.0986C8.37293 80.0522 7.21518 79.5479 6.33388 78.6665C5.45314 77.7856 4.94895 76.6286 4.90214 75.3905L6.8786 73.4137L6.90688 73.3854L6.8786 73.3571L3.49374 69.9717L3.46546 69.9434L3.43717 69.9717L0.971713 72.4376L0.959997 72.4493L0.96 72.4659L0.960028 72.6416C0.960369 74.1217 1.24135 75.5646 1.7952 76.9302C2.36873 78.3443 3.21107 79.6129 4.2987 80.7007C5.38693 81.7892 6.65616 82.632 8.07096 83.2056C9.43649 83.7593 10.8792 84.04 12.359 84.04H12.3615L12.5371 84.04L12.5537 84.04L12.5654 84.0283L15.0283 81.5649L15.0566 81.5366L15.0283 81.5083L11.6435 78.1228ZM1.88989 72.832L3.46543 71.2562L5.5943 73.3854L3.9821 74.9979L3.97038 75.0096L3.97038 75.0262L3.97041 75.202C3.97075 76.7585 4.57711 78.2222 5.67759 79.3229C6.7785 80.424 8.24215 81.0304 9.79901 81.0303H9.80034L9.97594 81.0303L9.99251 81.0303L10.0042 81.0186L11.6151 79.4074L13.744 81.5366L12.1708 83.1101C10.877 83.0874 9.61592 82.8304 8.41966 82.3454C7.12067 81.8187 5.955 81.0445 4.95499 80.0443C3.95557 79.0447 3.18185 77.8796 2.65527 76.5813C2.17036 75.3856 1.91313 74.1253 1.88989 72.832Z" fill="#F9B233" stroke="black" stroke-width="0.08"/>
<path d="M10.4184 131.003C10.4184 132.384 9.29339 133.504 7.90566 133.504C6.51773 133.504 5.39294 132.384 5.39294 131.003C5.39294 129.621 6.51793 128.501 7.90566 128.501C9.29369 128.501 10.4184 129.621 10.4184 131.003ZM13.0254 131.003C13.0254 128.24 10.7756 126 7.99989 126C5.22443 126 2.97437 128.24 2.97437 131.003C2.97437 132.217 3.40978 133.331 4.13333 134.198L8.00424 139.757L11.9318 134.116C12.0728 133.941 12.202 133.756 12.3186 133.561L12.3583 133.504H12.3518C12.7795 132.768 13.0254 131.914 13.0254 131.003Z" fill="#F9B233"/>
<defs>
<clipPath id="clip0">
<rect width="14" height="14" fill="white" transform="translate(0 220)"/>
</clipPath>
</defs>
</svg>
