<svg width="418" height="136" viewBox="0 0 418 136" fill="none" xmlns="http://www.w3.org/2000/svg">
<g clip-path="url(#clip0)">
<path d="M217.001 58C211.487 58 207.001 62.4857 207.001 67.9997C207.001 73.5136 211.487 78 217.001 78C222.515 78 227 73.5139 227 67.9997C227 62.4857 222.515 58 217.001 58ZM221.328 65.9508L216.091 71.1881C215.934 71.3451 215.727 71.4244 215.521 71.4244C215.315 71.4244 215.109 71.3452 214.951 71.1881L212.674 68.9103C212.359 68.5951 212.359 68.0853 212.674 67.7705C212.989 67.4556 213.498 67.4556 213.813 67.7705L215.521 69.4791L220.19 64.8108C220.504 64.4963 221.014 64.4963 221.328 64.8108C221.643 65.1261 221.643 65.636 221.328 65.9508Z" fill="#45CB80"/>
</g>
<g clip-path="url(#clip1)">
<path d="M218.001 110C212.487 110 208.001 114.486 208.001 120C208.001 125.514 212.487 130 218.001 130C223.515 130 228 125.514 228 120C228 114.486 223.515 110 218.001 110ZM222.328 117.951L217.091 123.188C216.934 123.345 216.727 123.424 216.521 123.424C216.315 123.424 216.109 123.345 215.951 123.188L213.674 120.91C213.359 120.595 213.359 120.085 213.674 119.77C213.989 119.456 214.498 119.456 214.813 119.77L216.521 121.479L221.19 116.811C221.504 116.496 222.014 116.496 222.328 116.811C222.643 117.126 222.643 117.636 222.328 117.951Z" fill="#45CB80"/>
</g>
<g clip-path="url(#clip2)">
<path d="M10.0006 6C4.48728 6 0.000732422 10.4857 0.000732422 15.9997C0.000732422 21.5136 4.48699 26 10.0006 26C15.5151 26 20.0004 21.5139 20.0004 15.9997C20.0004 10.4857 15.5153 6 10.0006 6ZM14.3285 13.9508L9.0912 19.1881C8.93395 19.3451 8.72672 19.4244 8.52141 19.4244C8.31452 19.4244 8.10921 19.3452 7.95144 19.1881L5.67371 16.9103C5.3588 16.5951 5.3588 16.0853 5.67371 15.7705C5.98856 15.4556 6.49839 15.4556 6.8133 15.7705L8.52141 17.4791L13.1896 12.8108C13.5038 12.4963 14.0135 12.4963 14.3285 12.8108C14.6434 13.1261 14.6434 13.636 14.3285 13.9508Z" fill="#45CB80"/>
</g>
<path d="M29.024 20.668H33.416V22H27.386V9.454H29.024V20.668ZM43.9035 12.136V22H42.2655V20.542C41.9535 21.046 41.5155 21.442 40.9515 21.73C40.3995 22.006 39.7875 22.144 39.1155 22.144C38.3475 22.144 37.6575 21.988 37.0455 21.676C36.4335 21.352 35.9475 20.872 35.5875 20.236C35.2395 19.6 35.0655 18.826 35.0655 17.914V12.136H36.6855V17.698C36.6855 18.67 36.9315 19.42 37.4235 19.948C37.9155 20.464 38.5875 20.722 39.4395 20.722C40.3155 20.722 41.0055 20.452 41.5095 19.912C42.0135 19.372 42.2655 18.586 42.2655 17.554V12.136H43.9035ZM51.8172 22L49.4772 18.328L47.2272 22H45.5172L48.7032 17.104L45.5172 12.136H47.3712L49.7112 15.79L51.9432 12.136H53.6532L50.4852 17.014L53.6712 22H51.8172ZM64.0305 12.136V22H62.3925V20.542C62.0805 21.046 61.6425 21.442 61.0785 21.73C60.5265 22.006 59.9145 22.144 59.2425 22.144C58.4745 22.144 57.7845 21.988 57.1725 21.676C56.5605 21.352 56.0745 20.872 55.7145 20.236C55.3665 19.6 55.1925 18.826 55.1925 17.914V12.136H56.8125V17.698C56.8125 18.67 57.0585 19.42 57.5505 19.948C58.0425 20.464 58.7145 20.722 59.5665 20.722C60.4425 20.722 61.1325 20.452 61.6365 19.912C62.1405 19.372 62.3925 18.586 62.3925 17.554V12.136H64.0305ZM68.4342 13.738C68.7222 13.174 69.1302 12.736 69.6582 12.424C70.1982 12.112 70.8522 11.956 71.6202 11.956V13.648H71.1882C69.3522 13.648 68.4342 14.644 68.4342 16.636V22H66.7962V12.136H68.4342V13.738ZM82.007 12.136L76.067 26.644H74.375L76.319 21.892L72.341 12.136H74.159L77.255 20.128L80.315 12.136H82.007ZM87.8404 15.718C87.8404 14.494 88.1164 13.396 88.6684 12.424C89.2204 11.44 89.9704 10.672 90.9184 10.12C91.8784 9.568 92.9404 9.292 94.1044 9.292C95.4724 9.292 96.6664 9.622 97.6864 10.282C98.7064 10.942 99.4504 11.878 99.9184 13.09H97.9564C97.6084 12.334 97.1044 11.752 96.4444 11.344C95.7964 10.936 95.0164 10.732 94.1044 10.732C93.2284 10.732 92.4424 10.936 91.7464 11.344C91.0504 11.752 90.5044 12.334 90.1084 13.09C89.7124 13.834 89.5144 14.71 89.5144 15.718C89.5144 16.714 89.7124 17.59 90.1084 18.346C90.5044 19.09 91.0504 19.666 91.7464 20.074C92.4424 20.482 93.2284 20.686 94.1044 20.686C95.0164 20.686 95.7964 20.488 96.4444 20.092C97.1044 19.684 97.6084 19.102 97.9564 18.346H99.9184C99.4504 19.546 98.7064 20.476 97.6864 21.136C96.6664 21.784 95.4724 22.108 94.1044 22.108C92.9404 22.108 91.8784 21.838 90.9184 21.298C89.9704 20.746 89.2204 19.984 88.6684 19.012C88.1164 18.04 87.8404 16.942 87.8404 15.718ZM101.745 17.032C101.745 16.024 101.949 15.142 102.357 14.386C102.765 13.618 103.323 13.024 104.031 12.604C104.751 12.184 105.549 11.974 106.425 11.974C107.289 11.974 108.039 12.16 108.675 12.532C109.311 12.904 109.785 13.372 110.097 13.936V12.136H111.753V22H110.097V20.164C109.773 20.74 109.287 21.22 108.639 21.604C108.003 21.976 107.259 22.162 106.407 22.162C105.531 22.162 104.739 21.946 104.031 21.514C103.323 21.082 102.765 20.476 102.357 19.696C101.949 18.916 101.745 18.028 101.745 17.032ZM110.097 17.05C110.097 16.306 109.947 15.658 109.647 15.106C109.347 14.554 108.939 14.134 108.423 13.846C107.919 13.546 107.361 13.396 106.749 13.396C106.137 13.396 105.579 13.54 105.075 13.828C104.571 14.116 104.169 14.536 103.869 15.088C103.569 15.64 103.419 16.288 103.419 17.032C103.419 17.788 103.569 18.448 103.869 19.012C104.169 19.564 104.571 19.99 105.075 20.29C105.579 20.578 106.137 20.722 106.749 20.722C107.361 20.722 107.919 20.578 108.423 20.29C108.939 19.99 109.347 19.564 109.647 19.012C109.947 18.448 110.097 17.794 110.097 17.05ZM116.159 13.738C116.447 13.174 116.855 12.736 117.383 12.424C117.923 12.112 118.577 11.956 119.345 11.956V13.648H118.913C117.077 13.648 116.159 14.644 116.159 16.636V22H114.521V12.136H116.159V13.738ZM124.728 22.162C123.972 22.162 123.294 22.036 122.694 21.784C122.094 21.52 121.62 21.16 121.272 20.704C120.924 20.236 120.732 19.702 120.696 19.102H122.388C122.436 19.594 122.664 19.996 123.072 20.308C123.492 20.62 124.038 20.776 124.71 20.776C125.334 20.776 125.826 20.638 126.186 20.362C126.546 20.086 126.726 19.738 126.726 19.318C126.726 18.886 126.534 18.568 126.15 18.364C125.766 18.148 125.172 17.938 124.368 17.734C123.636 17.542 123.036 17.35 122.568 17.158C122.112 16.954 121.716 16.66 121.38 16.276C121.056 15.88 120.894 15.364 120.894 14.728C120.894 14.224 121.044 13.762 121.344 13.342C121.644 12.922 122.07 12.592 122.622 12.352C123.174 12.1 123.804 11.974 124.512 11.974C125.604 11.974 126.486 12.25 127.158 12.802C127.83 13.354 128.19 14.11 128.238 15.07H126.6C126.564 14.554 126.354 14.14 125.97 13.828C125.598 13.516 125.094 13.36 124.458 13.36C123.87 13.36 123.402 13.486 123.054 13.738C122.706 13.99 122.532 14.32 122.532 14.728C122.532 15.052 122.634 15.322 122.838 15.538C123.054 15.742 123.318 15.91 123.63 16.042C123.954 16.162 124.398 16.3 124.962 16.456C125.67 16.648 126.246 16.84 126.69 17.032C127.134 17.212 127.512 17.488 127.824 17.86C128.148 18.232 128.316 18.718 128.328 19.318C128.328 19.858 128.178 20.344 127.878 20.776C127.578 21.208 127.152 21.55 126.6 21.802C126.06 22.042 125.436 22.162 124.728 22.162Z" fill="black"/>
<g clip-path="url(#clip3)">
<path d="M216.001 6C210.487 6 206.001 10.4857 206.001 15.9997C206.001 21.5136 210.487 26 216.001 26C221.515 26 226 21.5139 226 15.9997C226 10.4857 221.515 6 216.001 6ZM220.328 13.9508L215.091 19.1881C214.934 19.3451 214.727 19.4244 214.521 19.4244C214.315 19.4244 214.109 19.3452 213.951 19.1881L211.674 16.9103C211.359 16.5951 211.359 16.0853 211.674 15.7705C211.989 15.4556 212.498 15.4556 212.813 15.7705L214.521 17.4791L219.19 12.8108C219.504 12.4963 220.014 12.4963 220.328 12.8108C220.643 13.1261 220.643 13.636 220.328 13.9508Z" fill="#45CB80"/>
</g>
<path d="M240.478 9.454V10.786H235.024V15.016H239.452V16.348H235.024V22H233.386V9.454H240.478ZM243.302 10.534C242.99 10.534 242.726 10.426 242.51 10.21C242.294 9.994 242.186 9.73 242.186 9.418C242.186 9.106 242.294 8.842 242.51 8.626C242.726 8.41 242.99 8.302 243.302 8.302C243.602 8.302 243.854 8.41 244.058 8.626C244.274 8.842 244.382 9.106 244.382 9.418C244.382 9.73 244.274 9.994 244.058 10.21C243.854 10.426 243.602 10.534 243.302 10.534ZM244.094 12.136V22H242.456V12.136H244.094ZM252.034 22L249.694 18.328L247.444 22H245.734L248.92 17.104L245.734 12.136H247.588L249.928 15.79L252.16 12.136H253.87L250.702 17.014L253.888 22H252.034ZM264.499 16.69C264.499 17.002 264.481 17.332 264.445 17.68H256.561C256.621 18.652 256.951 19.414 257.551 19.966C258.163 20.506 258.901 20.776 259.765 20.776C260.473 20.776 261.061 20.614 261.529 20.29C262.009 19.954 262.345 19.51 262.537 18.958H264.301C264.037 19.906 263.509 20.68 262.717 21.28C261.925 21.868 260.941 22.162 259.765 22.162C258.829 22.162 257.989 21.952 257.245 21.532C256.513 21.112 255.937 20.518 255.517 19.75C255.097 18.97 254.887 18.07 254.887 17.05C254.887 16.03 255.091 15.136 255.499 14.368C255.907 13.6 256.477 13.012 257.209 12.604C257.953 12.184 258.805 11.974 259.765 11.974C260.701 11.974 261.529 12.178 262.249 12.586C262.969 12.994 263.521 13.558 263.905 14.278C264.301 14.986 264.499 15.79 264.499 16.69ZM262.807 16.348C262.807 15.724 262.669 15.19 262.393 14.746C262.117 14.29 261.739 13.948 261.259 13.72C260.791 13.48 260.269 13.36 259.693 13.36C258.865 13.36 258.157 13.624 257.569 14.152C256.993 14.68 256.663 15.412 256.579 16.348H262.807ZM266.049 17.032C266.049 16.024 266.253 15.142 266.661 14.386C267.069 13.618 267.627 13.024 268.335 12.604C269.055 12.184 269.859 11.974 270.747 11.974C271.515 11.974 272.229 12.154 272.889 12.514C273.549 12.862 274.053 13.324 274.401 13.9V8.68H276.057V22H274.401V20.146C274.077 20.734 273.597 21.22 272.961 21.604C272.325 21.976 271.581 22.162 270.729 22.162C269.853 22.162 269.055 21.946 268.335 21.514C267.627 21.082 267.069 20.476 266.661 19.696C266.253 18.916 266.049 18.028 266.049 17.032ZM274.401 17.05C274.401 16.306 274.251 15.658 273.951 15.106C273.651 14.554 273.243 14.134 272.727 13.846C272.223 13.546 271.665 13.396 271.053 13.396C270.441 13.396 269.883 13.54 269.379 13.828C268.875 14.116 268.473 14.536 268.173 15.088C267.873 15.64 267.723 16.288 267.723 17.032C267.723 17.788 267.873 18.448 268.173 19.012C268.473 19.564 268.875 19.99 269.379 20.29C269.883 20.578 270.441 20.722 271.053 20.722C271.665 20.722 272.223 20.578 272.727 20.29C273.243 19.99 273.651 19.564 273.951 19.012C274.251 18.448 274.401 17.794 274.401 17.05ZM292.012 13.126C292.012 14.17 291.652 15.04 290.932 15.736C290.224 16.42 289.138 16.762 287.674 16.762H285.262V22H283.624V9.454H287.674C289.09 9.454 290.164 9.796 290.896 10.48C291.64 11.164 292.012 12.046 292.012 13.126ZM287.674 15.412C288.586 15.412 289.258 15.214 289.69 14.818C290.122 14.422 290.338 13.858 290.338 13.126C290.338 11.578 289.45 10.804 287.674 10.804H285.262V15.412H287.674ZM295.686 13.738C295.974 13.174 296.382 12.736 296.91 12.424C297.45 12.112 298.104 11.956 298.872 11.956V13.648H298.44C296.604 13.648 295.686 14.644 295.686 16.636V22H294.048V12.136H295.686V13.738ZM301.609 10.534C301.297 10.534 301.033 10.426 300.817 10.21C300.601 9.994 300.493 9.73 300.493 9.418C300.493 9.106 300.601 8.842 300.817 8.626C301.033 8.41 301.297 8.302 301.609 8.302C301.909 8.302 302.161 8.41 302.365 8.626C302.581 8.842 302.689 9.106 302.689 9.418C302.689 9.73 302.581 9.994 302.365 10.21C302.161 10.426 301.909 10.534 301.609 10.534ZM302.401 12.136V22H300.763V12.136H302.401ZM304.581 17.05C304.581 16.03 304.785 15.142 305.193 14.386C305.601 13.618 306.165 13.024 306.885 12.604C307.617 12.184 308.451 11.974 309.387 11.974C310.599 11.974 311.595 12.268 312.375 12.856C313.167 13.444 313.689 14.26 313.941 15.304H312.177C312.009 14.704 311.679 14.23 311.187 13.882C310.707 13.534 310.107 13.36 309.387 13.36C308.451 13.36 307.695 13.684 307.119 14.332C306.543 14.968 306.255 15.874 306.255 17.05C306.255 18.238 306.543 19.156 307.119 19.804C307.695 20.452 308.451 20.776 309.387 20.776C310.107 20.776 310.707 20.608 311.187 20.272C311.667 19.936 311.997 19.456 312.177 18.832H313.941C313.677 19.84 313.149 20.65 312.357 21.262C311.565 21.862 310.575 22.162 309.387 22.162C308.451 22.162 307.617 21.952 306.885 21.532C306.165 21.112 305.601 20.518 305.193 19.75C304.785 18.982 304.581 18.082 304.581 17.05ZM325.126 16.69C325.126 17.002 325.108 17.332 325.072 17.68H317.188C317.248 18.652 317.578 19.414 318.178 19.966C318.79 20.506 319.528 20.776 320.392 20.776C321.1 20.776 321.688 20.614 322.156 20.29C322.636 19.954 322.972 19.51 323.164 18.958H324.928C324.664 19.906 324.136 20.68 323.344 21.28C322.552 21.868 321.568 22.162 320.392 22.162C319.456 22.162 318.616 21.952 317.872 21.532C317.14 21.112 316.564 20.518 316.144 19.75C315.724 18.97 315.514 18.07 315.514 17.05C315.514 16.03 315.718 15.136 316.126 14.368C316.534 13.6 317.104 13.012 317.836 12.604C318.58 12.184 319.432 11.974 320.392 11.974C321.328 11.974 322.156 12.178 322.876 12.586C323.596 12.994 324.148 13.558 324.532 14.278C324.928 14.986 325.126 15.79 325.126 16.69ZM323.434 16.348C323.434 15.724 323.296 15.19 323.02 14.746C322.744 14.29 322.366 13.948 321.886 13.72C321.418 13.48 320.896 13.36 320.32 13.36C319.492 13.36 318.784 13.624 318.196 14.152C317.62 14.68 317.29 15.412 317.206 16.348H323.434Z" fill="black"/>
<g clip-path="url(#clip4)">
<path d="M11.0006 58C5.48728 58 1.00073 62.4857 1.00073 67.9997C1.00073 73.5136 5.48699 78 11.0006 78C16.5151 78 21.0004 73.5139 21.0004 67.9997C21.0004 62.4857 16.5153 58 11.0006 58ZM15.3285 65.9508L10.0912 71.1881C9.93395 71.3451 9.72672 71.4244 9.52141 71.4244C9.31452 71.4244 9.10921 71.3452 8.95144 71.1881L6.67371 68.9103C6.3588 68.5951 6.3588 68.0853 6.67371 67.7705C6.98856 67.4556 7.49839 67.4556 7.8133 67.7705L9.52141 69.4791L14.1896 64.8108C14.5038 64.4963 15.0135 64.4963 15.3285 64.8108C15.6434 65.1261 15.6434 65.636 15.3285 65.9508Z" fill="#45CB80"/>
</g>
<path d="M38.25 74H36.612L30.024 64.01V74H28.386V61.436H30.024L36.612 71.408V61.436H38.25V74ZM45.3443 74.162C44.4203 74.162 43.5803 73.952 42.8243 73.532C42.0803 73.112 41.4923 72.518 41.0603 71.75C40.6403 70.97 40.4303 70.07 40.4303 69.05C40.4303 68.042 40.6463 67.154 41.0783 66.386C41.5223 65.606 42.1223 65.012 42.8783 64.604C43.6343 64.184 44.4803 63.974 45.4163 63.974C46.3523 63.974 47.1983 64.184 47.9543 64.604C48.7103 65.012 49.3043 65.6 49.7363 66.368C50.1803 67.136 50.4023 68.03 50.4023 69.05C50.4023 70.07 50.1743 70.97 49.7183 71.75C49.2743 72.518 48.6683 73.112 47.9003 73.532C47.1323 73.952 46.2803 74.162 45.3443 74.162ZM45.3443 72.722C45.9323 72.722 46.4843 72.584 47.0003 72.308C47.5163 72.032 47.9303 71.618 48.2423 71.066C48.5663 70.514 48.7283 69.842 48.7283 69.05C48.7283 68.258 48.5723 67.586 48.2603 67.034C47.9483 66.482 47.5403 66.074 47.0363 65.81C46.5323 65.534 45.9863 65.396 45.3983 65.396C44.7983 65.396 44.2463 65.534 43.7423 65.81C43.2503 66.074 42.8543 66.482 42.5543 67.034C42.2543 67.586 42.1043 68.258 42.1043 69.05C42.1043 69.854 42.2483 70.532 42.5363 71.084C42.8363 71.636 43.2323 72.05 43.7243 72.326C44.2163 72.59 44.7563 72.722 45.3443 72.722ZM61.3688 65.486H59.2988V74H57.6608V65.486H56.3828V64.136H57.6608V63.434C57.6608 62.33 57.9428 61.526 58.5068 61.022C59.0828 60.506 60.0008 60.248 61.2607 60.248V61.616C60.5408 61.616 60.0308 61.76 59.7308 62.048C59.4428 62.324 59.2988 62.786 59.2988 63.434V64.136H61.3688V65.486ZM72.2786 68.69C72.2786 69.002 72.2606 69.332 72.2246 69.68H64.3406C64.4006 70.652 64.7306 71.414 65.3306 71.966C65.9426 72.506 66.6806 72.776 67.5446 72.776C68.2526 72.776 68.8406 72.614 69.3086 72.29C69.7886 71.954 70.1246 71.51 70.3166 70.958H72.0806C71.8166 71.906 71.2886 72.68 70.4966 73.28C69.7046 73.868 68.7206 74.162 67.5446 74.162C66.6086 74.162 65.7686 73.952 65.0246 73.532C64.2926 73.112 63.7166 72.518 63.2966 71.75C62.8766 70.97 62.6666 70.07 62.6666 69.05C62.6666 68.03 62.8706 67.136 63.2786 66.368C63.6866 65.6 64.2566 65.012 64.9886 64.604C65.7326 64.184 66.5846 63.974 67.5446 63.974C68.4806 63.974 69.3086 64.178 70.0286 64.586C70.7486 64.994 71.3006 65.558 71.6846 66.278C72.0806 66.986 72.2786 67.79 72.2786 68.69ZM70.5866 68.348C70.5866 67.724 70.4486 67.19 70.1726 66.746C69.8966 66.29 69.5186 65.948 69.0386 65.72C68.5706 65.48 68.0486 65.36 67.4726 65.36C66.6446 65.36 65.9366 65.624 65.3486 66.152C64.7726 66.68 64.4426 67.412 64.3586 68.348H70.5866ZM83.4407 68.69C83.4407 69.002 83.4227 69.332 83.3867 69.68H75.5027C75.5627 70.652 75.8927 71.414 76.4927 71.966C77.1047 72.506 77.8427 72.776 78.7067 72.776C79.4147 72.776 80.0027 72.614 80.4707 72.29C80.9507 71.954 81.2867 71.51 81.4787 70.958H83.2427C82.9787 71.906 82.4507 72.68 81.6587 73.28C80.8667 73.868 79.8827 74.162 78.7067 74.162C77.7707 74.162 76.9307 73.952 76.1867 73.532C75.4547 73.112 74.8787 72.518 74.4587 71.75C74.0387 70.97 73.8287 70.07 73.8287 69.05C73.8287 68.03 74.0327 67.136 74.4407 66.368C74.8487 65.6 75.4187 65.012 76.1507 64.604C76.8947 64.184 77.7467 63.974 78.7067 63.974C79.6427 63.974 80.4707 64.178 81.1907 64.586C81.9107 64.994 82.4627 65.558 82.8467 66.278C83.2427 66.986 83.4407 67.79 83.4407 68.69ZM81.7487 68.348C81.7487 67.724 81.6107 67.19 81.3347 66.746C81.0587 66.29 80.6807 65.948 80.2007 65.72C79.7327 65.48 79.2107 65.36 78.6347 65.36C77.8067 65.36 77.0987 65.624 76.5107 66.152C75.9347 66.68 75.6047 67.412 75.5207 68.348H81.7487Z" fill="black"/>
<path d="M243.89 65.09C243.542 64.358 243.038 63.794 242.378 63.398C241.718 62.99 240.95 62.786 240.074 62.786C239.198 62.786 238.406 62.99 237.698 63.398C237.002 63.794 236.45 64.37 236.042 65.126C235.646 65.87 235.448 66.734 235.448 67.718C235.448 68.702 235.646 69.566 236.042 70.31C236.45 71.054 237.002 71.63 237.698 72.038C238.406 72.434 239.198 72.632 240.074 72.632C241.298 72.632 242.306 72.266 243.098 71.534C243.89 70.802 244.352 69.812 244.484 68.564H239.48V67.232H246.23V68.492C246.134 69.524 245.81 70.472 245.258 71.336C244.706 72.188 243.98 72.866 243.08 73.37C242.18 73.862 241.178 74.108 240.074 74.108C238.91 74.108 237.848 73.838 236.888 73.298C235.928 72.746 235.166 71.984 234.602 71.012C234.05 70.04 233.774 68.942 233.774 67.718C233.774 66.494 234.05 65.396 234.602 64.424C235.166 63.44 235.928 62.678 236.888 62.138C237.848 61.586 238.91 61.31 240.074 61.31C241.406 61.31 242.582 61.64 243.602 62.3C244.634 62.96 245.384 63.89 245.852 65.09H243.89ZM252.698 74.162C251.774 74.162 250.934 73.952 250.178 73.532C249.434 73.112 248.846 72.518 248.414 71.75C247.994 70.97 247.784 70.07 247.784 69.05C247.784 68.042 248 67.154 248.432 66.386C248.876 65.606 249.476 65.012 250.232 64.604C250.988 64.184 251.834 63.974 252.77 63.974C253.706 63.974 254.552 64.184 255.308 64.604C256.064 65.012 256.658 65.6 257.09 66.368C257.534 67.136 257.756 68.03 257.756 69.05C257.756 70.07 257.528 70.97 257.072 71.75C256.628 72.518 256.022 73.112 255.254 73.532C254.486 73.952 253.634 74.162 252.698 74.162ZM252.698 72.722C253.286 72.722 253.838 72.584 254.354 72.308C254.87 72.032 255.284 71.618 255.596 71.066C255.92 70.514 256.082 69.842 256.082 69.05C256.082 68.258 255.926 67.586 255.614 67.034C255.302 66.482 254.894 66.074 254.39 65.81C253.886 65.534 253.34 65.396 252.752 65.396C252.152 65.396 251.6 65.534 251.096 65.81C250.604 66.074 250.208 66.482 249.908 67.034C249.608 67.586 249.458 68.258 249.458 69.05C249.458 69.854 249.602 70.532 249.89 71.084C250.19 71.636 250.586 72.05 251.078 72.326C251.57 72.59 252.11 72.722 252.698 72.722ZM264.211 74.162C263.287 74.162 262.447 73.952 261.691 73.532C260.947 73.112 260.359 72.518 259.927 71.75C259.507 70.97 259.297 70.07 259.297 69.05C259.297 68.042 259.513 67.154 259.945 66.386C260.389 65.606 260.989 65.012 261.745 64.604C262.501 64.184 263.347 63.974 264.283 63.974C265.219 63.974 266.065 64.184 266.821 64.604C267.577 65.012 268.171 65.6 268.603 66.368C269.047 67.136 269.269 68.03 269.269 69.05C269.269 70.07 269.041 70.97 268.585 71.75C268.141 72.518 267.535 73.112 266.767 73.532C265.999 73.952 265.147 74.162 264.211 74.162ZM264.211 72.722C264.799 72.722 265.351 72.584 265.867 72.308C266.383 72.032 266.797 71.618 267.109 71.066C267.433 70.514 267.595 69.842 267.595 69.05C267.595 68.258 267.439 67.586 267.127 67.034C266.815 66.482 266.407 66.074 265.903 65.81C265.399 65.534 264.853 65.396 264.265 65.396C263.665 65.396 263.113 65.534 262.609 65.81C262.117 66.074 261.721 66.482 261.421 67.034C261.121 67.586 260.971 68.258 260.971 69.05C260.971 69.854 261.115 70.532 261.403 71.084C261.703 71.636 262.099 72.05 262.591 72.326C263.083 72.59 263.623 72.722 264.211 72.722ZM270.811 69.032C270.811 68.024 271.015 67.142 271.423 66.386C271.831 65.618 272.389 65.024 273.097 64.604C273.817 64.184 274.621 63.974 275.509 63.974C276.277 63.974 276.991 64.154 277.651 64.514C278.311 64.862 278.815 65.324 279.163 65.9V60.68H280.819V74H279.163V72.146C278.839 72.734 278.359 73.22 277.723 73.604C277.087 73.976 276.343 74.162 275.491 74.162C274.615 74.162 273.817 73.946 273.097 73.514C272.389 73.082 271.831 72.476 271.423 71.696C271.015 70.916 270.811 70.028 270.811 69.032ZM279.163 69.05C279.163 68.306 279.013 67.658 278.713 67.106C278.413 66.554 278.005 66.134 277.489 65.846C276.985 65.546 276.427 65.396 275.815 65.396C275.203 65.396 274.645 65.54 274.141 65.828C273.637 66.116 273.235 66.536 272.935 67.088C272.635 67.64 272.485 68.288 272.485 69.032C272.485 69.788 272.635 70.448 272.935 71.012C273.235 71.564 273.637 71.99 274.141 72.29C274.645 72.578 275.203 72.722 275.815 72.722C276.427 72.722 276.985 72.578 277.489 72.29C278.005 71.99 278.413 71.564 278.713 71.012C279.013 70.448 279.163 69.794 279.163 69.05ZM295.802 71.21H290.33L289.322 74H287.594L292.13 61.526H294.02L298.538 74H296.81L295.802 71.21ZM295.334 69.878L293.066 63.542L290.798 69.878H295.334ZM302.153 65.954C302.477 65.39 302.957 64.922 303.593 64.55C304.241 64.166 304.991 63.974 305.843 63.974C306.719 63.974 307.511 64.184 308.219 64.604C308.939 65.024 309.503 65.618 309.911 66.386C310.319 67.142 310.523 68.024 310.523 69.032C310.523 70.028 310.319 70.916 309.911 71.696C309.503 72.476 308.939 73.082 308.219 73.514C307.511 73.946 306.719 74.162 305.843 74.162C305.003 74.162 304.259 73.976 303.611 73.604C302.975 73.22 302.489 72.746 302.153 72.182V78.68H300.515V64.136H302.153V65.954ZM308.849 69.032C308.849 68.288 308.699 67.64 308.399 67.088C308.099 66.536 307.691 66.116 307.175 65.828C306.671 65.54 306.113 65.396 305.501 65.396C304.901 65.396 304.343 65.546 303.827 65.846C303.323 66.134 302.915 66.56 302.603 67.124C302.303 67.676 302.153 68.318 302.153 69.05C302.153 69.794 302.303 70.448 302.603 71.012C302.915 71.564 303.323 71.99 303.827 72.29C304.343 72.578 304.901 72.722 305.501 72.722C306.113 72.722 306.671 72.578 307.175 72.29C307.691 71.99 308.099 71.564 308.399 71.012C308.699 70.448 308.849 69.788 308.849 69.032ZM314.317 65.954C314.641 65.39 315.121 64.922 315.757 64.55C316.405 64.166 317.155 63.974 318.007 63.974C318.883 63.974 319.675 64.184 320.383 64.604C321.103 65.024 321.667 65.618 322.075 66.386C322.483 67.142 322.687 68.024 322.687 69.032C322.687 70.028 322.483 70.916 322.075 71.696C321.667 72.476 321.103 73.082 320.383 73.514C319.675 73.946 318.883 74.162 318.007 74.162C317.167 74.162 316.423 73.976 315.775 73.604C315.139 73.22 314.653 72.746 314.317 72.182V78.68H312.679V64.136H314.317V65.954ZM321.013 69.032C321.013 68.288 320.863 67.64 320.563 67.088C320.263 66.536 319.855 66.116 319.339 65.828C318.835 65.54 318.277 65.396 317.665 65.396C317.065 65.396 316.507 65.546 315.991 65.846C315.487 66.134 315.079 66.56 314.767 67.124C314.467 67.676 314.317 68.318 314.317 69.05C314.317 69.794 314.467 70.448 314.767 71.012C315.079 71.564 315.487 71.99 315.991 72.29C316.507 72.578 317.065 72.722 317.665 72.722C318.277 72.722 318.835 72.578 319.339 72.29C319.855 71.99 320.263 71.564 320.563 71.012C320.863 70.448 321.013 69.788 321.013 69.032ZM326.481 60.68V74H324.843V60.68H326.481ZM330.119 62.534C329.807 62.534 329.543 62.426 329.327 62.21C329.111 61.994 329.003 61.73 329.003 61.418C329.003 61.106 329.111 60.842 329.327 60.626C329.543 60.41 329.807 60.302 330.119 60.302C330.419 60.302 330.671 60.41 330.875 60.626C331.091 60.842 331.199 61.106 331.199 61.418C331.199 61.73 331.091 61.994 330.875 62.21C330.671 62.426 330.419 62.534 330.119 62.534ZM330.911 64.136V74H329.273V64.136H330.911ZM333.09 69.05C333.09 68.03 333.294 67.142 333.702 66.386C334.11 65.618 334.674 65.024 335.394 64.604C336.126 64.184 336.96 63.974 337.896 63.974C339.108 63.974 340.104 64.268 340.884 64.856C341.676 65.444 342.198 66.26 342.45 67.304H340.686C340.518 66.704 340.188 66.23 339.696 65.882C339.216 65.534 338.616 65.36 337.896 65.36C336.96 65.36 336.204 65.684 335.628 66.332C335.052 66.968 334.764 67.874 334.764 69.05C334.764 70.238 335.052 71.156 335.628 71.804C336.204 72.452 336.96 72.776 337.896 72.776C338.616 72.776 339.216 72.608 339.696 72.272C340.176 71.936 340.506 71.456 340.686 70.832H342.45C342.186 71.84 341.658 72.65 340.866 73.262C340.074 73.862 339.084 74.162 337.896 74.162C336.96 74.162 336.126 73.952 335.394 73.532C334.674 73.112 334.11 72.518 333.702 71.75C333.294 70.982 333.09 70.082 333.09 69.05ZM344.024 69.032C344.024 68.024 344.228 67.142 344.636 66.386C345.044 65.618 345.602 65.024 346.31 64.604C347.03 64.184 347.828 63.974 348.704 63.974C349.568 63.974 350.318 64.16 350.954 64.532C351.59 64.904 352.064 65.372 352.376 65.936V64.136H354.032V74H352.376V72.164C352.052 72.74 351.566 73.22 350.918 73.604C350.282 73.976 349.538 74.162 348.686 74.162C347.81 74.162 347.018 73.946 346.31 73.514C345.602 73.082 345.044 72.476 344.636 71.696C344.228 70.916 344.024 70.028 344.024 69.032ZM352.376 69.05C352.376 68.306 352.226 67.658 351.926 67.106C351.626 66.554 351.218 66.134 350.702 65.846C350.198 65.546 349.64 65.396 349.028 65.396C348.416 65.396 347.858 65.54 347.354 65.828C346.85 66.116 346.448 66.536 346.148 67.088C345.848 67.64 345.698 68.288 345.698 69.032C345.698 69.788 345.848 70.448 346.148 71.012C346.448 71.564 346.85 71.99 347.354 72.29C347.858 72.578 348.416 72.722 349.028 72.722C349.64 72.722 350.198 72.578 350.702 72.29C351.218 71.99 351.626 71.564 351.926 71.012C352.226 70.448 352.376 69.794 352.376 69.05ZM358.798 65.486V71.3C358.798 71.78 358.9 72.122 359.104 72.326C359.308 72.518 359.662 72.614 360.166 72.614H361.372V74H359.896C358.984 74 358.3 73.79 357.844 73.37C357.388 72.95 357.16 72.26 357.16 71.3V65.486H355.882V64.136H357.16V61.652H358.798V64.136H361.372V65.486H358.798ZM364.203 62.534C363.891 62.534 363.627 62.426 363.411 62.21C363.195 61.994 363.087 61.73 363.087 61.418C363.087 61.106 363.195 60.842 363.411 60.626C363.627 60.41 363.891 60.302 364.203 60.302C364.503 60.302 364.755 60.41 364.959 60.626C365.175 60.842 365.283 61.106 365.283 61.418C365.283 61.73 365.175 61.994 364.959 62.21C364.755 62.426 364.503 62.534 364.203 62.534ZM364.995 64.136V74H363.357V64.136H364.995ZM372.088 74.162C371.164 74.162 370.324 73.952 369.568 73.532C368.824 73.112 368.236 72.518 367.804 71.75C367.384 70.97 367.174 70.07 367.174 69.05C367.174 68.042 367.39 67.154 367.822 66.386C368.266 65.606 368.866 65.012 369.622 64.604C370.378 64.184 371.224 63.974 372.16 63.974C373.096 63.974 373.942 64.184 374.698 64.604C375.454 65.012 376.048 65.6 376.48 66.368C376.924 67.136 377.146 68.03 377.146 69.05C377.146 70.07 376.918 70.97 376.462 71.75C376.018 72.518 375.412 73.112 374.644 73.532C373.876 73.952 373.024 74.162 372.088 74.162ZM372.088 72.722C372.676 72.722 373.228 72.584 373.744 72.308C374.26 72.032 374.674 71.618 374.986 71.066C375.31 70.514 375.472 69.842 375.472 69.05C375.472 68.258 375.316 67.586 375.004 67.034C374.692 66.482 374.284 66.074 373.78 65.81C373.276 65.534 372.73 65.396 372.142 65.396C371.542 65.396 370.99 65.534 370.486 65.81C369.994 66.074 369.598 66.482 369.298 67.034C368.998 67.586 368.848 68.258 368.848 69.05C368.848 69.854 368.992 70.532 369.28 71.084C369.58 71.636 369.976 72.05 370.468 72.326C370.96 72.59 371.5 72.722 372.088 72.722ZM384.106 63.956C385.306 63.956 386.278 64.322 387.022 65.054C387.766 65.774 388.138 66.818 388.138 68.186V74H386.518V68.42C386.518 67.436 386.272 66.686 385.78 66.17C385.288 65.642 384.616 65.378 383.764 65.378C382.9 65.378 382.21 65.648 381.694 66.188C381.19 66.728 380.938 67.514 380.938 68.546V74H379.3V64.136H380.938V65.54C381.262 65.036 381.7 64.646 382.252 64.37C382.816 64.094 383.434 63.956 384.106 63.956Z" fill="black"/>
<g clip-path="url(#clip5)">
<path d="M12.0006 110C6.48728 110 2.00073 114.486 2.00073 120C2.00073 125.514 6.48699 130 12.0006 130C17.5151 130 22.0004 125.514 22.0004 120C22.0004 114.486 17.5153 110 12.0006 110ZM16.3285 117.951L11.0912 123.188C10.934 123.345 10.7267 123.424 10.5214 123.424C10.3145 123.424 10.1092 123.345 9.95144 123.188L7.67371 120.91C7.3588 120.595 7.3588 120.085 7.67371 119.77C7.98856 119.456 8.49839 119.456 8.8133 119.77L10.5214 121.479L15.1896 116.811C15.5038 116.496 16.0135 116.496 16.3285 116.811C16.6434 117.126 16.6434 117.636 16.3285 117.951Z" fill="#45CB80"/>
</g>
<path d="M45.154 113.454L41.518 126H39.682L36.766 115.902L33.742 126L31.924 126.018L28.414 113.454H30.16L32.896 124.092L35.92 113.454H37.756L40.636 124.056L43.39 113.454H45.154ZM55.9465 120.69C55.9465 121.002 55.9285 121.332 55.8925 121.68H48.0085C48.0685 122.652 48.3985 123.414 48.9985 123.966C49.6105 124.506 50.3485 124.776 51.2125 124.776C51.9205 124.776 52.5085 124.614 52.9765 124.29C53.4565 123.954 53.7925 123.51 53.9845 122.958H55.7485C55.4845 123.906 54.9565 124.68 54.1645 125.28C53.3725 125.868 52.3885 126.162 51.2125 126.162C50.2765 126.162 49.4365 125.952 48.6925 125.532C47.9605 125.112 47.3845 124.518 46.9645 123.75C46.5445 122.97 46.3345 122.07 46.3345 121.05C46.3345 120.03 46.5385 119.136 46.9465 118.368C47.3545 117.6 47.9245 117.012 48.6565 116.604C49.4005 116.184 50.2525 115.974 51.2125 115.974C52.1485 115.974 52.9765 116.178 53.6965 116.586C54.4165 116.994 54.9685 117.558 55.3525 118.278C55.7485 118.986 55.9465 119.79 55.9465 120.69ZM54.2545 120.348C54.2545 119.724 54.1165 119.19 53.8405 118.746C53.5645 118.29 53.1865 117.948 52.7065 117.72C52.2385 117.48 51.7165 117.36 51.1405 117.36C50.3125 117.36 49.6045 117.624 49.0165 118.152C48.4405 118.68 48.1105 119.412 48.0265 120.348H54.2545ZM67.1087 120.69C67.1087 121.002 67.0907 121.332 67.0547 121.68H59.1707C59.2307 122.652 59.5607 123.414 60.1607 123.966C60.7727 124.506 61.5107 124.776 62.3747 124.776C63.0827 124.776 63.6707 124.614 64.1387 124.29C64.6187 123.954 64.9547 123.51 65.1467 122.958H66.9107C66.6467 123.906 66.1187 124.68 65.3267 125.28C64.5347 125.868 63.5507 126.162 62.3747 126.162C61.4387 126.162 60.5987 125.952 59.8547 125.532C59.1227 125.112 58.5467 124.518 58.1267 123.75C57.7067 122.97 57.4967 122.07 57.4967 121.05C57.4967 120.03 57.7007 119.136 58.1087 118.368C58.5167 117.6 59.0867 117.012 59.8187 116.604C60.5627 116.184 61.4147 115.974 62.3747 115.974C63.3107 115.974 64.1387 116.178 64.8587 116.586C65.5787 116.994 66.1307 117.558 66.5147 118.278C66.9107 118.986 67.1087 119.79 67.1087 120.69ZM65.4167 120.348C65.4167 119.724 65.2787 119.19 65.0027 118.746C64.7267 118.29 64.3487 117.948 63.8687 117.72C63.4007 117.48 62.8787 117.36 62.3027 117.36C61.4747 117.36 60.7667 117.624 60.1787 118.152C59.6027 118.68 59.2727 119.412 59.1887 120.348H65.4167ZM74.7788 126L70.9088 121.644V126H69.2708V112.68H70.9088V120.51L74.7068 116.136H76.9928L72.3488 121.05L77.0108 126H74.7788ZM80.1724 112.68V126H78.5344V112.68H80.1724ZM91.4601 116.136L85.5201 130.644H83.8281L85.7721 125.892L81.7941 116.136H83.6121L86.7081 124.128L89.7681 116.136H91.4601ZM106.294 117.126C106.294 118.17 105.934 119.04 105.214 119.736C104.506 120.42 103.42 120.762 101.956 120.762H99.5435V126H97.9055V113.454H101.956C103.372 113.454 104.446 113.796 105.178 114.48C105.922 115.164 106.294 116.046 106.294 117.126ZM101.956 119.412C102.868 119.412 103.54 119.214 103.972 118.818C104.404 118.422 104.62 117.858 104.62 117.126C104.62 115.578 103.732 114.804 101.956 114.804H99.5435V119.412H101.956ZM107.717 121.032C107.717 120.024 107.921 119.142 108.329 118.386C108.737 117.618 109.295 117.024 110.003 116.604C110.723 116.184 111.521 115.974 112.397 115.974C113.261 115.974 114.011 116.16 114.647 116.532C115.283 116.904 115.757 117.372 116.069 117.936V116.136H117.725V126H116.069V124.164C115.745 124.74 115.259 125.22 114.611 125.604C113.975 125.976 113.231 126.162 112.379 126.162C111.503 126.162 110.711 125.946 110.003 125.514C109.295 125.082 108.737 124.476 108.329 123.696C107.921 122.916 107.717 122.028 107.717 121.032ZM116.069 121.05C116.069 120.306 115.919 119.658 115.619 119.106C115.319 118.554 114.911 118.134 114.395 117.846C113.891 117.546 113.333 117.396 112.721 117.396C112.109 117.396 111.551 117.54 111.047 117.828C110.543 118.116 110.141 118.536 109.841 119.088C109.541 119.64 109.391 120.288 109.391 121.032C109.391 121.788 109.541 122.448 109.841 123.012C110.141 123.564 110.543 123.99 111.047 124.29C111.551 124.578 112.109 124.722 112.721 124.722C113.333 124.722 113.891 124.578 114.395 124.29C114.911 123.99 115.319 123.564 115.619 123.012C115.919 122.448 116.069 121.794 116.069 121.05ZM128.989 116.136L123.049 130.644H121.357L123.301 125.892L119.323 116.136H121.141L124.237 124.128L127.297 116.136H128.989ZM142.498 115.956C143.266 115.956 143.95 116.118 144.55 116.442C145.15 116.754 145.624 117.228 145.972 117.864C146.32 118.5 146.494 119.274 146.494 120.186V126H144.874V120.42C144.874 119.436 144.628 118.686 144.136 118.17C143.656 117.642 143.002 117.378 142.174 117.378C141.322 117.378 140.644 117.654 140.14 118.206C139.636 118.746 139.384 119.532 139.384 120.564V126H137.764V120.42C137.764 119.436 137.518 118.686 137.026 118.17C136.546 117.642 135.892 117.378 135.064 117.378C134.212 117.378 133.534 117.654 133.03 118.206C132.526 118.746 132.274 119.532 132.274 120.564V126H130.636V116.136H132.274V117.558C132.598 117.042 133.03 116.646 133.57 116.37C134.122 116.094 134.728 115.956 135.388 115.956C136.216 115.956 136.948 116.142 137.584 116.514C138.22 116.886 138.694 117.432 139.006 118.152C139.282 117.456 139.738 116.916 140.374 116.532C141.01 116.148 141.718 115.956 142.498 115.956ZM158.181 120.69C158.181 121.002 158.163 121.332 158.127 121.68H150.243C150.303 122.652 150.633 123.414 151.233 123.966C151.845 124.506 152.583 124.776 153.447 124.776C154.155 124.776 154.743 124.614 155.211 124.29C155.691 123.954 156.027 123.51 156.219 122.958H157.983C157.719 123.906 157.191 124.68 156.399 125.28C155.607 125.868 154.623 126.162 153.447 126.162C152.511 126.162 151.671 125.952 150.927 125.532C150.195 125.112 149.619 124.518 149.199 123.75C148.779 122.97 148.569 122.07 148.569 121.05C148.569 120.03 148.773 119.136 149.181 118.368C149.589 117.6 150.159 117.012 150.891 116.604C151.635 116.184 152.487 115.974 153.447 115.974C154.383 115.974 155.211 116.178 155.931 116.586C156.651 116.994 157.203 117.558 157.587 118.278C157.983 118.986 158.181 119.79 158.181 120.69ZM156.489 120.348C156.489 119.724 156.351 119.19 156.075 118.746C155.799 118.29 155.421 117.948 154.941 117.72C154.473 117.48 153.951 117.36 153.375 117.36C152.547 117.36 151.839 117.624 151.251 118.152C150.675 118.68 150.345 119.412 150.261 120.348H156.489ZM165.149 115.956C166.349 115.956 167.321 116.322 168.065 117.054C168.809 117.774 169.181 118.818 169.181 120.186V126H167.561V120.42C167.561 119.436 167.315 118.686 166.823 118.17C166.331 117.642 165.659 117.378 164.807 117.378C163.943 117.378 163.253 117.648 162.737 118.188C162.233 118.728 161.981 119.514 161.981 120.546V126H160.343V116.136H161.981V117.54C162.305 117.036 162.743 116.646 163.295 116.37C163.859 116.094 164.477 115.956 165.149 115.956ZM173.855 117.486V123.3C173.855 123.78 173.957 124.122 174.161 124.326C174.365 124.518 174.719 124.614 175.223 124.614H176.429V126H174.953C174.041 126 173.357 125.79 172.901 125.37C172.445 124.95 172.217 124.26 172.217 123.3V117.486H170.939V116.136H172.217V113.652H173.855V116.136H176.429V117.486H173.855Z" fill="black"/>
<path d="M239.364 126.126C238.536 126.126 237.792 125.982 237.132 125.694C236.484 125.394 235.974 124.986 235.602 124.47C235.23 123.942 235.038 123.336 235.026 122.652H236.772C236.832 123.24 237.072 123.738 237.492 124.146C237.924 124.542 238.548 124.74 239.364 124.74C240.144 124.74 240.756 124.548 241.2 124.164C241.656 123.768 241.884 123.264 241.884 122.652C241.884 122.172 241.752 121.782 241.488 121.482C241.224 121.182 240.894 120.954 240.498 120.798C240.102 120.642 239.568 120.474 238.896 120.294C238.068 120.078 237.402 119.862 236.898 119.646C236.406 119.43 235.98 119.094 235.62 118.638C235.272 118.17 235.098 117.546 235.098 116.766C235.098 116.082 235.272 115.476 235.62 114.948C235.968 114.42 236.454 114.012 237.078 113.724C237.714 113.436 238.44 113.292 239.256 113.292C240.432 113.292 241.392 113.586 242.136 114.174C242.892 114.762 243.318 115.542 243.414 116.514H241.614C241.554 116.034 241.302 115.614 240.858 115.254C240.414 114.882 239.826 114.696 239.094 114.696C238.41 114.696 237.852 114.876 237.42 115.236C236.988 115.584 236.772 116.076 236.772 116.712C236.772 117.168 236.898 117.54 237.15 117.828C237.414 118.116 237.732 118.338 238.104 118.494C238.488 118.638 239.022 118.806 239.706 118.998C240.534 119.226 241.2 119.454 241.704 119.682C242.208 119.898 242.64 120.24 243 120.708C243.36 121.164 243.54 121.788 243.54 122.58C243.54 123.192 243.378 123.768 243.054 124.308C242.73 124.848 242.25 125.286 241.614 125.622C240.978 125.958 240.228 126.126 239.364 126.126ZM247.948 117.486V123.3C247.948 123.78 248.05 124.122 248.254 124.326C248.458 124.518 248.812 124.614 249.316 124.614H250.522V126H249.046C248.134 126 247.45 125.79 246.994 125.37C246.538 124.95 246.31 124.26 246.31 123.3V117.486H245.032V116.136H246.31V113.652H247.948V116.136H250.522V117.486H247.948ZM251.895 121.032C251.895 120.024 252.099 119.142 252.507 118.386C252.915 117.618 253.473 117.024 254.181 116.604C254.901 116.184 255.699 115.974 256.575 115.974C257.439 115.974 258.189 116.16 258.825 116.532C259.461 116.904 259.935 117.372 260.247 117.936V116.136H261.903V126H260.247V124.164C259.923 124.74 259.437 125.22 258.789 125.604C258.153 125.976 257.409 126.162 256.557 126.162C255.681 126.162 254.889 125.946 254.181 125.514C253.473 125.082 252.915 124.476 252.507 123.696C252.099 122.916 251.895 122.028 251.895 121.032ZM260.247 121.05C260.247 120.306 260.097 119.658 259.797 119.106C259.497 118.554 259.089 118.134 258.573 117.846C258.069 117.546 257.511 117.396 256.899 117.396C256.287 117.396 255.729 117.54 255.225 117.828C254.721 118.116 254.319 118.536 254.019 119.088C253.719 119.64 253.569 120.288 253.569 121.032C253.569 121.788 253.719 122.448 254.019 123.012C254.319 123.564 254.721 123.99 255.225 124.29C255.729 124.578 256.287 124.722 256.899 124.722C257.511 124.722 258.069 124.578 258.573 124.29C259.089 123.99 259.497 123.564 259.797 123.012C260.097 122.448 260.247 121.794 260.247 121.05ZM266.309 117.972C266.645 117.384 267.137 116.904 267.785 116.532C268.433 116.16 269.171 115.974 269.999 115.974C270.887 115.974 271.685 116.184 272.393 116.604C273.101 117.024 273.659 117.618 274.067 118.386C274.475 119.142 274.679 120.024 274.679 121.032C274.679 122.028 274.475 122.916 274.067 123.696C273.659 124.476 273.095 125.082 272.375 125.514C271.667 125.946 270.875 126.162 269.999 126.162C269.147 126.162 268.397 125.976 267.749 125.604C267.113 125.232 266.633 124.758 266.309 124.182V126H264.671V112.68H266.309V117.972ZM273.005 121.032C273.005 120.288 272.855 119.64 272.555 119.088C272.255 118.536 271.847 118.116 271.331 117.828C270.827 117.54 270.269 117.396 269.657 117.396C269.057 117.396 268.499 117.546 267.983 117.846C267.479 118.134 267.071 118.56 266.759 119.124C266.459 119.676 266.309 120.318 266.309 121.05C266.309 121.794 266.459 122.448 266.759 123.012C267.071 123.564 267.479 123.99 267.983 124.29C268.499 124.578 269.057 124.722 269.657 124.722C270.269 124.722 270.827 124.578 271.331 124.29C271.847 123.99 272.255 123.564 272.555 123.012C272.855 122.448 273.005 121.788 273.005 121.032ZM278.473 112.68V126H276.835V112.68H278.473ZM290.265 120.69C290.265 121.002 290.247 121.332 290.211 121.68H282.327C282.387 122.652 282.717 123.414 283.317 123.966C283.929 124.506 284.667 124.776 285.531 124.776C286.239 124.776 286.827 124.614 287.295 124.29C287.775 123.954 288.111 123.51 288.303 122.958H290.067C289.803 123.906 289.275 124.68 288.483 125.28C287.691 125.868 286.707 126.162 285.531 126.162C284.595 126.162 283.755 125.952 283.011 125.532C282.279 125.112 281.703 124.518 281.283 123.75C280.863 122.97 280.653 122.07 280.653 121.05C280.653 120.03 280.857 119.136 281.265 118.368C281.673 117.6 282.243 117.012 282.975 116.604C283.719 116.184 284.571 115.974 285.531 115.974C286.467 115.974 287.295 116.178 288.015 116.586C288.735 116.994 289.287 117.558 289.671 118.278C290.067 118.986 290.265 119.79 290.265 120.69ZM288.573 120.348C288.573 119.724 288.435 119.19 288.159 118.746C287.883 118.29 287.505 117.948 287.025 117.72C286.557 117.48 286.035 117.36 285.459 117.36C284.631 117.36 283.923 117.624 283.335 118.152C282.759 118.68 282.429 119.412 282.345 120.348H288.573ZM301.528 126.162C300.604 126.162 299.764 125.952 299.008 125.532C298.264 125.112 297.676 124.518 297.244 123.75C296.824 122.97 296.614 122.07 296.614 121.05C296.614 120.042 296.83 119.154 297.262 118.386C297.706 117.606 298.306 117.012 299.062 116.604C299.818 116.184 300.664 115.974 301.6 115.974C302.536 115.974 303.382 116.184 304.138 116.604C304.894 117.012 305.488 117.6 305.92 118.368C306.364 119.136 306.586 120.03 306.586 121.05C306.586 122.07 306.358 122.97 305.902 123.75C305.458 124.518 304.852 125.112 304.084 125.532C303.316 125.952 302.464 126.162 301.528 126.162ZM301.528 124.722C302.116 124.722 302.668 124.584 303.184 124.308C303.7 124.032 304.114 123.618 304.426 123.066C304.75 122.514 304.912 121.842 304.912 121.05C304.912 120.258 304.756 119.586 304.444 119.034C304.132 118.482 303.724 118.074 303.22 117.81C302.716 117.534 302.17 117.396 301.582 117.396C300.982 117.396 300.43 117.534 299.926 117.81C299.434 118.074 299.038 118.482 298.738 119.034C298.438 119.586 298.288 120.258 298.288 121.05C298.288 121.854 298.432 122.532 298.72 123.084C299.02 123.636 299.416 124.05 299.908 124.326C300.4 124.59 300.94 124.722 301.528 124.722ZM310.378 117.738C310.666 117.174 311.074 116.736 311.602 116.424C312.142 116.112 312.796 115.956 313.564 115.956V117.648H313.132C311.296 117.648 310.378 118.644 310.378 120.636V126H308.74V116.136H310.378V117.738ZM314.842 121.032C314.842 120.024 315.046 119.142 315.454 118.386C315.862 117.618 316.42 117.024 317.128 116.604C317.848 116.184 318.652 115.974 319.54 115.974C320.308 115.974 321.022 116.154 321.682 116.514C322.342 116.862 322.846 117.324 323.194 117.9V112.68H324.85V126H323.194V124.146C322.87 124.734 322.39 125.22 321.754 125.604C321.118 125.976 320.374 126.162 319.522 126.162C318.646 126.162 317.848 125.946 317.128 125.514C316.42 125.082 315.862 124.476 315.454 123.696C315.046 122.916 314.842 122.028 314.842 121.032ZM323.194 121.05C323.194 120.306 323.044 119.658 322.744 119.106C322.444 118.554 322.036 118.134 321.52 117.846C321.016 117.546 320.458 117.396 319.846 117.396C319.234 117.396 318.676 117.54 318.172 117.828C317.668 118.116 317.266 118.536 316.966 119.088C316.666 119.64 316.516 120.288 316.516 121.032C316.516 121.788 316.666 122.448 316.966 123.012C317.266 123.564 317.668 123.99 318.172 124.29C318.676 124.578 319.234 124.722 319.846 124.722C320.458 124.722 321.016 124.578 321.52 124.29C322.036 123.99 322.444 123.564 322.744 123.012C323.044 122.448 323.194 121.794 323.194 121.05ZM336.618 120.69C336.618 121.002 336.6 121.332 336.564 121.68H328.68C328.74 122.652 329.07 123.414 329.67 123.966C330.282 124.506 331.02 124.776 331.884 124.776C332.592 124.776 333.18 124.614 333.648 124.29C334.128 123.954 334.464 123.51 334.656 122.958H336.42C336.156 123.906 335.628 124.68 334.836 125.28C334.044 125.868 333.06 126.162 331.884 126.162C330.948 126.162 330.108 125.952 329.364 125.532C328.632 125.112 328.056 124.518 327.636 123.75C327.216 122.97 327.006 122.07 327.006 121.05C327.006 120.03 327.21 119.136 327.618 118.368C328.026 117.6 328.596 117.012 329.328 116.604C330.072 116.184 330.924 115.974 331.884 115.974C332.82 115.974 333.648 116.178 334.368 116.586C335.088 116.994 335.64 117.558 336.024 118.278C336.42 118.986 336.618 119.79 336.618 120.69ZM334.926 120.348C334.926 119.724 334.788 119.19 334.512 118.746C334.236 118.29 333.858 117.948 333.378 117.72C332.91 117.48 332.388 117.36 331.812 117.36C330.984 117.36 330.276 117.624 329.688 118.152C329.112 118.68 328.782 119.412 328.698 120.348H334.926ZM340.419 117.738C340.707 117.174 341.115 116.736 341.643 116.424C342.183 116.112 342.837 115.956 343.605 115.956V117.648H343.173C341.337 117.648 340.419 118.644 340.419 120.636V126H338.781V116.136H340.419V117.738ZM348.987 126.162C348.231 126.162 347.553 126.036 346.953 125.784C346.353 125.52 345.879 125.16 345.531 124.704C345.183 124.236 344.991 123.702 344.955 123.102H346.647C346.695 123.594 346.923 123.996 347.331 124.308C347.751 124.62 348.297 124.776 348.969 124.776C349.593 124.776 350.085 124.638 350.445 124.362C350.805 124.086 350.985 123.738 350.985 123.318C350.985 122.886 350.793 122.568 350.409 122.364C350.025 122.148 349.431 121.938 348.627 121.734C347.895 121.542 347.295 121.35 346.827 121.158C346.371 120.954 345.975 120.66 345.639 120.276C345.315 119.88 345.153 119.364 345.153 118.728C345.153 118.224 345.303 117.762 345.603 117.342C345.903 116.922 346.329 116.592 346.881 116.352C347.433 116.1 348.063 115.974 348.771 115.974C349.863 115.974 350.745 116.25 351.417 116.802C352.089 117.354 352.449 118.11 352.497 119.07H350.859C350.823 118.554 350.613 118.14 350.229 117.828C349.857 117.516 349.353 117.36 348.717 117.36C348.129 117.36 347.661 117.486 347.313 117.738C346.965 117.99 346.791 118.32 346.791 118.728C346.791 119.052 346.893 119.322 347.097 119.538C347.313 119.742 347.577 119.91 347.889 120.042C348.213 120.162 348.657 120.3 349.221 120.456C349.929 120.648 350.505 120.84 350.949 121.032C351.393 121.212 351.771 121.488 352.083 121.86C352.407 122.232 352.575 122.718 352.587 123.318C352.587 123.858 352.437 124.344 352.137 124.776C351.837 125.208 351.411 125.55 350.859 125.802C350.319 126.042 349.695 126.162 348.987 126.162Z" fill="black"/>
<defs>
<clipPath id="clip0">
<rect width="20" height="20" fill="white" transform="translate(207 58)"/>
</clipPath>
<clipPath id="clip1">
<rect width="20" height="20" fill="white" transform="translate(208 110)"/>
</clipPath>
<clipPath id="clip2">
<rect width="20" height="20" fill="white" transform="translate(0 6)"/>
</clipPath>
<clipPath id="clip3">
<rect width="20" height="20" fill="white" transform="translate(206 6)"/>
</clipPath>
<clipPath id="clip4">
<rect width="20" height="20" fill="white" transform="translate(1 58)"/>
</clipPath>
<clipPath id="clip5">
<rect width="20" height="20" fill="white" transform="translate(2 110)"/>
</clipPath>
</defs>
</svg>
