<svg width="199" height="69" viewBox="0 0 199 69" fill="none" xmlns="http://www.w3.org/2000/svg">
<rect width="199" height="69" rx="10" fill="black"/>
<path d="M87.964 25.404H84.628L84.076 27H82.312L85.324 18.612H87.28L90.292 27H88.516L87.964 25.404ZM87.508 24.06L86.296 20.556L85.084 24.06H87.508ZM94.1898 25.452L95.8698 20.352H97.6578L95.1978 27H93.1578L90.7098 20.352H92.5098L94.1898 25.452ZM98.1694 23.652C98.1694 22.98 98.3014 22.384 98.5654 21.864C98.8374 21.344 99.2014 20.944 99.6574 20.664C100.121 20.384 100.637 20.244 101.205 20.244C101.701 20.244 102.133 20.344 102.501 20.544C102.877 20.744 103.177 20.996 103.401 21.3V20.352H105.093V27H103.401V26.028C103.185 26.34 102.885 26.6 102.501 26.808C102.125 27.008 101.689 27.108 101.193 27.108C100.633 27.108 100.121 26.964 99.6574 26.676C99.2014 26.388 98.8374 25.984 98.5654 25.464C98.3014 24.936 98.1694 24.332 98.1694 23.652ZM103.401 23.676C103.401 23.268 103.321 22.92 103.161 22.632C103.001 22.336 102.785 22.112 102.513 21.96C102.241 21.8 101.949 21.72 101.637 21.72C101.325 21.72 101.037 21.796 100.773 21.948C100.509 22.1 100.293 22.324 100.125 22.62C99.9654 22.908 99.8854 23.252 99.8854 23.652C99.8854 24.052 99.9654 24.404 100.125 24.708C100.293 25.004 100.509 25.232 100.773 25.392C101.045 25.552 101.333 25.632 101.637 25.632C101.949 25.632 102.241 25.556 102.513 25.404C102.785 25.244 103.001 25.02 103.161 24.732C103.321 24.436 103.401 24.084 103.401 23.676ZM107.586 19.56C107.29 19.56 107.042 19.468 106.842 19.284C106.65 19.092 106.554 18.856 106.554 18.576C106.554 18.296 106.65 18.064 106.842 17.88C107.042 17.688 107.29 17.592 107.586 17.592C107.882 17.592 108.126 17.688 108.318 17.88C108.518 18.064 108.618 18.296 108.618 18.576C108.618 18.856 108.518 19.092 108.318 19.284C108.126 19.468 107.882 19.56 107.586 19.56ZM108.414 20.352V27H106.734V20.352H108.414ZM111.754 18.12V27H110.074V18.12H111.754ZM112.982 23.652C112.982 22.98 113.114 22.384 113.378 21.864C113.65 21.344 114.014 20.944 114.47 20.664C114.934 20.384 115.45 20.244 116.018 20.244C116.514 20.244 116.946 20.344 117.314 20.544C117.69 20.744 117.99 20.996 118.214 21.3V20.352H119.906V27H118.214V26.028C117.998 26.34 117.698 26.6 117.314 26.808C116.938 27.008 116.502 27.108 116.006 27.108C115.446 27.108 114.934 26.964 114.47 26.676C114.014 26.388 113.65 25.984 113.378 25.464C113.114 24.936 112.982 24.332 112.982 23.652ZM118.214 23.676C118.214 23.268 118.134 22.92 117.974 22.632C117.814 22.336 117.598 22.112 117.326 21.96C117.054 21.8 116.762 21.72 116.45 21.72C116.138 21.72 115.85 21.796 115.586 21.948C115.322 22.1 115.106 22.324 114.938 22.62C114.778 22.908 114.698 23.252 114.698 23.652C114.698 24.052 114.778 24.404 114.938 24.708C115.106 25.004 115.322 25.232 115.586 25.392C115.858 25.552 116.146 25.632 116.45 25.632C116.762 25.632 117.054 25.556 117.326 25.404C117.598 25.244 117.814 25.02 117.974 24.732C118.134 24.436 118.214 24.084 118.214 23.676ZM123.227 21.324C123.443 21.004 123.739 20.744 124.115 20.544C124.499 20.344 124.935 20.244 125.423 20.244C125.991 20.244 126.503 20.384 126.959 20.664C127.423 20.944 127.787 21.344 128.051 21.864C128.323 22.376 128.459 22.972 128.459 23.652C128.459 24.332 128.323 24.936 128.051 25.464C127.787 25.984 127.423 26.388 126.959 26.676C126.503 26.964 125.991 27.108 125.423 27.108C124.927 27.108 124.491 27.012 124.115 26.82C123.747 26.62 123.451 26.364 123.227 26.052V27H121.547V18.12H123.227V21.324ZM126.743 23.652C126.743 23.252 126.659 22.908 126.491 22.62C126.331 22.324 126.115 22.1 125.843 21.948C125.579 21.796 125.291 21.72 124.979 21.72C124.675 21.72 124.387 21.8 124.115 21.96C123.851 22.112 123.635 22.336 123.467 22.632C123.307 22.928 123.227 23.276 123.227 23.676C123.227 24.076 123.307 24.424 123.467 24.72C123.635 25.016 123.851 25.244 124.115 25.404C124.387 25.556 124.675 25.632 124.979 25.632C125.291 25.632 125.579 25.552 125.843 25.392C126.115 25.232 126.331 25.004 126.491 24.708C126.659 24.412 126.743 24.06 126.743 23.652ZM131.36 18.12V27H129.68V18.12H131.36ZM139.199 23.532C139.199 23.772 139.183 23.988 139.151 24.18H134.291C134.331 24.66 134.499 25.036 134.795 25.308C135.091 25.58 135.455 25.716 135.887 25.716C136.511 25.716 136.955 25.448 137.219 24.912H139.031C138.839 25.552 138.471 26.08 137.927 26.496C137.383 26.904 136.715 27.108 135.923 27.108C135.283 27.108 134.707 26.968 134.195 26.688C133.691 26.4 133.295 25.996 133.007 25.476C132.727 24.956 132.587 24.356 132.587 23.676C132.587 22.988 132.727 22.384 133.007 21.864C133.287 21.344 133.679 20.944 134.183 20.664C134.687 20.384 135.267 20.244 135.923 20.244C136.555 20.244 137.119 20.38 137.615 20.652C138.119 20.924 138.507 21.312 138.779 21.816C139.059 22.312 139.199 22.884 139.199 23.532ZM137.459 23.052C137.451 22.62 137.295 22.276 136.991 22.02C136.687 21.756 136.315 21.624 135.875 21.624C135.459 21.624 135.107 21.752 134.819 22.008C134.539 22.256 134.367 22.604 134.303 23.052H137.459ZM146.237 27.108C145.597 27.108 145.021 26.968 144.509 26.688C143.997 26.4 143.593 25.996 143.297 25.476C143.009 24.956 142.865 24.356 142.865 23.676C142.865 22.996 143.013 22.396 143.309 21.876C143.613 21.356 144.025 20.956 144.545 20.676C145.065 20.388 145.645 20.244 146.285 20.244C146.925 20.244 147.505 20.388 148.025 20.676C148.545 20.956 148.953 21.356 149.249 21.876C149.553 22.396 149.705 22.996 149.705 23.676C149.705 24.356 149.549 24.956 149.237 25.476C148.933 25.996 148.517 26.4 147.989 26.688C147.469 26.968 146.885 27.108 146.237 27.108ZM146.237 25.644C146.541 25.644 146.825 25.572 147.089 25.428C147.361 25.276 147.577 25.052 147.737 24.756C147.897 24.46 147.977 24.1 147.977 23.676C147.977 23.044 147.809 22.56 147.473 22.224C147.145 21.88 146.741 21.708 146.261 21.708C145.781 21.708 145.377 21.88 145.049 22.224C144.729 22.56 144.569 23.044 144.569 23.676C144.569 24.308 144.725 24.796 145.037 25.14C145.357 25.476 145.757 25.644 146.237 25.644ZM154.621 20.256C155.413 20.256 156.053 20.508 156.541 21.012C157.029 21.508 157.273 22.204 157.273 23.1V27H155.593V23.328C155.593 22.8 155.461 22.396 155.197 22.116C154.933 21.828 154.573 21.684 154.117 21.684C153.653 21.684 153.285 21.828 153.013 22.116C152.749 22.396 152.617 22.8 152.617 23.328V27H150.937V20.352H152.617V21.18C152.841 20.892 153.125 20.668 153.469 20.508C153.821 20.34 154.205 20.256 154.621 20.256ZM89.952 52.872H85.504L84.768 55H82.416L86.432 43.816H89.04L93.056 55H90.688L89.952 52.872ZM89.344 51.08L87.728 46.408L86.112 51.08H89.344ZM96.7971 47.416C97.0851 47.0107 97.4798 46.6747 97.9811 46.408C98.4931 46.1307 99.0745 45.992 99.7251 45.992C100.482 45.992 101.165 46.1787 101.773 46.552C102.392 46.9253 102.877 47.4587 103.229 48.152C103.592 48.8347 103.773 49.6293 103.773 50.536C103.773 51.4427 103.592 52.248 103.229 52.952C102.877 53.6453 102.392 54.184 101.773 54.568C101.165 54.952 100.482 55.144 99.7251 55.144C99.0745 55.144 98.4985 55.0107 97.9971 54.744C97.5065 54.4773 97.1065 54.1413 96.7971 53.736V59.224H94.5571V46.136H96.7971V47.416ZM101.485 50.536C101.485 50.0027 101.373 49.544 101.149 49.16C100.936 48.7653 100.648 48.4667 100.285 48.264C99.9331 48.0613 99.5491 47.96 99.1331 47.96C98.7278 47.96 98.3438 48.0667 97.9811 48.28C97.6291 48.4827 97.3411 48.7813 97.1171 49.176C96.9038 49.5707 96.7971 50.0347 96.7971 50.568C96.7971 51.1013 96.9038 51.5653 97.1171 51.96C97.3411 52.3547 97.6291 52.6587 97.9811 52.872C98.3438 53.0747 98.7278 53.176 99.1331 53.176C99.5491 53.176 99.9331 53.0693 100.285 52.856C100.648 52.6427 100.936 52.3387 101.149 51.944C101.373 51.5493 101.485 51.08 101.485 50.536ZM107.641 47.416C107.929 47.0107 108.324 46.6747 108.825 46.408C109.337 46.1307 109.918 45.992 110.569 45.992C111.326 45.992 112.009 46.1787 112.617 46.552C113.236 46.9253 113.721 47.4587 114.073 48.152C114.436 48.8347 114.617 49.6293 114.617 50.536C114.617 51.4427 114.436 52.248 114.073 52.952C113.721 53.6453 113.236 54.184 112.617 54.568C112.009 54.952 111.326 55.144 110.569 55.144C109.918 55.144 109.342 55.0107 108.841 54.744C108.35 54.4773 107.95 54.1413 107.641 53.736V59.224H105.401V46.136H107.641V47.416ZM112.329 50.536C112.329 50.0027 112.217 49.544 111.993 49.16C111.78 48.7653 111.492 48.4667 111.129 48.264C110.777 48.0613 110.393 47.96 109.977 47.96C109.572 47.96 109.188 48.0667 108.825 48.28C108.473 48.4827 108.185 48.7813 107.961 49.176C107.748 49.5707 107.641 50.0347 107.641 50.568C107.641 51.1013 107.748 51.5653 107.961 51.96C108.185 52.3547 108.473 52.6587 108.825 52.872C109.188 53.0747 109.572 53.176 109.977 53.176C110.393 53.176 110.777 53.0693 111.129 52.856C111.492 52.6427 111.78 52.3387 111.993 51.944C112.217 51.5493 112.329 51.08 112.329 50.536ZM123.449 55.144C122.724 55.144 122.073 55.016 121.497 54.76C120.921 54.4933 120.462 54.136 120.121 53.688C119.79 53.24 119.609 52.744 119.577 52.2H121.833C121.876 52.5413 122.041 52.824 122.329 53.048C122.628 53.272 122.996 53.384 123.433 53.384C123.86 53.384 124.19 53.2987 124.425 53.128C124.67 52.9573 124.793 52.7387 124.793 52.472C124.793 52.184 124.644 51.9707 124.345 51.832C124.057 51.6827 123.593 51.5227 122.953 51.352C122.292 51.192 121.748 51.0267 121.321 50.856C120.905 50.6853 120.542 50.424 120.233 50.072C119.934 49.72 119.785 49.2453 119.785 48.648C119.785 48.1573 119.924 47.7093 120.201 47.304C120.489 46.8987 120.894 46.5787 121.417 46.344C121.95 46.1093 122.574 45.992 123.289 45.992C124.345 45.992 125.188 46.2587 125.817 46.792C126.446 47.3147 126.793 48.024 126.857 48.92H124.713C124.681 48.568 124.532 48.2907 124.265 48.088C124.009 47.8747 123.662 47.768 123.225 47.768C122.82 47.768 122.505 47.8427 122.281 47.992C122.068 48.1413 121.961 48.3493 121.961 48.616C121.961 48.9147 122.11 49.144 122.409 49.304C122.708 49.4533 123.172 49.608 123.801 49.768C124.441 49.928 124.969 50.0933 125.385 50.264C125.801 50.4347 126.158 50.7013 126.457 51.064C126.766 51.416 126.926 51.8853 126.937 52.472C126.937 52.984 126.793 53.4427 126.505 53.848C126.228 54.2533 125.822 54.5733 125.289 54.808C124.766 55.032 124.153 55.144 123.449 55.144ZM131.384 47.976V52.264C131.384 52.5627 131.453 52.7813 131.592 52.92C131.741 53.048 131.987 53.112 132.328 53.112H133.368V55H131.96C130.072 55 129.128 54.0827 129.128 52.248V47.976H128.072V46.136H129.128V43.944H131.384V46.136H133.368V47.976H131.384ZM138.915 55.144C138.062 55.144 137.294 54.9573 136.611 54.584C135.928 54.2 135.39 53.6613 134.995 52.968C134.611 52.2747 134.419 51.4747 134.419 50.568C134.419 49.6613 134.616 48.8613 135.011 48.168C135.416 47.4747 135.966 46.9413 136.659 46.568C137.352 46.184 138.126 45.992 138.979 45.992C139.832 45.992 140.606 46.184 141.299 46.568C141.992 46.9413 142.536 47.4747 142.931 48.168C143.336 48.8613 143.539 49.6613 143.539 50.568C143.539 51.4747 143.331 52.2747 142.915 52.968C142.51 53.6613 141.955 54.2 141.251 54.584C140.558 54.9573 139.779 55.144 138.915 55.144ZM138.915 53.192C139.32 53.192 139.699 53.096 140.051 52.904C140.414 52.7013 140.702 52.4027 140.915 52.008C141.128 51.6133 141.235 51.1333 141.235 50.568C141.235 49.7253 141.011 49.08 140.563 48.632C140.126 48.1733 139.587 47.944 138.947 47.944C138.307 47.944 137.768 48.1733 137.331 48.632C136.904 49.08 136.691 49.7253 136.691 50.568C136.691 51.4107 136.899 52.0613 137.315 52.52C137.742 52.968 138.275 53.192 138.915 53.192ZM147.422 47.512C147.71 47.0427 148.083 46.6747 148.542 46.408C149.011 46.1413 149.545 46.008 150.142 46.008V48.36H149.55C148.846 48.36 148.313 48.5253 147.95 48.856C147.598 49.1867 147.422 49.7627 147.422 50.584V55H145.182V46.136H147.422V47.512ZM159.891 50.376C159.891 50.696 159.87 50.984 159.827 51.24H153.347C153.4 51.88 153.624 52.3813 154.019 52.744C154.414 53.1067 154.899 53.288 155.475 53.288C156.307 53.288 156.899 52.9307 157.251 52.216H159.667C159.411 53.0693 158.92 53.7733 158.195 54.328C157.47 54.872 156.579 55.144 155.523 55.144C154.67 55.144 153.902 54.9573 153.219 54.584C152.547 54.2 152.019 53.6613 151.635 52.968C151.262 52.2747 151.075 51.4747 151.075 50.568C151.075 49.6507 151.262 48.8453 151.635 48.152C152.008 47.4587 152.531 46.9253 153.203 46.552C153.875 46.1787 154.648 45.992 155.523 45.992C156.366 45.992 157.118 46.1733 157.779 46.536C158.451 46.8987 158.968 47.416 159.331 48.088C159.704 48.7493 159.891 49.512 159.891 50.376ZM157.571 49.736C157.56 49.16 157.352 48.7013 156.947 48.36C156.542 48.008 156.046 47.832 155.459 47.832C154.904 47.832 154.435 48.0027 154.051 48.344C153.678 48.6747 153.448 49.1387 153.363 49.736H157.571Z" fill="white"/>
<path d="M57.244 36.8499C57.1899 31.4048 61.686 28.7898 61.8886 28.6623C59.3609 24.9651 55.4266 24.4588 54.0255 24.4019C50.6752 24.0607 47.49 26.3719 45.7906 26.3719C44.0953 26.3719 41.4748 24.4478 38.6947 24.499C35.0448 24.5559 31.6793 26.6202 29.801 29.8913C26.0081 36.4725 28.8286 46.2208 32.5256 51.5592C34.3332 54.1715 36.4862 57.1027 39.3122 56.9972C42.0381 56.8904 43.0675 55.2355 46.3596 55.2355C49.6489 55.2355 50.5756 56.9959 53.4554 56.9418C56.3839 56.889 58.243 54.2781 60.0366 51.6577C62.1091 48.6293 62.9624 45.6952 63.0151 45.5481C62.9499 45.5147 57.3036 43.3547 57.244 36.8499Z" fill="white"/>
<path d="M51.8295 20.8628C53.3277 19.0456 54.3433 16.5193 54.0671 14C51.9057 14.0873 49.2852 15.4357 47.7356 17.2545C46.3428 18.8637 45.1261 21.4385 45.4507 23.9052C47.866 24.0924 50.3257 22.6789 51.8295 20.8628Z" fill="white"/>
</svg>
