<svg width="209" height="75" viewBox="0 0 209 75" fill="none" xmlns="http://www.w3.org/2000/svg">
<rect width="199" height="69" rx="10" fill="black"/>
<path d="M80.66 17.144C80.468 16.792 80.204 16.524 79.868 16.34C79.532 16.156 79.14 16.064 78.692 16.064C78.196 16.064 77.756 16.176 77.372 16.4C76.988 16.624 76.688 16.944 76.472 17.36C76.256 17.776 76.148 18.256 76.148 18.8C76.148 19.36 76.256 19.848 76.472 20.264C76.696 20.68 77.004 21 77.396 21.224C77.788 21.448 78.244 21.56 78.764 21.56C79.404 21.56 79.928 21.392 80.336 21.056C80.744 20.712 81.012 20.236 81.14 19.628H78.26V18.344H82.796V19.808C82.684 20.392 82.444 20.932 82.076 21.428C81.708 21.924 81.232 22.324 80.648 22.628C80.072 22.924 79.424 23.072 78.704 23.072C77.896 23.072 77.164 22.892 76.508 22.532C75.86 22.164 75.348 21.656 74.972 21.008C74.604 20.36 74.42 19.624 74.42 18.8C74.42 17.976 74.604 17.24 74.972 16.592C75.348 15.936 75.86 15.428 76.508 15.068C77.164 14.7 77.892 14.516 78.692 14.516C79.636 14.516 80.456 14.748 81.152 15.212C81.848 15.668 82.328 16.312 82.592 17.144H80.66ZM90.2189 19.532C90.2189 19.772 90.2029 19.988 90.1709 20.18H85.3109C85.3509 20.66 85.5189 21.036 85.8149 21.308C86.1109 21.58 86.4749 21.716 86.9069 21.716C87.5309 21.716 87.9749 21.448 88.2389 20.912H90.0509C89.8589 21.552 89.4909 22.08 88.9469 22.496C88.4029 22.904 87.7349 23.108 86.9429 23.108C86.3029 23.108 85.7269 22.968 85.2149 22.688C84.7109 22.4 84.3149 21.996 84.0269 21.476C83.7469 20.956 83.6069 20.356 83.6069 19.676C83.6069 18.988 83.7469 18.384 84.0269 17.864C84.3069 17.344 84.6989 16.944 85.2029 16.664C85.7069 16.384 86.2869 16.244 86.9429 16.244C87.5749 16.244 88.1389 16.38 88.6349 16.652C89.1389 16.924 89.5269 17.312 89.7989 17.816C90.0789 18.312 90.2189 18.884 90.2189 19.532ZM88.4789 19.052C88.4709 18.62 88.3149 18.276 88.0109 18.02C87.7069 17.756 87.3349 17.624 86.8949 17.624C86.4789 17.624 86.1269 17.752 85.8389 18.008C85.5589 18.256 85.3869 18.604 85.3229 19.052H88.4789ZM93.4012 17.732V20.948C93.4012 21.172 93.4532 21.336 93.5572 21.44C93.6692 21.536 93.8532 21.584 94.1092 21.584H94.8892V23H93.8332C92.4172 23 91.7092 22.312 91.7092 20.936V17.732H90.9172V16.352H91.7092V14.708H93.4012V16.352H94.8892V17.732H93.4012ZM99.8089 15.56C99.5129 15.56 99.2649 15.468 99.0649 15.284C98.8729 15.092 98.7769 14.856 98.7769 14.576C98.7769 14.296 98.8729 14.064 99.0649 13.88C99.2649 13.688 99.5129 13.592 99.8089 13.592C100.105 13.592 100.349 13.688 100.541 13.88C100.741 14.064 100.841 14.296 100.841 14.576C100.841 14.856 100.741 15.092 100.541 15.284C100.349 15.468 100.105 15.56 99.8089 15.56ZM100.637 16.352V23H98.9569V16.352H100.637ZM104.253 17.732V20.948C104.253 21.172 104.305 21.336 104.409 21.44C104.521 21.536 104.705 21.584 104.961 21.584H105.741V23H104.685C103.269 23 102.561 22.312 102.561 20.936V17.732H101.769V16.352H102.561V14.708H104.253V16.352H105.741V17.732H104.253ZM113.696 23.084C112.912 23.084 112.192 22.9 111.536 22.532C110.88 22.164 110.36 21.656 109.976 21.008C109.592 20.352 109.4 19.612 109.4 18.788C109.4 17.972 109.592 17.24 109.976 16.592C110.36 15.936 110.88 15.424 111.536 15.056C112.192 14.688 112.912 14.504 113.696 14.504C114.488 14.504 115.208 14.688 115.856 15.056C116.512 15.424 117.028 15.936 117.404 16.592C117.788 17.24 117.98 17.972 117.98 18.788C117.98 19.612 117.788 20.352 117.404 21.008C117.028 21.656 116.512 22.164 115.856 22.532C115.2 22.9 114.48 23.084 113.696 23.084ZM113.696 21.584C114.2 21.584 114.644 21.472 115.028 21.248C115.412 21.016 115.712 20.688 115.928 20.264C116.144 19.84 116.252 19.348 116.252 18.788C116.252 18.228 116.144 17.74 115.928 17.324C115.712 16.9 115.412 16.576 115.028 16.352C114.644 16.128 114.2 16.016 113.696 16.016C113.192 16.016 112.744 16.128 112.352 16.352C111.968 16.576 111.668 16.9 111.452 17.324C111.236 17.74 111.128 18.228 111.128 18.788C111.128 19.348 111.236 19.84 111.452 20.264C111.668 20.688 111.968 21.016 112.352 21.248C112.744 21.472 113.192 21.584 113.696 21.584ZM122.914 16.256C123.706 16.256 124.346 16.508 124.834 17.012C125.322 17.508 125.566 18.204 125.566 19.1V23H123.886V19.328C123.886 18.8 123.754 18.396 123.49 18.116C123.226 17.828 122.866 17.684 122.41 17.684C121.946 17.684 121.578 17.828 121.306 18.116C121.042 18.396 120.91 18.8 120.91 19.328V23H119.23V16.352H120.91V17.18C121.134 16.892 121.418 16.668 121.762 16.508C122.114 16.34 122.498 16.256 122.914 16.256ZM82.88 43.192C82.624 42.7227 82.272 42.3653 81.824 42.12C81.376 41.8747 80.8533 41.752 80.256 41.752C79.5947 41.752 79.008 41.9013 78.496 42.2C77.984 42.4987 77.584 42.9253 77.296 43.48C77.008 44.0347 76.864 44.6747 76.864 45.4C76.864 46.1467 77.008 46.7973 77.296 47.352C77.5947 47.9067 78.0053 48.3333 78.528 48.632C79.0507 48.9307 79.6587 49.08 80.352 49.08C81.2053 49.08 81.904 48.856 82.448 48.408C82.992 47.9493 83.3493 47.3147 83.52 46.504H79.68V44.792H85.728V46.744C85.5787 47.5227 85.2587 48.2427 84.768 48.904C84.2773 49.5653 83.6427 50.0987 82.864 50.504C82.096 50.8987 81.232 51.096 80.272 51.096C79.1947 51.096 78.2187 50.856 77.344 50.376C76.48 49.8853 75.7973 49.208 75.296 48.344C74.8053 47.48 74.56 46.4987 74.56 45.4C74.56 44.3013 74.8053 43.32 75.296 42.456C75.7973 41.5813 76.48 40.904 77.344 40.424C78.2187 39.9333 79.1893 39.688 80.256 39.688C81.5147 39.688 82.608 39.9973 83.536 40.616C84.464 41.224 85.104 42.0827 85.456 43.192H82.88ZM91.3213 51.144C90.4679 51.144 89.6999 50.9573 89.0173 50.584C88.3346 50.2 87.7959 49.6613 87.4013 48.968C87.0173 48.2747 86.8253 47.4747 86.8253 46.568C86.8253 45.6613 87.0226 44.8613 87.4173 44.168C87.8226 43.4747 88.3719 42.9413 89.0653 42.568C89.7586 42.184 90.5319 41.992 91.3853 41.992C92.2386 41.992 93.0119 42.184 93.7053 42.568C94.3986 42.9413 94.9426 43.4747 95.3373 44.168C95.7426 44.8613 95.9453 45.6613 95.9453 46.568C95.9453 47.4747 95.7373 48.2747 95.3212 48.968C94.9159 49.6613 94.3613 50.2 93.6573 50.584C92.9639 50.9573 92.1853 51.144 91.3213 51.144ZM91.3213 49.192C91.7266 49.192 92.1053 49.096 92.4573 48.904C92.8199 48.7013 93.1079 48.4027 93.3213 48.008C93.5346 47.6133 93.6413 47.1333 93.6413 46.568C93.6413 45.7253 93.4173 45.08 92.9693 44.632C92.5319 44.1733 91.9933 43.944 91.3533 43.944C90.7133 43.944 90.1746 44.1733 89.7373 44.632C89.3106 45.08 89.0973 45.7253 89.0973 46.568C89.0973 47.4107 89.3053 48.0613 89.7213 48.52C90.1479 48.968 90.6813 49.192 91.3213 49.192ZM101.06 41.992C101.722 41.992 102.303 42.1253 102.804 42.392C103.306 42.648 103.7 42.984 103.988 43.4V42.136H106.244V51.064C106.244 51.8853 106.079 52.616 105.748 53.256C105.418 53.9067 104.922 54.4187 104.26 54.792C103.599 55.176 102.799 55.368 101.86 55.368C100.602 55.368 99.567 55.0747 98.7564 54.488C97.9564 53.9013 97.503 53.1013 97.3964 52.088H99.6204C99.7377 52.4933 99.9884 52.8133 100.372 53.048C100.767 53.2933 101.242 53.416 101.796 53.416C102.447 53.416 102.975 53.2187 103.38 52.824C103.786 52.44 103.988 51.8533 103.988 51.064V49.688C103.7 50.104 103.3 50.4507 102.788 50.728C102.287 51.0053 101.711 51.144 101.06 51.144C100.314 51.144 99.631 50.952 99.0124 50.568C98.3937 50.184 97.903 49.6453 97.5404 48.952C97.1884 48.248 97.0124 47.4427 97.0124 46.536C97.0124 45.64 97.1884 44.8453 97.5404 44.152C97.903 43.4587 98.3884 42.9253 98.9964 42.552C99.615 42.1787 100.303 41.992 101.06 41.992ZM103.988 46.568C103.988 46.024 103.882 45.56 103.668 45.176C103.455 44.7813 103.167 44.4827 102.804 44.28C102.442 44.0667 102.052 43.96 101.636 43.96C101.22 43.96 100.836 44.0613 100.484 44.264C100.132 44.4667 99.8444 44.7653 99.6204 45.16C99.407 45.544 99.3004 46.0027 99.3004 46.536C99.3004 47.0693 99.407 47.5387 99.6204 47.944C99.8444 48.3387 100.132 48.6427 100.484 48.856C100.847 49.0693 101.231 49.176 101.636 49.176C102.052 49.176 102.442 49.0747 102.804 48.872C103.167 48.6587 103.455 48.36 103.668 47.976C103.882 47.5813 103.988 47.112 103.988 46.568ZM111.904 41.992C112.565 41.992 113.147 42.1253 113.648 42.392C114.149 42.648 114.544 42.984 114.832 43.4V42.136H117.088V51.064C117.088 51.8853 116.923 52.616 116.592 53.256C116.261 53.9067 115.765 54.4187 115.104 54.792C114.443 55.176 113.643 55.368 112.704 55.368C111.445 55.368 110.411 55.0747 109.6 54.488C108.8 53.9013 108.347 53.1013 108.24 52.088H110.464C110.581 52.4933 110.832 52.8133 111.216 53.048C111.611 53.2933 112.085 53.416 112.64 53.416C113.291 53.416 113.819 53.2187 114.224 52.824C114.629 52.44 114.832 51.8533 114.832 51.064V49.688C114.544 50.104 114.144 50.4507 113.632 50.728C113.131 51.0053 112.555 51.144 111.904 51.144C111.157 51.144 110.475 50.952 109.856 50.568C109.237 50.184 108.747 49.6453 108.384 48.952C108.032 48.248 107.856 47.4427 107.856 46.536C107.856 45.64 108.032 44.8453 108.384 44.152C108.747 43.4587 109.232 42.9253 109.84 42.552C110.459 42.1787 111.147 41.992 111.904 41.992ZM114.832 46.568C114.832 46.024 114.725 45.56 114.512 45.176C114.299 44.7813 114.011 44.4827 113.648 44.28C113.285 44.0667 112.896 43.96 112.48 43.96C112.064 43.96 111.68 44.0613 111.328 44.264C110.976 44.4667 110.688 44.7653 110.464 45.16C110.251 45.544 110.144 46.0027 110.144 46.536C110.144 47.0693 110.251 47.5387 110.464 47.944C110.688 48.3387 110.976 48.6427 111.328 48.856C111.691 49.0693 112.075 49.176 112.48 49.176C112.896 49.176 113.285 49.0747 113.648 48.872C114.011 48.6587 114.299 48.36 114.512 47.976C114.725 47.5813 114.832 47.112 114.832 46.568ZM121.516 39.16V51H119.276V39.16H121.516ZM131.969 46.376C131.969 46.696 131.948 46.984 131.905 47.24H125.425C125.478 47.88 125.702 48.3813 126.097 48.744C126.492 49.1067 126.977 49.288 127.553 49.288C128.385 49.288 128.977 48.9307 129.329 48.216H131.745C131.489 49.0693 130.998 49.7733 130.273 50.328C129.548 50.872 128.657 51.144 127.601 51.144C126.748 51.144 125.98 50.9573 125.297 50.584C124.625 50.2 124.097 49.6613 123.713 48.968C123.34 48.2747 123.153 47.4747 123.153 46.568C123.153 45.6507 123.34 44.8453 123.713 44.152C124.086 43.4587 124.609 42.9253 125.281 42.552C125.953 42.1787 126.726 41.992 127.601 41.992C128.444 41.992 129.196 42.1733 129.857 42.536C130.529 42.8987 131.046 43.416 131.409 44.088C131.782 44.7493 131.969 45.512 131.969 46.376ZM129.649 45.736C129.638 45.16 129.43 44.7013 129.025 44.36C128.62 44.008 128.124 43.832 127.537 43.832C126.982 43.832 126.513 44.0027 126.129 44.344C125.756 44.6747 125.526 45.1387 125.441 45.736H129.649ZM145.561 43.288C145.561 43.8853 145.417 44.4453 145.128 44.968C144.851 45.4907 144.409 45.912 143.801 46.232C143.203 46.552 142.446 46.712 141.529 46.712H139.657V51H137.417V39.832H141.529C142.393 39.832 143.129 39.9813 143.737 40.28C144.345 40.5787 144.798 40.9893 145.097 41.512C145.406 42.0347 145.561 42.6267 145.561 43.288ZM141.433 44.904C142.051 44.904 142.51 44.7653 142.809 44.488C143.107 44.2 143.257 43.8 143.257 43.288C143.257 42.2 142.649 41.656 141.433 41.656H139.657V44.904H141.433ZM149.391 39.16V51H147.151V39.16H149.391ZM151.028 46.536C151.028 45.64 151.204 44.8453 151.556 44.152C151.919 43.4587 152.404 42.9253 153.012 42.552C153.631 42.1787 154.319 41.992 155.076 41.992C155.737 41.992 156.313 42.1253 156.804 42.392C157.305 42.6587 157.705 42.9947 158.004 43.4V42.136H160.26V51H158.004V49.704C157.716 50.12 157.316 50.4667 156.804 50.744C156.303 51.0107 155.721 51.144 155.06 51.144C154.313 51.144 153.631 50.952 153.012 50.568C152.404 50.184 151.919 49.6453 151.556 48.952C151.204 48.248 151.028 47.4427 151.028 46.536ZM158.004 46.568C158.004 46.024 157.897 45.56 157.684 45.176C157.471 44.7813 157.183 44.4827 156.82 44.28C156.457 44.0667 156.068 43.96 155.652 43.96C155.236 43.96 154.852 44.0613 154.5 44.264C154.148 44.4667 153.86 44.7653 153.636 45.16C153.423 45.544 153.316 46.0027 153.316 46.536C153.316 47.0693 153.423 47.5387 153.636 47.944C153.86 48.3387 154.148 48.6427 154.5 48.856C154.863 49.0693 155.247 49.176 155.652 49.176C156.068 49.176 156.457 49.0747 156.82 48.872C157.183 48.6587 157.471 48.36 157.684 47.976C157.897 47.5813 158.004 47.112 158.004 46.568ZM170.928 42.136L165.44 55.192H163.056L164.976 50.776L161.424 42.136H163.936L166.224 48.328L168.544 42.136H170.928Z" fill="white"/>
<path d="M29.614 17.3181C29.252 17.5901 29.0004 18.009 29 18.4922V51.4997C29 51.9899 29.2519 52.4055 29.6167 52.6794L48.1236 35.0001L29.614 17.3181Z" fill="#29B6F6"/>
<path d="M29.614 17.3181C29.252 17.5901 29.0004 18.009 29 18.4922V51.4997C29 51.9899 29.2519 52.4055 29.6167 52.6794L48.1236 35.0001L29.614 17.3181Z" fill="url(#paint0_linear)"/>
<path d="M53.8241 29.5543C46.2387 25.341 36.816 20.1793 31.1949 17.1721C30.6466 16.8797 30.049 16.9909 29.6138 17.3181L48.1234 35.0001L53.8241 29.5543Z" fill="#00E676"/>
<path d="M53.8241 29.5543C46.2387 25.341 36.816 20.1793 31.1949 17.1721C30.6466 16.8797 30.049 16.9909 29.6138 17.3181L48.1234 35.0001L53.8241 29.5543Z" fill="url(#paint1_linear)"/>
<path d="M29.6167 52.6795C29.8674 52.8678 30.1632 53.0001 30.5 53.0001C30.7373 53.0001 30.9709 52.9393 31.1943 52.8199C36.8148 49.8134 46.2347 44.6534 53.819 40.4408L48.1236 35.0001L29.6167 52.6795Z" fill="#F44336"/>
<path d="M29.6167 52.6795C29.8674 52.8678 30.1632 53.0001 30.5 53.0001C30.7373 53.0001 30.9709 52.9393 31.1943 52.8199C36.8148 49.8134 46.2347 44.6534 53.819 40.4408L48.1236 35.0001L29.6167 52.6795Z" fill="url(#paint2_linear)"/>
<path d="M61.2365 33.7028C59.2176 32.5598 56.6439 31.1206 53.8239 29.5542L48.1233 34.9999L53.8187 40.4406C56.6408 38.8733 59.2163 37.4331 61.2365 36.2896C61.7074 36.0229 61.9997 35.5276 61.9997 34.9958C61.9997 34.464 61.7074 33.9687 61.2365 33.7028Z" fill="#FFEA00"/>
<path d="M61.2365 33.7028C59.2176 32.5598 56.6439 31.1206 53.8239 29.5542L48.1233 34.9999L53.8187 40.4406C56.6408 38.8733 59.2163 37.4331 61.2365 36.2896C61.7074 36.0229 61.9997 35.5276 61.9997 34.9958C61.9997 34.464 61.7074 33.9687 61.2365 33.7028Z" fill="url(#paint3_linear)"/>
<path opacity="0.2" d="M31.0877 17.5471C38.8564 21.6723 53.8492 29.8604 61.3544 34.078C61.6284 34.2315 61.8325 34.4662 61.9644 34.7357C61.8855 34.3075 61.6287 33.9243 61.2366 33.703C53.7871 29.4854 38.9058 21.2973 31.1949 17.1721C30.2727 16.6803 29.2053 17.3111 29.0347 18.2411C29.3868 17.5314 30.2909 17.1252 31.0877 17.5471Z" fill="white"/>
<path opacity="0.1" d="M31.0877 52.453C38.8564 48.3278 53.8492 40.1397 61.3544 35.9221C61.6284 35.7686 61.8325 35.5339 61.9644 35.2644C61.8855 35.6926 61.6287 36.0757 61.2366 36.2971C53.7871 40.5147 38.9058 48.7028 31.1949 52.828C30.2727 53.3198 29.2053 52.689 29.0347 51.759C29.3868 52.4687 30.2909 52.8748 31.0877 52.453Z" fill="black"/>
<path d="M61.2368 33.7013C59.2179 32.5582 36.8162 20.1766 31.1951 17.1692C30.6468 16.8767 30.0492 16.988 29.614 17.3152C29.252 17.5872 29.0004 18.0061 29 18.4894V51.4995C29 51.9897 29.2519 52.4054 29.6167 52.6794C29.8674 52.8677 30.1632 53 30.5 53C30.7373 53 30.9709 52.9392 31.1943 52.8197C36.8148 49.813 59.2166 37.432 61.2368 36.2883C61.7078 36.0217 62 35.5263 62 34.9944C62 34.4626 61.7078 33.9672 61.2368 33.7013Z" fill="url(#paint4_linear)"/>
<defs>
<linearGradient id="paint0_linear" x1="38.5618" y1="20.1394" x2="38.5618" y2="44.0049" gradientUnits="userSpaceOnUse">
<stop stop-color="#00B8D4" stop-opacity="0"/>
<stop offset="1" stop-color="white" stop-opacity="0.3"/>
</linearGradient>
<linearGradient id="paint1_linear" x1="28.0501" y1="20.6715" x2="52.623" y2="32.13" gradientUnits="userSpaceOnUse">
<stop stop-color="white" stop-opacity="0.2"/>
<stop offset="1" stop-color="white" stop-opacity="0"/>
</linearGradient>
<linearGradient id="paint2_linear" x1="38.727" y1="43.5693" x2="44.7088" y2="49.5511" gradientUnits="userSpaceOnUse">
<stop stop-opacity="0.1"/>
<stop offset="1" stop-opacity="0"/>
</linearGradient>
<linearGradient id="paint3_linear" x1="51.7455" y1="31.3777" x2="58.986" y2="38.6182" gradientUnits="userSpaceOnUse">
<stop stop-opacity="0.05"/>
<stop offset="1" stop-opacity="0"/>
</linearGradient>
<linearGradient id="paint4_linear" x1="22.8313" y1="31.413" x2="56.4998" y2="47.1129" gradientUnits="userSpaceOnUse">
<stop stop-color="white" stop-opacity="0.2"/>
<stop offset="1" stop-color="white" stop-opacity="0"/>
</linearGradient>
</defs>
</svg>
