<svg width="99" height="41" viewBox="0 0 99 41" fill="none" xmlns="http://www.w3.org/2000/svg">
<path d="M43.1136 0.00205633C43.2784 0.24171 43.4579 0.341745 43.6705 0.41574C44.3618 0.65632 44.9958 0.767139 45.8052 0.866471C47.0421 1.01828 48.3742 1.26898 49.5919 1.5333C51.1497 1.87142 52.6783 2.32897 54.1955 2.81758C55.5698 3.26021 56.9273 3.75812 58.2607 4.31178C59.5291 4.83848 60.7739 5.43052 61.9979 6.05296C63.0406 6.58315 64.0626 7.15155 65.067 7.75091C66.0977 8.36603 67.1102 9.01547 68.0988 9.69585C69.2308 10.4748 70.325 11.2988 71.4154 12.1347C72.0475 12.6194 72.6852 13.1038 73.284 13.6289C73.6882 13.9834 73.6492 14.0397 74.175 14.3946C74.578 14.6665 75.0701 14.6277 75.5239 14.4131C75.9777 14.1985 76.7304 13.7524 76.7304 13.7524C76.7304 13.7524 75.8267 13.0784 75.1155 12.5855C75.1285 12.5875 75.1467 12.5962 75.1588 12.5978C75.6108 12.66 76.1925 12.4918 76.6438 12.4249C76.9178 12.3843 77.2026 12.3725 77.4791 12.3879C78.0808 12.4214 78.67 12.5611 79.2611 12.6781C82.1738 13.2547 85.0849 13.8754 87.9361 14.7033C89.9901 15.2997 92.0232 15.9839 93.9936 16.8149C94.6489 17.0913 95.3131 17.3699 95.8994 17.7719C96.44 18.1427 96.9451 18.5809 97.3535 19.0933C97.739 19.577 98.0052 20.1519 98.2692 20.711C98.5156 21.2327 98.7737 21.7571 98.888 22.3225C99.0658 23.2024 98.98 24.1169 98.9746 25.0145C98.9688 25.9816 98.9397 26.954 98.8447 27.9165C98.7472 28.9034 98.6033 29.7597 98.56 30.7505C98.551 30.9578 98.5545 31.2963 98.6405 31.4853C98.7051 31.6275 98.7189 31.6569 98.7642 31.8063C98.8051 31.9411 98.7392 32.0906 98.6838 32.22C98.551 32.5299 98.3409 32.8091 98.1022 33.0474C97.9828 33.1665 97.8102 33.2218 97.6876 33.3376C97.5087 33.5065 97.4049 33.7452 97.2297 33.918C96.8578 34.2847 96.4501 34.6283 95.986 34.8688C95.3299 35.2089 94.5912 35.3734 93.8699 35.5357C93.0932 35.7104 92.2936 35.7977 91.5001 35.8629C90.9485 35.9083 90.4801 35.9675 89.8418 35.9061C89.3853 35.8976 89.4578 35.9016 89.0436 35.8938C89.3819 34.9263 89.5696 33.883 89.5696 32.8004C89.5696 27.6225 85.3596 23.4277 80.1707 23.4277C74.9818 23.4277 70.778 27.6225 70.778 32.8004C70.778 33.7541 70.9212 34.6748 71.1864 35.5418C70.8897 35.5368 70.947 35.5411 70.6295 35.5357C50.0115 35.2851 39.3659 34.9403 23.7343 34.7083C23.4596 34.7042 23.1946 34.6953 22.9237 34.6898C23.0842 34.003 23.1712 33.289 23.1712 32.5534C23.1712 27.3755 18.9675 23.1807 13.7785 23.1807C8.58962 23.1807 4.37968 27.3755 4.37968 32.5534C4.37968 32.8771 4.39711 33.1953 4.42918 33.5105C4.14603 33.4619 3.87305 33.3752 3.61243 33.2573C3.06731 33.0108 2.57789 32.6419 2.11505 32.2632C1.61581 31.8548 1.1639 31.391 0.747604 30.8987C0.485252 30.5884 0.149841 30.2961 0.0422287 29.9046C-0.0935974 29.4105 0.139381 29.5231 0.165977 28.3672C0.207893 26.5452 0.164246 24.7211 0.289726 22.9029C0.3395 22.182 0.353806 21.3613 0.537231 20.748C0.601624 20.5327 0.807991 20.322 0.95179 20.1491C1.0843 19.9898 1.34455 19.9598 1.36636 19.7539C1.44928 18.9709 1.4581 18.1528 1.4963 17.3521C1.52094 16.8354 1.49133 16.3171 1.53342 15.8023C1.53853 15.8369 1.54764 15.8734 1.55817 15.9073C1.61066 16.0761 1.80327 16.1647 1.88611 16.321C1.97409 16.4869 2.02169 16.673 2.05318 16.8581C2.11455 17.219 2.11279 17.5915 2.09649 17.9572C2.07946 18.3395 1.97771 18.7118 1.94798 19.0933C1.92921 19.3342 1.83092 19.6011 1.92942 19.8218C2.00327 19.9873 2.17617 20.1047 2.34399 20.1738C2.67105 20.3085 3.05099 20.298 3.40205 20.2541C3.76447 20.2087 4.1282 20.0894 4.44156 19.9021C5.05869 19.5333 5.51369 18.9431 6.01938 18.4326C6.8488 17.5953 7.68945 16.7596 8.40157 15.8208C8.58344 15.5811 8.82656 15.3515 8.87801 15.0552C8.92273 14.7978 8.8686 14.5027 8.71714 14.2896C8.42616 13.8802 7.88371 13.7223 7.43014 13.5054C6.89351 13.2489 6.32781 13.03 5.74712 12.9004C5.32671 12.8065 4.89093 12.7797 4.46012 12.7769C4.04372 12.7741 3.61692 12.768 3.21643 12.8818C2.85052 12.9858 2.47114 13.1325 2.20168 13.4005C2.16588 13.4361 2.13195 13.477 2.10268 13.5178C2.36874 12.8871 2.76756 12.3316 3.16074 11.7704C3.23686 11.7426 4.10302 11.422 4.58387 11.3074C4.93115 11.2246 5.58006 11.2271 5.58006 11.2271C5.58006 11.2271 6.41957 10.0128 6.88564 9.4427C7.45203 8.74982 8.05057 8.08468 8.69239 7.46072C9.39146 6.7811 10.1327 6.13688 10.9137 5.55283C11.6859 4.97539 13.3392 3.97836 13.3392 3.97836L11.978 3.30535C12.1805 3.08185 11.9019 2.50245 12.1141 2.24336C12.275 2.04685 12.5442 2.04681 12.8813 2.0396C13.7942 2.02008 14.6495 1.97078 15.5605 1.90994C16.7281 1.83198 17.884 1.64883 19.0441 1.49626C20.1942 1.34501 21.3374 1.1224 22.4906 0.996133C24.8761 0.734928 27.2711 0.573925 29.6681 0.458961C32.2939 0.333025 34.9297 0.375234 37.5572 0.292253C38.5397 0.261223 39.5208 0.220067 40.5025 0.168765C41.3744 0.123197 42.2409 -0.0186817 43.1136 0.00205633ZM36.2702 2.34215C36.2702 2.34215 34.3474 2.34495 33.3868 2.38537C32.0014 2.44366 30.6162 2.55305 29.235 2.67557C27.8214 2.80095 26.4077 2.93312 25.0027 3.13247C23.9805 3.27751 22.9166 3.45842 21.9523 3.66964C21.7212 3.72026 21.398 3.86594 21.3892 4.10185C21.3347 5.55328 21.3258 6.93483 21.3088 8.34983C21.2905 9.86119 21.2902 12.8818 21.2902 12.8818C21.2902 12.8818 26.4218 12.9227 28.9875 12.9683C31.7752 13.0178 37.3468 13.172 37.3468 13.172L36.2702 2.34215ZM40.7933 2.36685C40.7933 2.36685 41.4534 6.02125 41.8699 7.83118C42.3084 9.73683 43.3673 13.5054 43.3673 13.5054C43.3673 13.5054 46.4375 13.6365 47.9708 13.7524C50.8118 13.9672 53.6477 14.2586 56.4787 14.5798C57.5458 14.7009 59.5106 14.8515 59.5106 14.8515C59.5106 14.8515 59.5006 14.0745 59.6096 13.7092C59.719 13.3423 60.1479 12.6966 60.1479 12.6966L58.5144 6.13322C58.5144 6.13322 56.6762 5.33594 55.73 5.01566C54.2616 4.51868 52.7587 4.13231 51.2502 3.77461C49.7273 3.41349 48.1885 3.09235 46.6405 2.8608C45.4304 2.67979 44.2096 2.58698 42.9899 2.49034C42.2579 2.43234 40.7933 2.36685 40.7933 2.36685ZM18.9018 4.45379C18.9018 4.45379 17.557 4.77882 16.9094 5.01566C16.0028 5.34724 15.1069 5.72665 14.2735 6.21349C13.2313 6.82236 12.2547 7.55514 11.3468 8.34983C10.729 8.89063 10.0812 9.43282 9.64527 10.1281C9.25968 10.743 9.45705 10.7152 10.0227 10.9801C11.2001 11.5316 12.5112 11.7442 13.7785 12.0359C14.9907 12.315 17.4477 12.6966 17.4477 12.6966L18.9018 4.45379ZM59.4672 6.54691C59.907 8.34203 60.5395 10.2788 60.9832 12.073C60.9832 12.073 61.6674 11.9158 61.9979 11.9495C62.2816 11.9784 62.8014 12.1479 63.1798 12.3447C63.5098 12.5164 63.9068 12.7696 64.1945 13.0053C64.5046 13.2593 64.8603 13.7125 65.0051 14.0858C65.2153 14.6279 65.0051 15.6541 65.0051 15.6541C65.0051 15.6541 65.8267 15.7284 66.354 15.7838C66.8783 15.8388 67.9318 15.9073 67.9318 15.9073C67.9318 15.9073 67.4202 13.7854 67.0593 12.7583C66.8153 12.0639 66.1869 10.727 66.1869 10.727C66.1869 10.727 65.416 9.97726 64.9865 9.65263C64.1637 9.03063 63.2677 8.50495 62.3692 7.99789C61.4269 7.46612 59.4672 6.54691 59.4672 6.54691ZM86.2716 16.4383C86.1248 16.4345 85.9822 16.4512 85.857 16.5247C85.7343 16.5968 85.6416 16.7597 85.6529 16.9014C85.6724 17.1463 85.9376 17.307 86.1107 17.4818C86.6848 18.0612 87.3771 18.5061 88.0165 19.013C88.9113 19.7224 89.7682 20.4848 90.7143 21.1246C91.1247 21.4023 91.5397 21.6848 92.0013 21.8656C92.4105 22.0259 92.8533 22.0924 93.2883 22.1558C94.0977 22.2736 94.9144 22.3336 95.7323 22.3225C96.0241 22.3185 96.3589 22.3991 96.6048 22.2422C96.7667 22.1389 96.7733 21.89 96.8956 21.7421C97.0828 21.5158 97.3262 21.3345 97.5638 21.1617C97.6942 21.0669 97.9506 21.0733 97.9784 20.9147C98.0615 20.4412 97.3933 20.1468 97.0627 19.7971C96.7536 19.4703 96.4862 19.0524 96.0665 18.8895C95.8731 18.8145 95.6496 18.9371 95.4477 18.8895C94.936 18.769 94.5207 18.3912 94.037 18.1856C93.4291 17.9273 92.7957 17.7253 92.1683 17.5188C91.5367 17.3109 90.9039 17.0899 90.2564 16.9384C89.6829 16.8042 89.1021 16.721 88.5177 16.6482C88.0218 16.5865 87.5196 16.5454 87.0203 16.5247C86.7784 16.5147 86.5164 16.4446 86.2716 16.4383ZM13.7785 24.3538C18.3162 24.3538 21.9956 28.0254 21.9956 32.5534C21.9956 37.0815 18.3162 40.753 13.7785 40.753C9.24088 40.753 5.5615 37.0815 5.5615 32.5534C5.5615 28.0254 9.24088 24.3538 13.7785 24.3538ZM80.1707 24.6008C84.7084 24.6008 88.3877 28.2724 88.3877 32.8004C88.3877 37.3284 84.7084 41 80.1707 41C75.6331 41 71.9599 37.3284 71.9599 32.8004C71.9599 28.2724 75.6331 24.6008 80.1707 24.6008ZM13.7785 26.589C10.4782 26.589 7.80138 29.2602 7.80138 32.5534C7.80138 35.8467 10.4782 38.5179 13.7785 38.5179C17.0788 38.5179 19.7495 35.8467 19.7495 32.5534C19.7495 29.2602 17.0788 26.589 13.7785 26.589ZM80.1707 26.836C76.8704 26.836 74.1997 29.5071 74.1997 32.8004C74.1997 36.0937 76.8704 38.7649 80.1707 38.7649C83.471 38.7649 86.1479 36.0937 86.1479 32.8004C86.1479 29.5071 83.471 26.836 80.1707 26.836Z" fill="#F9B233"/>
</svg>
